<mxfile host="Electron" modified="2024-06-06T16:38:39.029Z" agent="Mozilla/5.0 (X11; Linux x86_64) AppleWebKit/537.36 (KHTML, like Gecko) draw.io/24.4.13 Chrome/124.0.6367.207 Electron/30.0.6 Safari/537.36" etag="QgRQWlq__PXAsSKMahDk" version="24.4.13" type="device">
  <diagram name="Pagina-1" id="Jj7MIoWAq9dAmoDiqv5G">
    <mxGraphModel dx="1322" dy="783" grid="1" gridSize="10" guides="1" tooltips="1" connect="1" arrows="1" fold="1" page="1" pageScale="1" pageWidth="827" pageHeight="1169" math="0" shadow="0">
      <root>
        <mxCell id="0" />
        <mxCell id="1" parent="0" />
        <mxCell id="2FRHc-so8YV7qxgjjiC3-118" value="Global" style="text;html=1;align=center;verticalAlign=middle;whiteSpace=wrap;rounded=0;" parent="1" vertex="1">
          <mxGeometry x="110" y="18" width="60" height="30" as="geometry" />
        </mxCell>
        <mxCell id="2FRHc-so8YV7qxgjjiC3-119" value="1ยบ way, copy&amp;nbsp; 2 matrices in shared and than transpose" style="text;html=1;align=center;verticalAlign=middle;whiteSpace=wrap;rounded=0;" parent="1" vertex="1">
          <mxGeometry x="220" y="48" width="300" height="30" as="geometry" />
        </mxCell>
        <mxCell id="2FRHc-so8YV7qxgjjiC3-120" value="" style="shape=table;startSize=0;container=1;collapsible=0;childLayout=tableLayout;fontSize=16;" parent="1" vertex="1">
          <mxGeometry x="350" y="120" width="80" height="80" as="geometry" />
        </mxCell>
        <mxCell id="2FRHc-so8YV7qxgjjiC3-121" value="" style="shape=tableRow;horizontal=0;startSize=0;swimlaneHead=0;swimlaneBody=0;strokeColor=inherit;top=0;left=0;bottom=0;right=0;collapsible=0;dropTarget=0;fillColor=none;points=[[0,0.5],[1,0.5]];portConstraint=eastwest;fontSize=16;" parent="2FRHc-so8YV7qxgjjiC3-120" vertex="1">
          <mxGeometry width="80" height="29" as="geometry" />
        </mxCell>
        <mxCell id="2FRHc-so8YV7qxgjjiC3-122" value="" style="shape=partialRectangle;html=1;whiteSpace=wrap;connectable=0;strokeColor=inherit;overflow=hidden;fillColor=none;top=0;left=0;bottom=0;right=0;pointerEvents=1;fontSize=16;" parent="2FRHc-so8YV7qxgjjiC3-121" vertex="1">
          <mxGeometry width="28" height="29" as="geometry">
            <mxRectangle width="28" height="29" as="alternateBounds" />
          </mxGeometry>
        </mxCell>
        <mxCell id="2FRHc-so8YV7qxgjjiC3-123" value="" style="shape=partialRectangle;html=1;whiteSpace=wrap;connectable=0;strokeColor=inherit;overflow=hidden;fillColor=none;top=0;left=0;bottom=0;right=0;pointerEvents=1;fontSize=16;" parent="2FRHc-so8YV7qxgjjiC3-121" vertex="1">
          <mxGeometry x="28" width="24" height="29" as="geometry">
            <mxRectangle width="24" height="29" as="alternateBounds" />
          </mxGeometry>
        </mxCell>
        <mxCell id="2FRHc-so8YV7qxgjjiC3-124" value="" style="shape=partialRectangle;html=1;whiteSpace=wrap;connectable=0;strokeColor=#A50040;overflow=hidden;fillColor=#d80073;top=0;left=0;bottom=0;right=0;pointerEvents=1;fontSize=16;fontColor=#ffffff;" parent="2FRHc-so8YV7qxgjjiC3-121" vertex="1">
          <mxGeometry x="52" width="28" height="29" as="geometry">
            <mxRectangle width="28" height="29" as="alternateBounds" />
          </mxGeometry>
        </mxCell>
        <mxCell id="2FRHc-so8YV7qxgjjiC3-125" value="" style="shape=tableRow;horizontal=0;startSize=0;swimlaneHead=0;swimlaneBody=0;strokeColor=inherit;top=0;left=0;bottom=0;right=0;collapsible=0;dropTarget=0;fillColor=none;points=[[0,0.5],[1,0.5]];portConstraint=eastwest;fontSize=16;" parent="2FRHc-so8YV7qxgjjiC3-120" vertex="1">
          <mxGeometry y="29" width="80" height="25" as="geometry" />
        </mxCell>
        <mxCell id="2FRHc-so8YV7qxgjjiC3-126" value="" style="shape=partialRectangle;html=1;whiteSpace=wrap;connectable=0;strokeColor=inherit;overflow=hidden;fillColor=none;top=0;left=0;bottom=0;right=0;pointerEvents=1;fontSize=16;" parent="2FRHc-so8YV7qxgjjiC3-125" vertex="1">
          <mxGeometry width="28" height="25" as="geometry">
            <mxRectangle width="28" height="25" as="alternateBounds" />
          </mxGeometry>
        </mxCell>
        <mxCell id="2FRHc-so8YV7qxgjjiC3-127" value="" style="shape=partialRectangle;html=1;whiteSpace=wrap;connectable=0;strokeColor=inherit;overflow=hidden;fillColor=none;top=0;left=0;bottom=0;right=0;pointerEvents=1;fontSize=16;" parent="2FRHc-so8YV7qxgjjiC3-125" vertex="1">
          <mxGeometry x="28" width="24" height="25" as="geometry">
            <mxRectangle width="24" height="25" as="alternateBounds" />
          </mxGeometry>
        </mxCell>
        <mxCell id="2FRHc-so8YV7qxgjjiC3-128" value="" style="shape=partialRectangle;html=1;whiteSpace=wrap;connectable=0;strokeColor=inherit;overflow=hidden;fillColor=none;top=0;left=0;bottom=0;right=0;pointerEvents=1;fontSize=16;" parent="2FRHc-so8YV7qxgjjiC3-125" vertex="1">
          <mxGeometry x="52" width="28" height="25" as="geometry">
            <mxRectangle width="28" height="25" as="alternateBounds" />
          </mxGeometry>
        </mxCell>
        <mxCell id="2FRHc-so8YV7qxgjjiC3-129" value="" style="shape=tableRow;horizontal=0;startSize=0;swimlaneHead=0;swimlaneBody=0;strokeColor=inherit;top=0;left=0;bottom=0;right=0;collapsible=0;dropTarget=0;fillColor=none;points=[[0,0.5],[1,0.5]];portConstraint=eastwest;fontSize=16;" parent="2FRHc-so8YV7qxgjjiC3-120" vertex="1">
          <mxGeometry y="54" width="80" height="26" as="geometry" />
        </mxCell>
        <mxCell id="2FRHc-so8YV7qxgjjiC3-130" value="" style="shape=partialRectangle;html=1;whiteSpace=wrap;connectable=0;strokeColor=inherit;overflow=hidden;fillColor=none;top=0;left=0;bottom=0;right=0;pointerEvents=1;fontSize=16;" parent="2FRHc-so8YV7qxgjjiC3-129" vertex="1">
          <mxGeometry width="28" height="26" as="geometry">
            <mxRectangle width="28" height="26" as="alternateBounds" />
          </mxGeometry>
        </mxCell>
        <mxCell id="2FRHc-so8YV7qxgjjiC3-131" value="" style="shape=partialRectangle;html=1;whiteSpace=wrap;connectable=0;strokeColor=inherit;overflow=hidden;fillColor=none;top=0;left=0;bottom=0;right=0;pointerEvents=1;fontSize=16;" parent="2FRHc-so8YV7qxgjjiC3-129" vertex="1">
          <mxGeometry x="28" width="24" height="26" as="geometry">
            <mxRectangle width="24" height="26" as="alternateBounds" />
          </mxGeometry>
        </mxCell>
        <mxCell id="2FRHc-so8YV7qxgjjiC3-132" value="" style="shape=partialRectangle;html=1;whiteSpace=wrap;connectable=0;strokeColor=inherit;overflow=hidden;fillColor=none;top=0;left=0;bottom=0;right=0;pointerEvents=1;fontSize=16;" parent="2FRHc-so8YV7qxgjjiC3-129" vertex="1">
          <mxGeometry x="52" width="28" height="26" as="geometry">
            <mxRectangle width="28" height="26" as="alternateBounds" />
          </mxGeometry>
        </mxCell>
        <mxCell id="2FRHc-so8YV7qxgjjiC3-133" style="edgeStyle=orthogonalEdgeStyle;rounded=0;orthogonalLoop=1;jettySize=auto;html=1;exitX=0.5;exitY=0;exitDx=0;exitDy=0;entryX=0.512;entryY=0.014;entryDx=0;entryDy=0;entryPerimeter=0;" parent="1" source="2FRHc-so8YV7qxgjjiC3-1" target="2FRHc-so8YV7qxgjjiC3-121" edge="1">
          <mxGeometry relative="1" as="geometry" />
        </mxCell>
        <mxCell id="2FRHc-so8YV7qxgjjiC3-134" value="&lt;font style=&quot;font-size: 10px;&quot;&gt;blocksize&lt;/font&gt;" style="text;html=1;align=center;verticalAlign=middle;resizable=0;points=[];autosize=1;strokeColor=none;fillColor=none;" parent="1" vertex="1">
          <mxGeometry x="80" y="98" width="60" height="30" as="geometry" />
        </mxCell>
        <mxCell id="2FRHc-so8YV7qxgjjiC3-135" value="" style="group" parent="1" vertex="1" connectable="0">
          <mxGeometry x="40" y="120" width="200" height="200" as="geometry" />
        </mxCell>
        <mxCell id="2FRHc-so8YV7qxgjjiC3-1" value="" style="shape=table;startSize=0;container=1;collapsible=0;childLayout=tableLayout;fontSize=16;fillColor=#60a917;fontColor=#ffffff;strokeColor=#2D7600;" parent="2FRHc-so8YV7qxgjjiC3-135" vertex="1">
          <mxGeometry width="66.66666666666667" height="66.66666666666667" as="geometry" />
        </mxCell>
        <mxCell id="2FRHc-so8YV7qxgjjiC3-2" value="" style="shape=tableRow;horizontal=0;startSize=0;swimlaneHead=0;swimlaneBody=0;strokeColor=inherit;top=0;left=0;bottom=0;right=0;collapsible=0;dropTarget=0;fillColor=none;points=[[0,0.5],[1,0.5]];portConstraint=eastwest;fontSize=16;" parent="2FRHc-so8YV7qxgjjiC3-1" vertex="1">
          <mxGeometry width="66.66666666666667" height="23" as="geometry" />
        </mxCell>
        <mxCell id="2FRHc-so8YV7qxgjjiC3-3" value="0" style="shape=partialRectangle;html=1;whiteSpace=wrap;connectable=0;strokeColor=inherit;overflow=hidden;fillColor=none;top=0;left=0;bottom=0;right=0;pointerEvents=1;fontSize=16;" parent="2FRHc-so8YV7qxgjjiC3-2" vertex="1">
          <mxGeometry width="23" height="23" as="geometry">
            <mxRectangle width="23" height="23" as="alternateBounds" />
          </mxGeometry>
        </mxCell>
        <mxCell id="2FRHc-so8YV7qxgjjiC3-4" value="1" style="shape=partialRectangle;html=1;whiteSpace=wrap;connectable=0;strokeColor=inherit;overflow=hidden;fillColor=none;top=0;left=0;bottom=0;right=0;pointerEvents=1;fontSize=16;" parent="2FRHc-so8YV7qxgjjiC3-2" vertex="1">
          <mxGeometry x="23" width="20" height="23" as="geometry">
            <mxRectangle width="20" height="23" as="alternateBounds" />
          </mxGeometry>
        </mxCell>
        <mxCell id="2FRHc-so8YV7qxgjjiC3-5" value="2" style="shape=partialRectangle;html=1;whiteSpace=wrap;connectable=0;strokeColor=inherit;overflow=hidden;fillColor=none;top=0;left=0;bottom=0;right=0;pointerEvents=1;fontSize=16;" parent="2FRHc-so8YV7qxgjjiC3-2" vertex="1">
          <mxGeometry x="43" width="24" height="23" as="geometry">
            <mxRectangle width="24" height="23" as="alternateBounds" />
          </mxGeometry>
        </mxCell>
        <mxCell id="2FRHc-so8YV7qxgjjiC3-6" value="" style="shape=tableRow;horizontal=0;startSize=0;swimlaneHead=0;swimlaneBody=0;strokeColor=inherit;top=0;left=0;bottom=0;right=0;collapsible=0;dropTarget=0;fillColor=none;points=[[0,0.5],[1,0.5]];portConstraint=eastwest;fontSize=16;" parent="2FRHc-so8YV7qxgjjiC3-1" vertex="1">
          <mxGeometry y="23" width="66.66666666666667" height="22" as="geometry" />
        </mxCell>
        <mxCell id="2FRHc-so8YV7qxgjjiC3-7" value="1" style="shape=partialRectangle;html=1;whiteSpace=wrap;connectable=0;strokeColor=inherit;overflow=hidden;fillColor=none;top=0;left=0;bottom=0;right=0;pointerEvents=1;fontSize=16;" parent="2FRHc-so8YV7qxgjjiC3-6" vertex="1">
          <mxGeometry width="23" height="22" as="geometry">
            <mxRectangle width="23" height="22" as="alternateBounds" />
          </mxGeometry>
        </mxCell>
        <mxCell id="2FRHc-so8YV7qxgjjiC3-8" value="" style="shape=partialRectangle;html=1;whiteSpace=wrap;connectable=0;strokeColor=inherit;overflow=hidden;fillColor=none;top=0;left=0;bottom=0;right=0;pointerEvents=1;fontSize=16;" parent="2FRHc-so8YV7qxgjjiC3-6" vertex="1">
          <mxGeometry x="23" width="20" height="22" as="geometry">
            <mxRectangle width="20" height="22" as="alternateBounds" />
          </mxGeometry>
        </mxCell>
        <mxCell id="2FRHc-so8YV7qxgjjiC3-9" value="" style="shape=partialRectangle;html=1;whiteSpace=wrap;connectable=0;strokeColor=inherit;overflow=hidden;fillColor=none;top=0;left=0;bottom=0;right=0;pointerEvents=1;fontSize=16;" parent="2FRHc-so8YV7qxgjjiC3-6" vertex="1">
          <mxGeometry x="43" width="24" height="22" as="geometry">
            <mxRectangle width="24" height="22" as="alternateBounds" />
          </mxGeometry>
        </mxCell>
        <mxCell id="2FRHc-so8YV7qxgjjiC3-10" value="" style="shape=tableRow;horizontal=0;startSize=0;swimlaneHead=0;swimlaneBody=0;strokeColor=inherit;top=0;left=0;bottom=0;right=0;collapsible=0;dropTarget=0;fillColor=none;points=[[0,0.5],[1,0.5]];portConstraint=eastwest;fontSize=16;" parent="2FRHc-so8YV7qxgjjiC3-1" vertex="1">
          <mxGeometry y="45" width="66.66666666666667" height="22" as="geometry" />
        </mxCell>
        <mxCell id="2FRHc-so8YV7qxgjjiC3-11" value="2" style="shape=partialRectangle;html=1;whiteSpace=wrap;connectable=0;strokeColor=inherit;overflow=hidden;fillColor=none;top=0;left=0;bottom=0;right=0;pointerEvents=1;fontSize=16;" parent="2FRHc-so8YV7qxgjjiC3-10" vertex="1">
          <mxGeometry width="23" height="22" as="geometry">
            <mxRectangle width="23" height="22" as="alternateBounds" />
          </mxGeometry>
        </mxCell>
        <mxCell id="2FRHc-so8YV7qxgjjiC3-12" value="" style="shape=partialRectangle;html=1;whiteSpace=wrap;connectable=0;strokeColor=inherit;overflow=hidden;fillColor=none;top=0;left=0;bottom=0;right=0;pointerEvents=1;fontSize=16;" parent="2FRHc-so8YV7qxgjjiC3-10" vertex="1">
          <mxGeometry x="23" width="20" height="22" as="geometry">
            <mxRectangle width="20" height="22" as="alternateBounds" />
          </mxGeometry>
        </mxCell>
        <mxCell id="2FRHc-so8YV7qxgjjiC3-13" value="" style="shape=partialRectangle;html=1;whiteSpace=wrap;connectable=0;strokeColor=inherit;overflow=hidden;fillColor=none;top=0;left=0;bottom=0;right=0;pointerEvents=1;fontSize=16;" parent="2FRHc-so8YV7qxgjjiC3-10" vertex="1">
          <mxGeometry x="43" width="24" height="22" as="geometry">
            <mxRectangle width="24" height="22" as="alternateBounds" />
          </mxGeometry>
        </mxCell>
        <mxCell id="2FRHc-so8YV7qxgjjiC3-14" value="" style="shape=table;startSize=0;container=1;collapsible=0;childLayout=tableLayout;fontSize=16;fillColor=#6a00ff;fontColor=#ffffff;strokeColor=#3700CC;" parent="2FRHc-so8YV7qxgjjiC3-135" vertex="1">
          <mxGeometry x="66.66666666666667" width="66.66666666666667" height="66.66666666666667" as="geometry" />
        </mxCell>
        <mxCell id="2FRHc-so8YV7qxgjjiC3-15" value="" style="shape=tableRow;horizontal=0;startSize=0;swimlaneHead=0;swimlaneBody=0;strokeColor=inherit;top=0;left=0;bottom=0;right=0;collapsible=0;dropTarget=0;fillColor=none;points=[[0,0.5],[1,0.5]];portConstraint=eastwest;fontSize=16;" parent="2FRHc-so8YV7qxgjjiC3-14" vertex="1">
          <mxGeometry width="66.66666666666667" height="23" as="geometry" />
        </mxCell>
        <mxCell id="2FRHc-so8YV7qxgjjiC3-16" value="3" style="shape=partialRectangle;html=1;whiteSpace=wrap;connectable=0;strokeColor=inherit;overflow=hidden;fillColor=none;top=0;left=0;bottom=0;right=0;pointerEvents=1;fontSize=16;" parent="2FRHc-so8YV7qxgjjiC3-15" vertex="1">
          <mxGeometry width="23" height="23" as="geometry">
            <mxRectangle width="23" height="23" as="alternateBounds" />
          </mxGeometry>
        </mxCell>
        <mxCell id="2FRHc-so8YV7qxgjjiC3-17" value="4" style="shape=partialRectangle;html=1;whiteSpace=wrap;connectable=0;strokeColor=inherit;overflow=hidden;fillColor=none;top=0;left=0;bottom=0;right=0;pointerEvents=1;fontSize=16;" parent="2FRHc-so8YV7qxgjjiC3-15" vertex="1">
          <mxGeometry x="23" width="20" height="23" as="geometry">
            <mxRectangle width="20" height="23" as="alternateBounds" />
          </mxGeometry>
        </mxCell>
        <mxCell id="2FRHc-so8YV7qxgjjiC3-18" value="5" style="shape=partialRectangle;html=1;whiteSpace=wrap;connectable=0;strokeColor=inherit;overflow=hidden;fillColor=none;top=0;left=0;bottom=0;right=0;pointerEvents=1;fontSize=16;" parent="2FRHc-so8YV7qxgjjiC3-15" vertex="1">
          <mxGeometry x="43" width="24" height="23" as="geometry">
            <mxRectangle width="24" height="23" as="alternateBounds" />
          </mxGeometry>
        </mxCell>
        <mxCell id="2FRHc-so8YV7qxgjjiC3-19" value="" style="shape=tableRow;horizontal=0;startSize=0;swimlaneHead=0;swimlaneBody=0;strokeColor=inherit;top=0;left=0;bottom=0;right=0;collapsible=0;dropTarget=0;fillColor=none;points=[[0,0.5],[1,0.5]];portConstraint=eastwest;fontSize=16;" parent="2FRHc-so8YV7qxgjjiC3-14" vertex="1">
          <mxGeometry y="23" width="66.66666666666667" height="22" as="geometry" />
        </mxCell>
        <mxCell id="2FRHc-so8YV7qxgjjiC3-20" value="" style="shape=partialRectangle;html=1;whiteSpace=wrap;connectable=0;strokeColor=inherit;overflow=hidden;fillColor=none;top=0;left=0;bottom=0;right=0;pointerEvents=1;fontSize=16;" parent="2FRHc-so8YV7qxgjjiC3-19" vertex="1">
          <mxGeometry width="23" height="22" as="geometry">
            <mxRectangle width="23" height="22" as="alternateBounds" />
          </mxGeometry>
        </mxCell>
        <mxCell id="2FRHc-so8YV7qxgjjiC3-21" value="" style="shape=partialRectangle;html=1;whiteSpace=wrap;connectable=0;strokeColor=inherit;overflow=hidden;fillColor=none;top=0;left=0;bottom=0;right=0;pointerEvents=1;fontSize=16;" parent="2FRHc-so8YV7qxgjjiC3-19" vertex="1">
          <mxGeometry x="23" width="20" height="22" as="geometry">
            <mxRectangle width="20" height="22" as="alternateBounds" />
          </mxGeometry>
        </mxCell>
        <mxCell id="2FRHc-so8YV7qxgjjiC3-22" value="" style="shape=partialRectangle;html=1;whiteSpace=wrap;connectable=0;strokeColor=inherit;overflow=hidden;fillColor=none;top=0;left=0;bottom=0;right=0;pointerEvents=1;fontSize=16;" parent="2FRHc-so8YV7qxgjjiC3-19" vertex="1">
          <mxGeometry x="43" width="24" height="22" as="geometry">
            <mxRectangle width="24" height="22" as="alternateBounds" />
          </mxGeometry>
        </mxCell>
        <mxCell id="2FRHc-so8YV7qxgjjiC3-23" value="" style="shape=tableRow;horizontal=0;startSize=0;swimlaneHead=0;swimlaneBody=0;strokeColor=inherit;top=0;left=0;bottom=0;right=0;collapsible=0;dropTarget=0;fillColor=none;points=[[0,0.5],[1,0.5]];portConstraint=eastwest;fontSize=16;" parent="2FRHc-so8YV7qxgjjiC3-14" vertex="1">
          <mxGeometry y="45" width="66.66666666666667" height="22" as="geometry" />
        </mxCell>
        <mxCell id="2FRHc-so8YV7qxgjjiC3-24" value="" style="shape=partialRectangle;html=1;whiteSpace=wrap;connectable=0;strokeColor=inherit;overflow=hidden;fillColor=none;top=0;left=0;bottom=0;right=0;pointerEvents=1;fontSize=16;" parent="2FRHc-so8YV7qxgjjiC3-23" vertex="1">
          <mxGeometry width="23" height="22" as="geometry">
            <mxRectangle width="23" height="22" as="alternateBounds" />
          </mxGeometry>
        </mxCell>
        <mxCell id="2FRHc-so8YV7qxgjjiC3-25" value="" style="shape=partialRectangle;html=1;whiteSpace=wrap;connectable=0;strokeColor=inherit;overflow=hidden;fillColor=none;top=0;left=0;bottom=0;right=0;pointerEvents=1;fontSize=16;" parent="2FRHc-so8YV7qxgjjiC3-23" vertex="1">
          <mxGeometry x="23" width="20" height="22" as="geometry">
            <mxRectangle width="20" height="22" as="alternateBounds" />
          </mxGeometry>
        </mxCell>
        <mxCell id="2FRHc-so8YV7qxgjjiC3-26" value="" style="shape=partialRectangle;html=1;whiteSpace=wrap;connectable=0;strokeColor=inherit;overflow=hidden;fillColor=none;top=0;left=0;bottom=0;right=0;pointerEvents=1;fontSize=16;" parent="2FRHc-so8YV7qxgjjiC3-23" vertex="1">
          <mxGeometry x="43" width="24" height="22" as="geometry">
            <mxRectangle width="24" height="22" as="alternateBounds" />
          </mxGeometry>
        </mxCell>
        <mxCell id="2FRHc-so8YV7qxgjjiC3-27" value="" style="shape=table;startSize=0;container=1;collapsible=0;childLayout=tableLayout;fontSize=16;fillColor=#a20025;fontColor=#ffffff;strokeColor=#6F0000;" parent="2FRHc-so8YV7qxgjjiC3-135" vertex="1">
          <mxGeometry x="133.33333333333334" width="66.66666666666667" height="66.66666666666667" as="geometry" />
        </mxCell>
        <mxCell id="2FRHc-so8YV7qxgjjiC3-28" value="" style="shape=tableRow;horizontal=0;startSize=0;swimlaneHead=0;swimlaneBody=0;strokeColor=inherit;top=0;left=0;bottom=0;right=0;collapsible=0;dropTarget=0;fillColor=none;points=[[0,0.5],[1,0.5]];portConstraint=eastwest;fontSize=16;" parent="2FRHc-so8YV7qxgjjiC3-27" vertex="1">
          <mxGeometry width="66.66666666666667" height="23" as="geometry" />
        </mxCell>
        <mxCell id="2FRHc-so8YV7qxgjjiC3-29" value="" style="shape=partialRectangle;html=1;whiteSpace=wrap;connectable=0;strokeColor=inherit;overflow=hidden;fillColor=none;top=0;left=0;bottom=0;right=0;pointerEvents=1;fontSize=16;" parent="2FRHc-so8YV7qxgjjiC3-28" vertex="1">
          <mxGeometry width="23" height="23" as="geometry">
            <mxRectangle width="23" height="23" as="alternateBounds" />
          </mxGeometry>
        </mxCell>
        <mxCell id="2FRHc-so8YV7qxgjjiC3-30" value="" style="shape=partialRectangle;html=1;whiteSpace=wrap;connectable=0;strokeColor=inherit;overflow=hidden;fillColor=none;top=0;left=0;bottom=0;right=0;pointerEvents=1;fontSize=16;" parent="2FRHc-so8YV7qxgjjiC3-28" vertex="1">
          <mxGeometry x="23" width="20" height="23" as="geometry">
            <mxRectangle width="20" height="23" as="alternateBounds" />
          </mxGeometry>
        </mxCell>
        <mxCell id="2FRHc-so8YV7qxgjjiC3-31" value="" style="shape=partialRectangle;html=1;whiteSpace=wrap;connectable=0;strokeColor=inherit;overflow=hidden;fillColor=none;top=0;left=0;bottom=0;right=0;pointerEvents=1;fontSize=16;" parent="2FRHc-so8YV7qxgjjiC3-28" vertex="1">
          <mxGeometry x="43" width="24" height="23" as="geometry">
            <mxRectangle width="24" height="23" as="alternateBounds" />
          </mxGeometry>
        </mxCell>
        <mxCell id="2FRHc-so8YV7qxgjjiC3-32" value="" style="shape=tableRow;horizontal=0;startSize=0;swimlaneHead=0;swimlaneBody=0;strokeColor=inherit;top=0;left=0;bottom=0;right=0;collapsible=0;dropTarget=0;fillColor=none;points=[[0,0.5],[1,0.5]];portConstraint=eastwest;fontSize=16;" parent="2FRHc-so8YV7qxgjjiC3-27" vertex="1">
          <mxGeometry y="23" width="66.66666666666667" height="22" as="geometry" />
        </mxCell>
        <mxCell id="2FRHc-so8YV7qxgjjiC3-33" value="" style="shape=partialRectangle;html=1;whiteSpace=wrap;connectable=0;strokeColor=inherit;overflow=hidden;fillColor=none;top=0;left=0;bottom=0;right=0;pointerEvents=1;fontSize=16;" parent="2FRHc-so8YV7qxgjjiC3-32" vertex="1">
          <mxGeometry width="23" height="22" as="geometry">
            <mxRectangle width="23" height="22" as="alternateBounds" />
          </mxGeometry>
        </mxCell>
        <mxCell id="2FRHc-so8YV7qxgjjiC3-34" value="" style="shape=partialRectangle;html=1;whiteSpace=wrap;connectable=0;strokeColor=inherit;overflow=hidden;fillColor=none;top=0;left=0;bottom=0;right=0;pointerEvents=1;fontSize=16;" parent="2FRHc-so8YV7qxgjjiC3-32" vertex="1">
          <mxGeometry x="23" width="20" height="22" as="geometry">
            <mxRectangle width="20" height="22" as="alternateBounds" />
          </mxGeometry>
        </mxCell>
        <mxCell id="2FRHc-so8YV7qxgjjiC3-35" value="" style="shape=partialRectangle;html=1;whiteSpace=wrap;connectable=0;strokeColor=inherit;overflow=hidden;fillColor=none;top=0;left=0;bottom=0;right=0;pointerEvents=1;fontSize=16;" parent="2FRHc-so8YV7qxgjjiC3-32" vertex="1">
          <mxGeometry x="43" width="24" height="22" as="geometry">
            <mxRectangle width="24" height="22" as="alternateBounds" />
          </mxGeometry>
        </mxCell>
        <mxCell id="2FRHc-so8YV7qxgjjiC3-36" value="" style="shape=tableRow;horizontal=0;startSize=0;swimlaneHead=0;swimlaneBody=0;strokeColor=inherit;top=0;left=0;bottom=0;right=0;collapsible=0;dropTarget=0;fillColor=none;points=[[0,0.5],[1,0.5]];portConstraint=eastwest;fontSize=16;" parent="2FRHc-so8YV7qxgjjiC3-27" vertex="1">
          <mxGeometry y="45" width="66.66666666666667" height="22" as="geometry" />
        </mxCell>
        <mxCell id="2FRHc-so8YV7qxgjjiC3-37" value="" style="shape=partialRectangle;html=1;whiteSpace=wrap;connectable=0;strokeColor=inherit;overflow=hidden;fillColor=none;top=0;left=0;bottom=0;right=0;pointerEvents=1;fontSize=16;" parent="2FRHc-so8YV7qxgjjiC3-36" vertex="1">
          <mxGeometry width="23" height="22" as="geometry">
            <mxRectangle width="23" height="22" as="alternateBounds" />
          </mxGeometry>
        </mxCell>
        <mxCell id="2FRHc-so8YV7qxgjjiC3-38" value="" style="shape=partialRectangle;html=1;whiteSpace=wrap;connectable=0;strokeColor=inherit;overflow=hidden;fillColor=none;top=0;left=0;bottom=0;right=0;pointerEvents=1;fontSize=16;" parent="2FRHc-so8YV7qxgjjiC3-36" vertex="1">
          <mxGeometry x="23" width="20" height="22" as="geometry">
            <mxRectangle width="20" height="22" as="alternateBounds" />
          </mxGeometry>
        </mxCell>
        <mxCell id="2FRHc-so8YV7qxgjjiC3-39" value="" style="shape=partialRectangle;html=1;whiteSpace=wrap;connectable=0;strokeColor=inherit;overflow=hidden;fillColor=none;top=0;left=0;bottom=0;right=0;pointerEvents=1;fontSize=16;" parent="2FRHc-so8YV7qxgjjiC3-36" vertex="1">
          <mxGeometry x="43" width="24" height="22" as="geometry">
            <mxRectangle width="24" height="22" as="alternateBounds" />
          </mxGeometry>
        </mxCell>
        <mxCell id="2FRHc-so8YV7qxgjjiC3-40" value="" style="shape=table;startSize=0;container=1;collapsible=0;childLayout=tableLayout;fontSize=16;fillColor=#6a00ff;fontColor=#ffffff;strokeColor=#3700CC;" parent="2FRHc-so8YV7qxgjjiC3-135" vertex="1">
          <mxGeometry y="66.66666666666667" width="66.66666666666667" height="66.66666666666667" as="geometry" />
        </mxCell>
        <mxCell id="2FRHc-so8YV7qxgjjiC3-41" value="" style="shape=tableRow;horizontal=0;startSize=0;swimlaneHead=0;swimlaneBody=0;strokeColor=inherit;top=0;left=0;bottom=0;right=0;collapsible=0;dropTarget=0;fillColor=none;points=[[0,0.5],[1,0.5]];portConstraint=eastwest;fontSize=16;" parent="2FRHc-so8YV7qxgjjiC3-40" vertex="1">
          <mxGeometry width="66.66666666666667" height="23" as="geometry" />
        </mxCell>
        <mxCell id="2FRHc-so8YV7qxgjjiC3-42" value="3" style="shape=partialRectangle;html=1;whiteSpace=wrap;connectable=0;strokeColor=inherit;overflow=hidden;fillColor=none;top=0;left=0;bottom=0;right=0;pointerEvents=1;fontSize=16;" parent="2FRHc-so8YV7qxgjjiC3-41" vertex="1">
          <mxGeometry width="23" height="23" as="geometry">
            <mxRectangle width="23" height="23" as="alternateBounds" />
          </mxGeometry>
        </mxCell>
        <mxCell id="2FRHc-so8YV7qxgjjiC3-43" value="" style="shape=partialRectangle;html=1;whiteSpace=wrap;connectable=0;strokeColor=inherit;overflow=hidden;fillColor=none;top=0;left=0;bottom=0;right=0;pointerEvents=1;fontSize=16;" parent="2FRHc-so8YV7qxgjjiC3-41" vertex="1">
          <mxGeometry x="23" width="20" height="23" as="geometry">
            <mxRectangle width="20" height="23" as="alternateBounds" />
          </mxGeometry>
        </mxCell>
        <mxCell id="2FRHc-so8YV7qxgjjiC3-44" value="" style="shape=partialRectangle;html=1;whiteSpace=wrap;connectable=0;strokeColor=inherit;overflow=hidden;fillColor=none;top=0;left=0;bottom=0;right=0;pointerEvents=1;fontSize=16;" parent="2FRHc-so8YV7qxgjjiC3-41" vertex="1">
          <mxGeometry x="43" width="24" height="23" as="geometry">
            <mxRectangle width="24" height="23" as="alternateBounds" />
          </mxGeometry>
        </mxCell>
        <mxCell id="2FRHc-so8YV7qxgjjiC3-45" value="" style="shape=tableRow;horizontal=0;startSize=0;swimlaneHead=0;swimlaneBody=0;strokeColor=inherit;top=0;left=0;bottom=0;right=0;collapsible=0;dropTarget=0;fillColor=none;points=[[0,0.5],[1,0.5]];portConstraint=eastwest;fontSize=16;" parent="2FRHc-so8YV7qxgjjiC3-40" vertex="1">
          <mxGeometry y="23" width="66.66666666666667" height="22" as="geometry" />
        </mxCell>
        <mxCell id="2FRHc-so8YV7qxgjjiC3-46" value="4" style="shape=partialRectangle;html=1;whiteSpace=wrap;connectable=0;strokeColor=inherit;overflow=hidden;fillColor=none;top=0;left=0;bottom=0;right=0;pointerEvents=1;fontSize=16;" parent="2FRHc-so8YV7qxgjjiC3-45" vertex="1">
          <mxGeometry width="23" height="22" as="geometry">
            <mxRectangle width="23" height="22" as="alternateBounds" />
          </mxGeometry>
        </mxCell>
        <mxCell id="2FRHc-so8YV7qxgjjiC3-47" value="" style="shape=partialRectangle;html=1;whiteSpace=wrap;connectable=0;strokeColor=inherit;overflow=hidden;fillColor=none;top=0;left=0;bottom=0;right=0;pointerEvents=1;fontSize=16;" parent="2FRHc-so8YV7qxgjjiC3-45" vertex="1">
          <mxGeometry x="23" width="20" height="22" as="geometry">
            <mxRectangle width="20" height="22" as="alternateBounds" />
          </mxGeometry>
        </mxCell>
        <mxCell id="2FRHc-so8YV7qxgjjiC3-48" value="" style="shape=partialRectangle;html=1;whiteSpace=wrap;connectable=0;strokeColor=inherit;overflow=hidden;fillColor=none;top=0;left=0;bottom=0;right=0;pointerEvents=1;fontSize=16;" parent="2FRHc-so8YV7qxgjjiC3-45" vertex="1">
          <mxGeometry x="43" width="24" height="22" as="geometry">
            <mxRectangle width="24" height="22" as="alternateBounds" />
          </mxGeometry>
        </mxCell>
        <mxCell id="2FRHc-so8YV7qxgjjiC3-49" value="" style="shape=tableRow;horizontal=0;startSize=0;swimlaneHead=0;swimlaneBody=0;strokeColor=inherit;top=0;left=0;bottom=0;right=0;collapsible=0;dropTarget=0;fillColor=none;points=[[0,0.5],[1,0.5]];portConstraint=eastwest;fontSize=16;" parent="2FRHc-so8YV7qxgjjiC3-40" vertex="1">
          <mxGeometry y="45" width="66.66666666666667" height="22" as="geometry" />
        </mxCell>
        <mxCell id="2FRHc-so8YV7qxgjjiC3-50" value="5" style="shape=partialRectangle;html=1;whiteSpace=wrap;connectable=0;strokeColor=inherit;overflow=hidden;fillColor=none;top=0;left=0;bottom=0;right=0;pointerEvents=1;fontSize=16;" parent="2FRHc-so8YV7qxgjjiC3-49" vertex="1">
          <mxGeometry width="23" height="22" as="geometry">
            <mxRectangle width="23" height="22" as="alternateBounds" />
          </mxGeometry>
        </mxCell>
        <mxCell id="2FRHc-so8YV7qxgjjiC3-51" value="" style="shape=partialRectangle;html=1;whiteSpace=wrap;connectable=0;strokeColor=inherit;overflow=hidden;fillColor=none;top=0;left=0;bottom=0;right=0;pointerEvents=1;fontSize=16;" parent="2FRHc-so8YV7qxgjjiC3-49" vertex="1">
          <mxGeometry x="23" width="20" height="22" as="geometry">
            <mxRectangle width="20" height="22" as="alternateBounds" />
          </mxGeometry>
        </mxCell>
        <mxCell id="2FRHc-so8YV7qxgjjiC3-52" value="" style="shape=partialRectangle;html=1;whiteSpace=wrap;connectable=0;strokeColor=inherit;overflow=hidden;fillColor=none;top=0;left=0;bottom=0;right=0;pointerEvents=1;fontSize=16;" parent="2FRHc-so8YV7qxgjjiC3-49" vertex="1">
          <mxGeometry x="43" width="24" height="22" as="geometry">
            <mxRectangle width="24" height="22" as="alternateBounds" />
          </mxGeometry>
        </mxCell>
        <mxCell id="2FRHc-so8YV7qxgjjiC3-53" value="" style="shape=table;startSize=0;container=1;collapsible=0;childLayout=tableLayout;fontSize=16;fillColor=#0050ef;fontColor=#ffffff;strokeColor=#001DBC;" parent="2FRHc-so8YV7qxgjjiC3-135" vertex="1">
          <mxGeometry x="66.66666666666667" y="66.66666666666667" width="66.66666666666667" height="66.66666666666667" as="geometry" />
        </mxCell>
        <mxCell id="2FRHc-so8YV7qxgjjiC3-54" value="" style="shape=tableRow;horizontal=0;startSize=0;swimlaneHead=0;swimlaneBody=0;strokeColor=inherit;top=0;left=0;bottom=0;right=0;collapsible=0;dropTarget=0;fillColor=none;points=[[0,0.5],[1,0.5]];portConstraint=eastwest;fontSize=16;" parent="2FRHc-so8YV7qxgjjiC3-53" vertex="1">
          <mxGeometry width="66.66666666666667" height="23" as="geometry" />
        </mxCell>
        <mxCell id="2FRHc-so8YV7qxgjjiC3-55" value="" style="shape=partialRectangle;html=1;whiteSpace=wrap;connectable=0;strokeColor=inherit;overflow=hidden;fillColor=none;top=0;left=0;bottom=0;right=0;pointerEvents=1;fontSize=16;" parent="2FRHc-so8YV7qxgjjiC3-54" vertex="1">
          <mxGeometry width="23" height="23" as="geometry">
            <mxRectangle width="23" height="23" as="alternateBounds" />
          </mxGeometry>
        </mxCell>
        <mxCell id="2FRHc-so8YV7qxgjjiC3-56" value="" style="shape=partialRectangle;html=1;whiteSpace=wrap;connectable=0;strokeColor=inherit;overflow=hidden;fillColor=none;top=0;left=0;bottom=0;right=0;pointerEvents=1;fontSize=16;" parent="2FRHc-so8YV7qxgjjiC3-54" vertex="1">
          <mxGeometry x="23" width="20" height="23" as="geometry">
            <mxRectangle width="20" height="23" as="alternateBounds" />
          </mxGeometry>
        </mxCell>
        <mxCell id="2FRHc-so8YV7qxgjjiC3-57" value="" style="shape=partialRectangle;html=1;whiteSpace=wrap;connectable=0;strokeColor=inherit;overflow=hidden;fillColor=none;top=0;left=0;bottom=0;right=0;pointerEvents=1;fontSize=16;" parent="2FRHc-so8YV7qxgjjiC3-54" vertex="1">
          <mxGeometry x="43" width="24" height="23" as="geometry">
            <mxRectangle width="24" height="23" as="alternateBounds" />
          </mxGeometry>
        </mxCell>
        <mxCell id="2FRHc-so8YV7qxgjjiC3-58" value="" style="shape=tableRow;horizontal=0;startSize=0;swimlaneHead=0;swimlaneBody=0;strokeColor=inherit;top=0;left=0;bottom=0;right=0;collapsible=0;dropTarget=0;fillColor=none;points=[[0,0.5],[1,0.5]];portConstraint=eastwest;fontSize=16;" parent="2FRHc-so8YV7qxgjjiC3-53" vertex="1">
          <mxGeometry y="23" width="66.66666666666667" height="22" as="geometry" />
        </mxCell>
        <mxCell id="2FRHc-so8YV7qxgjjiC3-59" value="" style="shape=partialRectangle;html=1;whiteSpace=wrap;connectable=0;strokeColor=inherit;overflow=hidden;fillColor=none;top=0;left=0;bottom=0;right=0;pointerEvents=1;fontSize=16;" parent="2FRHc-so8YV7qxgjjiC3-58" vertex="1">
          <mxGeometry width="23" height="22" as="geometry">
            <mxRectangle width="23" height="22" as="alternateBounds" />
          </mxGeometry>
        </mxCell>
        <mxCell id="2FRHc-so8YV7qxgjjiC3-60" value="" style="shape=partialRectangle;html=1;whiteSpace=wrap;connectable=0;strokeColor=inherit;overflow=hidden;fillColor=none;top=0;left=0;bottom=0;right=0;pointerEvents=1;fontSize=16;" parent="2FRHc-so8YV7qxgjjiC3-58" vertex="1">
          <mxGeometry x="23" width="20" height="22" as="geometry">
            <mxRectangle width="20" height="22" as="alternateBounds" />
          </mxGeometry>
        </mxCell>
        <mxCell id="2FRHc-so8YV7qxgjjiC3-61" value="" style="shape=partialRectangle;html=1;whiteSpace=wrap;connectable=0;strokeColor=inherit;overflow=hidden;fillColor=none;top=0;left=0;bottom=0;right=0;pointerEvents=1;fontSize=16;" parent="2FRHc-so8YV7qxgjjiC3-58" vertex="1">
          <mxGeometry x="43" width="24" height="22" as="geometry">
            <mxRectangle width="24" height="22" as="alternateBounds" />
          </mxGeometry>
        </mxCell>
        <mxCell id="2FRHc-so8YV7qxgjjiC3-62" value="" style="shape=tableRow;horizontal=0;startSize=0;swimlaneHead=0;swimlaneBody=0;strokeColor=inherit;top=0;left=0;bottom=0;right=0;collapsible=0;dropTarget=0;fillColor=none;points=[[0,0.5],[1,0.5]];portConstraint=eastwest;fontSize=16;" parent="2FRHc-so8YV7qxgjjiC3-53" vertex="1">
          <mxGeometry y="45" width="66.66666666666667" height="22" as="geometry" />
        </mxCell>
        <mxCell id="2FRHc-so8YV7qxgjjiC3-63" value="" style="shape=partialRectangle;html=1;whiteSpace=wrap;connectable=0;strokeColor=inherit;overflow=hidden;fillColor=none;top=0;left=0;bottom=0;right=0;pointerEvents=1;fontSize=16;" parent="2FRHc-so8YV7qxgjjiC3-62" vertex="1">
          <mxGeometry width="23" height="22" as="geometry">
            <mxRectangle width="23" height="22" as="alternateBounds" />
          </mxGeometry>
        </mxCell>
        <mxCell id="2FRHc-so8YV7qxgjjiC3-64" value="" style="shape=partialRectangle;html=1;whiteSpace=wrap;connectable=0;strokeColor=inherit;overflow=hidden;fillColor=none;top=0;left=0;bottom=0;right=0;pointerEvents=1;fontSize=16;" parent="2FRHc-so8YV7qxgjjiC3-62" vertex="1">
          <mxGeometry x="23" width="20" height="22" as="geometry">
            <mxRectangle width="20" height="22" as="alternateBounds" />
          </mxGeometry>
        </mxCell>
        <mxCell id="2FRHc-so8YV7qxgjjiC3-65" value="" style="shape=partialRectangle;html=1;whiteSpace=wrap;connectable=0;strokeColor=inherit;overflow=hidden;fillColor=none;top=0;left=0;bottom=0;right=0;pointerEvents=1;fontSize=16;" parent="2FRHc-so8YV7qxgjjiC3-62" vertex="1">
          <mxGeometry x="43" width="24" height="22" as="geometry">
            <mxRectangle width="24" height="22" as="alternateBounds" />
          </mxGeometry>
        </mxCell>
        <mxCell id="2FRHc-so8YV7qxgjjiC3-66" value="" style="shape=table;startSize=0;container=1;collapsible=0;childLayout=tableLayout;fontSize=16;fillColor=#1ba1e2;fontColor=#ffffff;strokeColor=#006EAF;" parent="2FRHc-so8YV7qxgjjiC3-135" vertex="1">
          <mxGeometry x="133.33333333333334" y="66.66666666666667" width="66.66666666666667" height="66.66666666666667" as="geometry" />
        </mxCell>
        <mxCell id="2FRHc-so8YV7qxgjjiC3-67" value="" style="shape=tableRow;horizontal=0;startSize=0;swimlaneHead=0;swimlaneBody=0;strokeColor=inherit;top=0;left=0;bottom=0;right=0;collapsible=0;dropTarget=0;fillColor=none;points=[[0,0.5],[1,0.5]];portConstraint=eastwest;fontSize=16;" parent="2FRHc-so8YV7qxgjjiC3-66" vertex="1">
          <mxGeometry width="66.66666666666667" height="23" as="geometry" />
        </mxCell>
        <mxCell id="2FRHc-so8YV7qxgjjiC3-68" value="" style="shape=partialRectangle;html=1;whiteSpace=wrap;connectable=0;strokeColor=inherit;overflow=hidden;fillColor=none;top=0;left=0;bottom=0;right=0;pointerEvents=1;fontSize=16;" parent="2FRHc-so8YV7qxgjjiC3-67" vertex="1">
          <mxGeometry width="23" height="23" as="geometry">
            <mxRectangle width="23" height="23" as="alternateBounds" />
          </mxGeometry>
        </mxCell>
        <mxCell id="2FRHc-so8YV7qxgjjiC3-69" value="" style="shape=partialRectangle;html=1;whiteSpace=wrap;connectable=0;strokeColor=inherit;overflow=hidden;fillColor=none;top=0;left=0;bottom=0;right=0;pointerEvents=1;fontSize=16;" parent="2FRHc-so8YV7qxgjjiC3-67" vertex="1">
          <mxGeometry x="23" width="20" height="23" as="geometry">
            <mxRectangle width="20" height="23" as="alternateBounds" />
          </mxGeometry>
        </mxCell>
        <mxCell id="2FRHc-so8YV7qxgjjiC3-70" value="" style="shape=partialRectangle;html=1;whiteSpace=wrap;connectable=0;strokeColor=inherit;overflow=hidden;fillColor=none;top=0;left=0;bottom=0;right=0;pointerEvents=1;fontSize=16;" parent="2FRHc-so8YV7qxgjjiC3-67" vertex="1">
          <mxGeometry x="43" width="24" height="23" as="geometry">
            <mxRectangle width="24" height="23" as="alternateBounds" />
          </mxGeometry>
        </mxCell>
        <mxCell id="2FRHc-so8YV7qxgjjiC3-71" value="" style="shape=tableRow;horizontal=0;startSize=0;swimlaneHead=0;swimlaneBody=0;strokeColor=inherit;top=0;left=0;bottom=0;right=0;collapsible=0;dropTarget=0;fillColor=none;points=[[0,0.5],[1,0.5]];portConstraint=eastwest;fontSize=16;" parent="2FRHc-so8YV7qxgjjiC3-66" vertex="1">
          <mxGeometry y="23" width="66.66666666666667" height="22" as="geometry" />
        </mxCell>
        <mxCell id="2FRHc-so8YV7qxgjjiC3-72" value="" style="shape=partialRectangle;html=1;whiteSpace=wrap;connectable=0;strokeColor=inherit;overflow=hidden;fillColor=none;top=0;left=0;bottom=0;right=0;pointerEvents=1;fontSize=16;" parent="2FRHc-so8YV7qxgjjiC3-71" vertex="1">
          <mxGeometry width="23" height="22" as="geometry">
            <mxRectangle width="23" height="22" as="alternateBounds" />
          </mxGeometry>
        </mxCell>
        <mxCell id="2FRHc-so8YV7qxgjjiC3-73" value="" style="shape=partialRectangle;html=1;whiteSpace=wrap;connectable=0;strokeColor=inherit;overflow=hidden;fillColor=none;top=0;left=0;bottom=0;right=0;pointerEvents=1;fontSize=16;" parent="2FRHc-so8YV7qxgjjiC3-71" vertex="1">
          <mxGeometry x="23" width="20" height="22" as="geometry">
            <mxRectangle width="20" height="22" as="alternateBounds" />
          </mxGeometry>
        </mxCell>
        <mxCell id="2FRHc-so8YV7qxgjjiC3-74" value="" style="shape=partialRectangle;html=1;whiteSpace=wrap;connectable=0;strokeColor=inherit;overflow=hidden;fillColor=none;top=0;left=0;bottom=0;right=0;pointerEvents=1;fontSize=16;" parent="2FRHc-so8YV7qxgjjiC3-71" vertex="1">
          <mxGeometry x="43" width="24" height="22" as="geometry">
            <mxRectangle width="24" height="22" as="alternateBounds" />
          </mxGeometry>
        </mxCell>
        <mxCell id="2FRHc-so8YV7qxgjjiC3-75" value="" style="shape=tableRow;horizontal=0;startSize=0;swimlaneHead=0;swimlaneBody=0;strokeColor=inherit;top=0;left=0;bottom=0;right=0;collapsible=0;dropTarget=0;fillColor=none;points=[[0,0.5],[1,0.5]];portConstraint=eastwest;fontSize=16;" parent="2FRHc-so8YV7qxgjjiC3-66" vertex="1">
          <mxGeometry y="45" width="66.66666666666667" height="22" as="geometry" />
        </mxCell>
        <mxCell id="2FRHc-so8YV7qxgjjiC3-76" value="" style="shape=partialRectangle;html=1;whiteSpace=wrap;connectable=0;strokeColor=inherit;overflow=hidden;fillColor=none;top=0;left=0;bottom=0;right=0;pointerEvents=1;fontSize=16;" parent="2FRHc-so8YV7qxgjjiC3-75" vertex="1">
          <mxGeometry width="23" height="22" as="geometry">
            <mxRectangle width="23" height="22" as="alternateBounds" />
          </mxGeometry>
        </mxCell>
        <mxCell id="2FRHc-so8YV7qxgjjiC3-77" value="" style="shape=partialRectangle;html=1;whiteSpace=wrap;connectable=0;strokeColor=inherit;overflow=hidden;fillColor=none;top=0;left=0;bottom=0;right=0;pointerEvents=1;fontSize=16;" parent="2FRHc-so8YV7qxgjjiC3-75" vertex="1">
          <mxGeometry x="23" width="20" height="22" as="geometry">
            <mxRectangle width="20" height="22" as="alternateBounds" />
          </mxGeometry>
        </mxCell>
        <mxCell id="2FRHc-so8YV7qxgjjiC3-78" value="" style="shape=partialRectangle;html=1;whiteSpace=wrap;connectable=0;strokeColor=inherit;overflow=hidden;fillColor=none;top=0;left=0;bottom=0;right=0;pointerEvents=1;fontSize=16;" parent="2FRHc-so8YV7qxgjjiC3-75" vertex="1">
          <mxGeometry x="43" width="24" height="22" as="geometry">
            <mxRectangle width="24" height="22" as="alternateBounds" />
          </mxGeometry>
        </mxCell>
        <mxCell id="2FRHc-so8YV7qxgjjiC3-79" value="" style="shape=table;startSize=0;container=1;collapsible=0;childLayout=tableLayout;fontSize=16;fillColor=#a20025;fontColor=#ffffff;strokeColor=#6F0000;" parent="2FRHc-so8YV7qxgjjiC3-135" vertex="1">
          <mxGeometry y="133.33333333333334" width="66.66666666666667" height="66.66666666666667" as="geometry" />
        </mxCell>
        <mxCell id="2FRHc-so8YV7qxgjjiC3-80" value="" style="shape=tableRow;horizontal=0;startSize=0;swimlaneHead=0;swimlaneBody=0;strokeColor=inherit;top=0;left=0;bottom=0;right=0;collapsible=0;dropTarget=0;fillColor=none;points=[[0,0.5],[1,0.5]];portConstraint=eastwest;fontSize=16;" parent="2FRHc-so8YV7qxgjjiC3-79" vertex="1">
          <mxGeometry width="66.66666666666667" height="23" as="geometry" />
        </mxCell>
        <mxCell id="2FRHc-so8YV7qxgjjiC3-81" value="" style="shape=partialRectangle;html=1;whiteSpace=wrap;connectable=0;strokeColor=inherit;overflow=hidden;fillColor=none;top=0;left=0;bottom=0;right=0;pointerEvents=1;fontSize=16;" parent="2FRHc-so8YV7qxgjjiC3-80" vertex="1">
          <mxGeometry width="23" height="23" as="geometry">
            <mxRectangle width="23" height="23" as="alternateBounds" />
          </mxGeometry>
        </mxCell>
        <mxCell id="2FRHc-so8YV7qxgjjiC3-82" value="" style="shape=partialRectangle;html=1;whiteSpace=wrap;connectable=0;strokeColor=inherit;overflow=hidden;fillColor=none;top=0;left=0;bottom=0;right=0;pointerEvents=1;fontSize=16;" parent="2FRHc-so8YV7qxgjjiC3-80" vertex="1">
          <mxGeometry x="23" width="20" height="23" as="geometry">
            <mxRectangle width="20" height="23" as="alternateBounds" />
          </mxGeometry>
        </mxCell>
        <mxCell id="2FRHc-so8YV7qxgjjiC3-83" value="" style="shape=partialRectangle;html=1;whiteSpace=wrap;connectable=0;strokeColor=inherit;overflow=hidden;fillColor=none;top=0;left=0;bottom=0;right=0;pointerEvents=1;fontSize=16;" parent="2FRHc-so8YV7qxgjjiC3-80" vertex="1">
          <mxGeometry x="43" width="24" height="23" as="geometry">
            <mxRectangle width="24" height="23" as="alternateBounds" />
          </mxGeometry>
        </mxCell>
        <mxCell id="2FRHc-so8YV7qxgjjiC3-84" value="" style="shape=tableRow;horizontal=0;startSize=0;swimlaneHead=0;swimlaneBody=0;strokeColor=inherit;top=0;left=0;bottom=0;right=0;collapsible=0;dropTarget=0;fillColor=none;points=[[0,0.5],[1,0.5]];portConstraint=eastwest;fontSize=16;" parent="2FRHc-so8YV7qxgjjiC3-79" vertex="1">
          <mxGeometry y="23" width="66.66666666666667" height="22" as="geometry" />
        </mxCell>
        <mxCell id="2FRHc-so8YV7qxgjjiC3-85" value="" style="shape=partialRectangle;html=1;whiteSpace=wrap;connectable=0;strokeColor=inherit;overflow=hidden;fillColor=none;top=0;left=0;bottom=0;right=0;pointerEvents=1;fontSize=16;" parent="2FRHc-so8YV7qxgjjiC3-84" vertex="1">
          <mxGeometry width="23" height="22" as="geometry">
            <mxRectangle width="23" height="22" as="alternateBounds" />
          </mxGeometry>
        </mxCell>
        <mxCell id="2FRHc-so8YV7qxgjjiC3-86" value="" style="shape=partialRectangle;html=1;whiteSpace=wrap;connectable=0;strokeColor=inherit;overflow=hidden;fillColor=none;top=0;left=0;bottom=0;right=0;pointerEvents=1;fontSize=16;" parent="2FRHc-so8YV7qxgjjiC3-84" vertex="1">
          <mxGeometry x="23" width="20" height="22" as="geometry">
            <mxRectangle width="20" height="22" as="alternateBounds" />
          </mxGeometry>
        </mxCell>
        <mxCell id="2FRHc-so8YV7qxgjjiC3-87" value="" style="shape=partialRectangle;html=1;whiteSpace=wrap;connectable=0;strokeColor=inherit;overflow=hidden;fillColor=none;top=0;left=0;bottom=0;right=0;pointerEvents=1;fontSize=16;" parent="2FRHc-so8YV7qxgjjiC3-84" vertex="1">
          <mxGeometry x="43" width="24" height="22" as="geometry">
            <mxRectangle width="24" height="22" as="alternateBounds" />
          </mxGeometry>
        </mxCell>
        <mxCell id="2FRHc-so8YV7qxgjjiC3-88" value="" style="shape=tableRow;horizontal=0;startSize=0;swimlaneHead=0;swimlaneBody=0;strokeColor=inherit;top=0;left=0;bottom=0;right=0;collapsible=0;dropTarget=0;fillColor=none;points=[[0,0.5],[1,0.5]];portConstraint=eastwest;fontSize=16;" parent="2FRHc-so8YV7qxgjjiC3-79" vertex="1">
          <mxGeometry y="45" width="66.66666666666667" height="22" as="geometry" />
        </mxCell>
        <mxCell id="2FRHc-so8YV7qxgjjiC3-89" value="" style="shape=partialRectangle;html=1;whiteSpace=wrap;connectable=0;strokeColor=inherit;overflow=hidden;fillColor=none;top=0;left=0;bottom=0;right=0;pointerEvents=1;fontSize=16;" parent="2FRHc-so8YV7qxgjjiC3-88" vertex="1">
          <mxGeometry width="23" height="22" as="geometry">
            <mxRectangle width="23" height="22" as="alternateBounds" />
          </mxGeometry>
        </mxCell>
        <mxCell id="2FRHc-so8YV7qxgjjiC3-90" value="" style="shape=partialRectangle;html=1;whiteSpace=wrap;connectable=0;strokeColor=inherit;overflow=hidden;fillColor=none;top=0;left=0;bottom=0;right=0;pointerEvents=1;fontSize=16;" parent="2FRHc-so8YV7qxgjjiC3-88" vertex="1">
          <mxGeometry x="23" width="20" height="22" as="geometry">
            <mxRectangle width="20" height="22" as="alternateBounds" />
          </mxGeometry>
        </mxCell>
        <mxCell id="2FRHc-so8YV7qxgjjiC3-91" value="" style="shape=partialRectangle;html=1;whiteSpace=wrap;connectable=0;strokeColor=inherit;overflow=hidden;fillColor=none;top=0;left=0;bottom=0;right=0;pointerEvents=1;fontSize=16;" parent="2FRHc-so8YV7qxgjjiC3-88" vertex="1">
          <mxGeometry x="43" width="24" height="22" as="geometry">
            <mxRectangle width="24" height="22" as="alternateBounds" />
          </mxGeometry>
        </mxCell>
        <mxCell id="2FRHc-so8YV7qxgjjiC3-92" value="" style="shape=table;startSize=0;container=1;collapsible=0;childLayout=tableLayout;fontSize=16;fillColor=#1ba1e2;fontColor=#ffffff;strokeColor=#006EAF;" parent="2FRHc-so8YV7qxgjjiC3-135" vertex="1">
          <mxGeometry x="66.66666666666667" y="133.33333333333334" width="66.66666666666667" height="66.66666666666667" as="geometry" />
        </mxCell>
        <mxCell id="2FRHc-so8YV7qxgjjiC3-93" value="" style="shape=tableRow;horizontal=0;startSize=0;swimlaneHead=0;swimlaneBody=0;strokeColor=inherit;top=0;left=0;bottom=0;right=0;collapsible=0;dropTarget=0;fillColor=none;points=[[0,0.5],[1,0.5]];portConstraint=eastwest;fontSize=16;" parent="2FRHc-so8YV7qxgjjiC3-92" vertex="1">
          <mxGeometry width="66.66666666666667" height="23" as="geometry" />
        </mxCell>
        <mxCell id="2FRHc-so8YV7qxgjjiC3-94" value="" style="shape=partialRectangle;html=1;whiteSpace=wrap;connectable=0;strokeColor=inherit;overflow=hidden;fillColor=none;top=0;left=0;bottom=0;right=0;pointerEvents=1;fontSize=16;" parent="2FRHc-so8YV7qxgjjiC3-93" vertex="1">
          <mxGeometry width="23" height="23" as="geometry">
            <mxRectangle width="23" height="23" as="alternateBounds" />
          </mxGeometry>
        </mxCell>
        <mxCell id="2FRHc-so8YV7qxgjjiC3-95" value="" style="shape=partialRectangle;html=1;whiteSpace=wrap;connectable=0;strokeColor=inherit;overflow=hidden;fillColor=none;top=0;left=0;bottom=0;right=0;pointerEvents=1;fontSize=16;" parent="2FRHc-so8YV7qxgjjiC3-93" vertex="1">
          <mxGeometry x="23" width="20" height="23" as="geometry">
            <mxRectangle width="20" height="23" as="alternateBounds" />
          </mxGeometry>
        </mxCell>
        <mxCell id="2FRHc-so8YV7qxgjjiC3-96" value="" style="shape=partialRectangle;html=1;whiteSpace=wrap;connectable=0;strokeColor=inherit;overflow=hidden;fillColor=none;top=0;left=0;bottom=0;right=0;pointerEvents=1;fontSize=16;" parent="2FRHc-so8YV7qxgjjiC3-93" vertex="1">
          <mxGeometry x="43" width="24" height="23" as="geometry">
            <mxRectangle width="24" height="23" as="alternateBounds" />
          </mxGeometry>
        </mxCell>
        <mxCell id="2FRHc-so8YV7qxgjjiC3-97" value="" style="shape=tableRow;horizontal=0;startSize=0;swimlaneHead=0;swimlaneBody=0;strokeColor=inherit;top=0;left=0;bottom=0;right=0;collapsible=0;dropTarget=0;fillColor=none;points=[[0,0.5],[1,0.5]];portConstraint=eastwest;fontSize=16;" parent="2FRHc-so8YV7qxgjjiC3-92" vertex="1">
          <mxGeometry y="23" width="66.66666666666667" height="22" as="geometry" />
        </mxCell>
        <mxCell id="2FRHc-so8YV7qxgjjiC3-98" value="" style="shape=partialRectangle;html=1;whiteSpace=wrap;connectable=0;strokeColor=inherit;overflow=hidden;fillColor=none;top=0;left=0;bottom=0;right=0;pointerEvents=1;fontSize=16;" parent="2FRHc-so8YV7qxgjjiC3-97" vertex="1">
          <mxGeometry width="23" height="22" as="geometry">
            <mxRectangle width="23" height="22" as="alternateBounds" />
          </mxGeometry>
        </mxCell>
        <mxCell id="2FRHc-so8YV7qxgjjiC3-99" value="" style="shape=partialRectangle;html=1;whiteSpace=wrap;connectable=0;strokeColor=inherit;overflow=hidden;fillColor=none;top=0;left=0;bottom=0;right=0;pointerEvents=1;fontSize=16;" parent="2FRHc-so8YV7qxgjjiC3-97" vertex="1">
          <mxGeometry x="23" width="20" height="22" as="geometry">
            <mxRectangle width="20" height="22" as="alternateBounds" />
          </mxGeometry>
        </mxCell>
        <mxCell id="2FRHc-so8YV7qxgjjiC3-100" value="" style="shape=partialRectangle;html=1;whiteSpace=wrap;connectable=0;strokeColor=inherit;overflow=hidden;fillColor=none;top=0;left=0;bottom=0;right=0;pointerEvents=1;fontSize=16;" parent="2FRHc-so8YV7qxgjjiC3-97" vertex="1">
          <mxGeometry x="43" width="24" height="22" as="geometry">
            <mxRectangle width="24" height="22" as="alternateBounds" />
          </mxGeometry>
        </mxCell>
        <mxCell id="2FRHc-so8YV7qxgjjiC3-101" value="" style="shape=tableRow;horizontal=0;startSize=0;swimlaneHead=0;swimlaneBody=0;strokeColor=inherit;top=0;left=0;bottom=0;right=0;collapsible=0;dropTarget=0;fillColor=none;points=[[0,0.5],[1,0.5]];portConstraint=eastwest;fontSize=16;" parent="2FRHc-so8YV7qxgjjiC3-92" vertex="1">
          <mxGeometry y="45" width="66.66666666666667" height="22" as="geometry" />
        </mxCell>
        <mxCell id="2FRHc-so8YV7qxgjjiC3-102" value="" style="shape=partialRectangle;html=1;whiteSpace=wrap;connectable=0;strokeColor=inherit;overflow=hidden;fillColor=none;top=0;left=0;bottom=0;right=0;pointerEvents=1;fontSize=16;" parent="2FRHc-so8YV7qxgjjiC3-101" vertex="1">
          <mxGeometry width="23" height="22" as="geometry">
            <mxRectangle width="23" height="22" as="alternateBounds" />
          </mxGeometry>
        </mxCell>
        <mxCell id="2FRHc-so8YV7qxgjjiC3-103" value="" style="shape=partialRectangle;html=1;whiteSpace=wrap;connectable=0;strokeColor=inherit;overflow=hidden;fillColor=none;top=0;left=0;bottom=0;right=0;pointerEvents=1;fontSize=16;" parent="2FRHc-so8YV7qxgjjiC3-101" vertex="1">
          <mxGeometry x="23" width="20" height="22" as="geometry">
            <mxRectangle width="20" height="22" as="alternateBounds" />
          </mxGeometry>
        </mxCell>
        <mxCell id="2FRHc-so8YV7qxgjjiC3-104" value="" style="shape=partialRectangle;html=1;whiteSpace=wrap;connectable=0;strokeColor=inherit;overflow=hidden;fillColor=none;top=0;left=0;bottom=0;right=0;pointerEvents=1;fontSize=16;" parent="2FRHc-so8YV7qxgjjiC3-101" vertex="1">
          <mxGeometry x="43" width="24" height="22" as="geometry">
            <mxRectangle width="24" height="22" as="alternateBounds" />
          </mxGeometry>
        </mxCell>
        <mxCell id="2FRHc-so8YV7qxgjjiC3-105" value="" style="shape=table;startSize=0;container=1;collapsible=0;childLayout=tableLayout;fontSize=16;fillColor=#d80073;fontColor=#ffffff;strokeColor=#A50040;" parent="2FRHc-so8YV7qxgjjiC3-135" vertex="1">
          <mxGeometry x="133.33333333333334" y="133.33333333333334" width="66.66666666666667" height="66.66666666666667" as="geometry" />
        </mxCell>
        <mxCell id="2FRHc-so8YV7qxgjjiC3-106" value="" style="shape=tableRow;horizontal=0;startSize=0;swimlaneHead=0;swimlaneBody=0;strokeColor=inherit;top=0;left=0;bottom=0;right=0;collapsible=0;dropTarget=0;fillColor=none;points=[[0,0.5],[1,0.5]];portConstraint=eastwest;fontSize=16;" parent="2FRHc-so8YV7qxgjjiC3-105" vertex="1">
          <mxGeometry width="66.66666666666667" height="23" as="geometry" />
        </mxCell>
        <mxCell id="2FRHc-so8YV7qxgjjiC3-107" value="" style="shape=partialRectangle;html=1;whiteSpace=wrap;connectable=0;strokeColor=inherit;overflow=hidden;fillColor=none;top=0;left=0;bottom=0;right=0;pointerEvents=1;fontSize=16;" parent="2FRHc-so8YV7qxgjjiC3-106" vertex="1">
          <mxGeometry width="23" height="23" as="geometry">
            <mxRectangle width="23" height="23" as="alternateBounds" />
          </mxGeometry>
        </mxCell>
        <mxCell id="2FRHc-so8YV7qxgjjiC3-108" value="" style="shape=partialRectangle;html=1;whiteSpace=wrap;connectable=0;strokeColor=inherit;overflow=hidden;fillColor=none;top=0;left=0;bottom=0;right=0;pointerEvents=1;fontSize=16;" parent="2FRHc-so8YV7qxgjjiC3-106" vertex="1">
          <mxGeometry x="23" width="20" height="23" as="geometry">
            <mxRectangle width="20" height="23" as="alternateBounds" />
          </mxGeometry>
        </mxCell>
        <mxCell id="2FRHc-so8YV7qxgjjiC3-109" value="" style="shape=partialRectangle;html=1;whiteSpace=wrap;connectable=0;strokeColor=inherit;overflow=hidden;fillColor=none;top=0;left=0;bottom=0;right=0;pointerEvents=1;fontSize=16;" parent="2FRHc-so8YV7qxgjjiC3-106" vertex="1">
          <mxGeometry x="43" width="24" height="23" as="geometry">
            <mxRectangle width="24" height="23" as="alternateBounds" />
          </mxGeometry>
        </mxCell>
        <mxCell id="2FRHc-so8YV7qxgjjiC3-110" value="" style="shape=tableRow;horizontal=0;startSize=0;swimlaneHead=0;swimlaneBody=0;strokeColor=inherit;top=0;left=0;bottom=0;right=0;collapsible=0;dropTarget=0;fillColor=none;points=[[0,0.5],[1,0.5]];portConstraint=eastwest;fontSize=16;" parent="2FRHc-so8YV7qxgjjiC3-105" vertex="1">
          <mxGeometry y="23" width="66.66666666666667" height="22" as="geometry" />
        </mxCell>
        <mxCell id="2FRHc-so8YV7qxgjjiC3-111" value="" style="shape=partialRectangle;html=1;whiteSpace=wrap;connectable=0;strokeColor=inherit;overflow=hidden;fillColor=none;top=0;left=0;bottom=0;right=0;pointerEvents=1;fontSize=16;" parent="2FRHc-so8YV7qxgjjiC3-110" vertex="1">
          <mxGeometry width="23" height="22" as="geometry">
            <mxRectangle width="23" height="22" as="alternateBounds" />
          </mxGeometry>
        </mxCell>
        <mxCell id="2FRHc-so8YV7qxgjjiC3-112" value="" style="shape=partialRectangle;html=1;whiteSpace=wrap;connectable=0;strokeColor=inherit;overflow=hidden;fillColor=none;top=0;left=0;bottom=0;right=0;pointerEvents=1;fontSize=16;" parent="2FRHc-so8YV7qxgjjiC3-110" vertex="1">
          <mxGeometry x="23" width="20" height="22" as="geometry">
            <mxRectangle width="20" height="22" as="alternateBounds" />
          </mxGeometry>
        </mxCell>
        <mxCell id="2FRHc-so8YV7qxgjjiC3-113" value="" style="shape=partialRectangle;html=1;whiteSpace=wrap;connectable=0;strokeColor=inherit;overflow=hidden;fillColor=none;top=0;left=0;bottom=0;right=0;pointerEvents=1;fontSize=16;" parent="2FRHc-so8YV7qxgjjiC3-110" vertex="1">
          <mxGeometry x="43" width="24" height="22" as="geometry">
            <mxRectangle width="24" height="22" as="alternateBounds" />
          </mxGeometry>
        </mxCell>
        <mxCell id="2FRHc-so8YV7qxgjjiC3-114" value="" style="shape=tableRow;horizontal=0;startSize=0;swimlaneHead=0;swimlaneBody=0;strokeColor=inherit;top=0;left=0;bottom=0;right=0;collapsible=0;dropTarget=0;fillColor=none;points=[[0,0.5],[1,0.5]];portConstraint=eastwest;fontSize=16;" parent="2FRHc-so8YV7qxgjjiC3-105" vertex="1">
          <mxGeometry y="45" width="66.66666666666667" height="22" as="geometry" />
        </mxCell>
        <mxCell id="2FRHc-so8YV7qxgjjiC3-115" value="" style="shape=partialRectangle;html=1;whiteSpace=wrap;connectable=0;strokeColor=inherit;overflow=hidden;fillColor=none;top=0;left=0;bottom=0;right=0;pointerEvents=1;fontSize=16;" parent="2FRHc-so8YV7qxgjjiC3-114" vertex="1">
          <mxGeometry width="23" height="22" as="geometry">
            <mxRectangle width="23" height="22" as="alternateBounds" />
          </mxGeometry>
        </mxCell>
        <mxCell id="2FRHc-so8YV7qxgjjiC3-116" value="" style="shape=partialRectangle;html=1;whiteSpace=wrap;connectable=0;strokeColor=inherit;overflow=hidden;fillColor=none;top=0;left=0;bottom=0;right=0;pointerEvents=1;fontSize=16;" parent="2FRHc-so8YV7qxgjjiC3-114" vertex="1">
          <mxGeometry x="23" width="20" height="22" as="geometry">
            <mxRectangle width="20" height="22" as="alternateBounds" />
          </mxGeometry>
        </mxCell>
        <mxCell id="2FRHc-so8YV7qxgjjiC3-117" value="" style="shape=partialRectangle;html=1;whiteSpace=wrap;connectable=0;strokeColor=inherit;overflow=hidden;fillColor=none;top=0;left=0;bottom=0;right=0;pointerEvents=1;fontSize=16;" parent="2FRHc-so8YV7qxgjjiC3-114" vertex="1">
          <mxGeometry x="43" width="24" height="22" as="geometry">
            <mxRectangle width="24" height="22" as="alternateBounds" />
          </mxGeometry>
        </mxCell>
        <mxCell id="2FRHc-so8YV7qxgjjiC3-136" value="0,0" style="text;html=1;align=center;verticalAlign=middle;resizable=0;points=[];autosize=1;strokeColor=none;fillColor=none;" parent="1" vertex="1">
          <mxGeometry x="5" y="98" width="40" height="30" as="geometry" />
        </mxCell>
        <mxCell id="2FRHc-so8YV7qxgjjiC3-137" value="SHARED" style="text;html=1;align=center;verticalAlign=middle;resizable=0;points=[];autosize=1;strokeColor=none;fillColor=none;" parent="1" vertex="1">
          <mxGeometry x="400" y="320" width="70" height="30" as="geometry" />
        </mxCell>
        <mxCell id="2FRHc-so8YV7qxgjjiC3-138" value="" style="endArrow=none;dashed=1;html=1;dashPattern=1 3;strokeWidth=2;rounded=0;" parent="1" edge="1">
          <mxGeometry width="50" height="50" relative="1" as="geometry">
            <mxPoint x="320" y="280" as="sourcePoint" />
            <mxPoint x="320" y="180" as="targetPoint" />
          </mxGeometry>
        </mxCell>
        <mxCell id="2FRHc-so8YV7qxgjjiC3-139" value="" style="endArrow=none;dashed=1;html=1;dashPattern=1 3;strokeWidth=2;rounded=0;" parent="1" edge="1">
          <mxGeometry width="50" height="50" relative="1" as="geometry">
            <mxPoint x="580" y="270" as="sourcePoint" />
            <mxPoint x="580" y="170" as="targetPoint" />
          </mxGeometry>
        </mxCell>
        <mxCell id="2FRHc-so8YV7qxgjjiC3-140" value="" style="shape=table;startSize=0;container=1;collapsible=0;childLayout=tableLayout;fontSize=16;" parent="1" vertex="1">
          <mxGeometry x="460" y="120" width="80" height="80" as="geometry" />
        </mxCell>
        <mxCell id="2FRHc-so8YV7qxgjjiC3-141" value="" style="shape=tableRow;horizontal=0;startSize=0;swimlaneHead=0;swimlaneBody=0;strokeColor=inherit;top=0;left=0;bottom=0;right=0;collapsible=0;dropTarget=0;fillColor=none;points=[[0,0.5],[1,0.5]];portConstraint=eastwest;fontSize=16;" parent="2FRHc-so8YV7qxgjjiC3-140" vertex="1">
          <mxGeometry width="80" height="29" as="geometry" />
        </mxCell>
        <mxCell id="2FRHc-so8YV7qxgjjiC3-142" value="" style="shape=partialRectangle;html=1;whiteSpace=wrap;connectable=0;strokeColor=inherit;overflow=hidden;fillColor=none;top=0;left=0;bottom=0;right=0;pointerEvents=1;fontSize=16;" parent="2FRHc-so8YV7qxgjjiC3-141" vertex="1">
          <mxGeometry width="28" height="29" as="geometry">
            <mxRectangle width="28" height="29" as="alternateBounds" />
          </mxGeometry>
        </mxCell>
        <mxCell id="2FRHc-so8YV7qxgjjiC3-143" value="" style="shape=partialRectangle;html=1;whiteSpace=wrap;connectable=0;strokeColor=inherit;overflow=hidden;fillColor=none;top=0;left=0;bottom=0;right=0;pointerEvents=1;fontSize=16;" parent="2FRHc-so8YV7qxgjjiC3-141" vertex="1">
          <mxGeometry x="28" width="24" height="29" as="geometry">
            <mxRectangle width="24" height="29" as="alternateBounds" />
          </mxGeometry>
        </mxCell>
        <mxCell id="2FRHc-so8YV7qxgjjiC3-144" value="" style="shape=partialRectangle;html=1;whiteSpace=wrap;connectable=0;strokeColor=inherit;overflow=hidden;fillColor=none;top=0;left=0;bottom=0;right=0;pointerEvents=1;fontSize=16;" parent="2FRHc-so8YV7qxgjjiC3-141" vertex="1">
          <mxGeometry x="52" width="28" height="29" as="geometry">
            <mxRectangle width="28" height="29" as="alternateBounds" />
          </mxGeometry>
        </mxCell>
        <mxCell id="2FRHc-so8YV7qxgjjiC3-145" value="" style="shape=tableRow;horizontal=0;startSize=0;swimlaneHead=0;swimlaneBody=0;strokeColor=inherit;top=0;left=0;bottom=0;right=0;collapsible=0;dropTarget=0;fillColor=none;points=[[0,0.5],[1,0.5]];portConstraint=eastwest;fontSize=16;" parent="2FRHc-so8YV7qxgjjiC3-140" vertex="1">
          <mxGeometry y="29" width="80" height="25" as="geometry" />
        </mxCell>
        <mxCell id="2FRHc-so8YV7qxgjjiC3-146" value="" style="shape=partialRectangle;html=1;whiteSpace=wrap;connectable=0;strokeColor=inherit;overflow=hidden;fillColor=none;top=0;left=0;bottom=0;right=0;pointerEvents=1;fontSize=16;" parent="2FRHc-so8YV7qxgjjiC3-145" vertex="1">
          <mxGeometry width="28" height="25" as="geometry">
            <mxRectangle width="28" height="25" as="alternateBounds" />
          </mxGeometry>
        </mxCell>
        <mxCell id="2FRHc-so8YV7qxgjjiC3-147" value="" style="shape=partialRectangle;html=1;whiteSpace=wrap;connectable=0;strokeColor=inherit;overflow=hidden;fillColor=none;top=0;left=0;bottom=0;right=0;pointerEvents=1;fontSize=16;" parent="2FRHc-so8YV7qxgjjiC3-145" vertex="1">
          <mxGeometry x="28" width="24" height="25" as="geometry">
            <mxRectangle width="24" height="25" as="alternateBounds" />
          </mxGeometry>
        </mxCell>
        <mxCell id="2FRHc-so8YV7qxgjjiC3-148" value="" style="shape=partialRectangle;html=1;whiteSpace=wrap;connectable=0;strokeColor=inherit;overflow=hidden;fillColor=none;top=0;left=0;bottom=0;right=0;pointerEvents=1;fontSize=16;" parent="2FRHc-so8YV7qxgjjiC3-145" vertex="1">
          <mxGeometry x="52" width="28" height="25" as="geometry">
            <mxRectangle width="28" height="25" as="alternateBounds" />
          </mxGeometry>
        </mxCell>
        <mxCell id="2FRHc-so8YV7qxgjjiC3-149" value="" style="shape=tableRow;horizontal=0;startSize=0;swimlaneHead=0;swimlaneBody=0;strokeColor=inherit;top=0;left=0;bottom=0;right=0;collapsible=0;dropTarget=0;fillColor=none;points=[[0,0.5],[1,0.5]];portConstraint=eastwest;fontSize=16;" parent="2FRHc-so8YV7qxgjjiC3-140" vertex="1">
          <mxGeometry y="54" width="80" height="26" as="geometry" />
        </mxCell>
        <mxCell id="2FRHc-so8YV7qxgjjiC3-150" value="" style="shape=partialRectangle;html=1;whiteSpace=wrap;connectable=0;strokeColor=#A50040;overflow=hidden;fillColor=#d80073;top=0;left=0;bottom=0;right=0;pointerEvents=1;fontSize=16;fontColor=#ffffff;" parent="2FRHc-so8YV7qxgjjiC3-149" vertex="1">
          <mxGeometry width="28" height="26" as="geometry">
            <mxRectangle width="28" height="26" as="alternateBounds" />
          </mxGeometry>
        </mxCell>
        <mxCell id="2FRHc-so8YV7qxgjjiC3-151" value="" style="shape=partialRectangle;html=1;whiteSpace=wrap;connectable=0;strokeColor=inherit;overflow=hidden;fillColor=none;top=0;left=0;bottom=0;right=0;pointerEvents=1;fontSize=16;" parent="2FRHc-so8YV7qxgjjiC3-149" vertex="1">
          <mxGeometry x="28" width="24" height="26" as="geometry">
            <mxRectangle width="24" height="26" as="alternateBounds" />
          </mxGeometry>
        </mxCell>
        <mxCell id="2FRHc-so8YV7qxgjjiC3-152" value="" style="shape=partialRectangle;html=1;whiteSpace=wrap;connectable=0;strokeColor=inherit;overflow=hidden;fillColor=none;top=0;left=0;bottom=0;right=0;pointerEvents=1;fontSize=16;" parent="2FRHc-so8YV7qxgjjiC3-149" vertex="1">
          <mxGeometry x="52" width="28" height="26" as="geometry">
            <mxRectangle width="28" height="26" as="alternateBounds" />
          </mxGeometry>
        </mxCell>
        <mxCell id="2FRHc-so8YV7qxgjjiC3-156" style="edgeStyle=orthogonalEdgeStyle;rounded=0;orthogonalLoop=1;jettySize=auto;html=1;exitX=1;exitY=0.5;exitDx=0;exitDy=0;entryX=0;entryY=0.5;entryDx=0;entryDy=0;" parent="1" source="2FRHc-so8YV7qxgjjiC3-121" target="2FRHc-so8YV7qxgjjiC3-149" edge="1">
          <mxGeometry relative="1" as="geometry" />
        </mxCell>
        <mxCell id="2FRHc-so8YV7qxgjjiC3-171" value="" style="group" parent="1" vertex="1" connectable="0">
          <mxGeometry x="610" y="100" width="200" height="200" as="geometry" />
        </mxCell>
        <mxCell id="2FRHc-so8YV7qxgjjiC3-172" value="" style="shape=table;startSize=0;container=1;collapsible=0;childLayout=tableLayout;fontSize=16;fillColor=#60a917;fontColor=#ffffff;strokeColor=#2D7600;" parent="2FRHc-so8YV7qxgjjiC3-171" vertex="1">
          <mxGeometry width="66.66666666666667" height="66.66666666666667" as="geometry" />
        </mxCell>
        <mxCell id="2FRHc-so8YV7qxgjjiC3-173" value="" style="shape=tableRow;horizontal=0;startSize=0;swimlaneHead=0;swimlaneBody=0;strokeColor=inherit;top=0;left=0;bottom=0;right=0;collapsible=0;dropTarget=0;fillColor=none;points=[[0,0.5],[1,0.5]];portConstraint=eastwest;fontSize=16;" parent="2FRHc-so8YV7qxgjjiC3-172" vertex="1">
          <mxGeometry width="66.66666666666667" height="23" as="geometry" />
        </mxCell>
        <mxCell id="2FRHc-so8YV7qxgjjiC3-174" value="" style="shape=partialRectangle;html=1;whiteSpace=wrap;connectable=0;strokeColor=inherit;overflow=hidden;fillColor=none;top=0;left=0;bottom=0;right=0;pointerEvents=1;fontSize=16;" parent="2FRHc-so8YV7qxgjjiC3-173" vertex="1">
          <mxGeometry width="23" height="23" as="geometry">
            <mxRectangle width="23" height="23" as="alternateBounds" />
          </mxGeometry>
        </mxCell>
        <mxCell id="2FRHc-so8YV7qxgjjiC3-175" value="" style="shape=partialRectangle;html=1;whiteSpace=wrap;connectable=0;strokeColor=inherit;overflow=hidden;fillColor=none;top=0;left=0;bottom=0;right=0;pointerEvents=1;fontSize=16;" parent="2FRHc-so8YV7qxgjjiC3-173" vertex="1">
          <mxGeometry x="23" width="20" height="23" as="geometry">
            <mxRectangle width="20" height="23" as="alternateBounds" />
          </mxGeometry>
        </mxCell>
        <mxCell id="2FRHc-so8YV7qxgjjiC3-176" value="" style="shape=partialRectangle;html=1;whiteSpace=wrap;connectable=0;strokeColor=inherit;overflow=hidden;fillColor=none;top=0;left=0;bottom=0;right=0;pointerEvents=1;fontSize=16;" parent="2FRHc-so8YV7qxgjjiC3-173" vertex="1">
          <mxGeometry x="43" width="24" height="23" as="geometry">
            <mxRectangle width="24" height="23" as="alternateBounds" />
          </mxGeometry>
        </mxCell>
        <mxCell id="2FRHc-so8YV7qxgjjiC3-177" value="" style="shape=tableRow;horizontal=0;startSize=0;swimlaneHead=0;swimlaneBody=0;strokeColor=inherit;top=0;left=0;bottom=0;right=0;collapsible=0;dropTarget=0;fillColor=none;points=[[0,0.5],[1,0.5]];portConstraint=eastwest;fontSize=16;" parent="2FRHc-so8YV7qxgjjiC3-172" vertex="1">
          <mxGeometry y="23" width="66.66666666666667" height="22" as="geometry" />
        </mxCell>
        <mxCell id="2FRHc-so8YV7qxgjjiC3-178" value="" style="shape=partialRectangle;html=1;whiteSpace=wrap;connectable=0;strokeColor=inherit;overflow=hidden;fillColor=none;top=0;left=0;bottom=0;right=0;pointerEvents=1;fontSize=16;" parent="2FRHc-so8YV7qxgjjiC3-177" vertex="1">
          <mxGeometry width="23" height="22" as="geometry">
            <mxRectangle width="23" height="22" as="alternateBounds" />
          </mxGeometry>
        </mxCell>
        <mxCell id="2FRHc-so8YV7qxgjjiC3-179" value="" style="shape=partialRectangle;html=1;whiteSpace=wrap;connectable=0;strokeColor=inherit;overflow=hidden;fillColor=none;top=0;left=0;bottom=0;right=0;pointerEvents=1;fontSize=16;" parent="2FRHc-so8YV7qxgjjiC3-177" vertex="1">
          <mxGeometry x="23" width="20" height="22" as="geometry">
            <mxRectangle width="20" height="22" as="alternateBounds" />
          </mxGeometry>
        </mxCell>
        <mxCell id="2FRHc-so8YV7qxgjjiC3-180" value="" style="shape=partialRectangle;html=1;whiteSpace=wrap;connectable=0;strokeColor=inherit;overflow=hidden;fillColor=none;top=0;left=0;bottom=0;right=0;pointerEvents=1;fontSize=16;" parent="2FRHc-so8YV7qxgjjiC3-177" vertex="1">
          <mxGeometry x="43" width="24" height="22" as="geometry">
            <mxRectangle width="24" height="22" as="alternateBounds" />
          </mxGeometry>
        </mxCell>
        <mxCell id="2FRHc-so8YV7qxgjjiC3-181" value="" style="shape=tableRow;horizontal=0;startSize=0;swimlaneHead=0;swimlaneBody=0;strokeColor=inherit;top=0;left=0;bottom=0;right=0;collapsible=0;dropTarget=0;fillColor=none;points=[[0,0.5],[1,0.5]];portConstraint=eastwest;fontSize=16;" parent="2FRHc-so8YV7qxgjjiC3-172" vertex="1">
          <mxGeometry y="45" width="66.66666666666667" height="22" as="geometry" />
        </mxCell>
        <mxCell id="2FRHc-so8YV7qxgjjiC3-182" value="" style="shape=partialRectangle;html=1;whiteSpace=wrap;connectable=0;strokeColor=inherit;overflow=hidden;fillColor=none;top=0;left=0;bottom=0;right=0;pointerEvents=1;fontSize=16;" parent="2FRHc-so8YV7qxgjjiC3-181" vertex="1">
          <mxGeometry width="23" height="22" as="geometry">
            <mxRectangle width="23" height="22" as="alternateBounds" />
          </mxGeometry>
        </mxCell>
        <mxCell id="2FRHc-so8YV7qxgjjiC3-183" value="" style="shape=partialRectangle;html=1;whiteSpace=wrap;connectable=0;strokeColor=inherit;overflow=hidden;fillColor=none;top=0;left=0;bottom=0;right=0;pointerEvents=1;fontSize=16;" parent="2FRHc-so8YV7qxgjjiC3-181" vertex="1">
          <mxGeometry x="23" width="20" height="22" as="geometry">
            <mxRectangle width="20" height="22" as="alternateBounds" />
          </mxGeometry>
        </mxCell>
        <mxCell id="2FRHc-so8YV7qxgjjiC3-184" value="" style="shape=partialRectangle;html=1;whiteSpace=wrap;connectable=0;strokeColor=inherit;overflow=hidden;fillColor=none;top=0;left=0;bottom=0;right=0;pointerEvents=1;fontSize=16;" parent="2FRHc-so8YV7qxgjjiC3-181" vertex="1">
          <mxGeometry x="43" width="24" height="22" as="geometry">
            <mxRectangle width="24" height="22" as="alternateBounds" />
          </mxGeometry>
        </mxCell>
        <mxCell id="2FRHc-so8YV7qxgjjiC3-185" value="" style="shape=table;startSize=0;container=1;collapsible=0;childLayout=tableLayout;fontSize=16;" parent="2FRHc-so8YV7qxgjjiC3-171" vertex="1">
          <mxGeometry x="66.66666666666667" width="66.66666666666667" height="66.66666666666667" as="geometry" />
        </mxCell>
        <mxCell id="2FRHc-so8YV7qxgjjiC3-186" value="" style="shape=tableRow;horizontal=0;startSize=0;swimlaneHead=0;swimlaneBody=0;strokeColor=inherit;top=0;left=0;bottom=0;right=0;collapsible=0;dropTarget=0;fillColor=none;points=[[0,0.5],[1,0.5]];portConstraint=eastwest;fontSize=16;" parent="2FRHc-so8YV7qxgjjiC3-185" vertex="1">
          <mxGeometry width="66.66666666666667" height="23" as="geometry" />
        </mxCell>
        <mxCell id="2FRHc-so8YV7qxgjjiC3-187" value="" style="shape=partialRectangle;html=1;whiteSpace=wrap;connectable=0;strokeColor=inherit;overflow=hidden;fillColor=none;top=0;left=0;bottom=0;right=0;pointerEvents=1;fontSize=16;" parent="2FRHc-so8YV7qxgjjiC3-186" vertex="1">
          <mxGeometry width="23" height="23" as="geometry">
            <mxRectangle width="23" height="23" as="alternateBounds" />
          </mxGeometry>
        </mxCell>
        <mxCell id="2FRHc-so8YV7qxgjjiC3-188" value="" style="shape=partialRectangle;html=1;whiteSpace=wrap;connectable=0;strokeColor=inherit;overflow=hidden;fillColor=none;top=0;left=0;bottom=0;right=0;pointerEvents=1;fontSize=16;" parent="2FRHc-so8YV7qxgjjiC3-186" vertex="1">
          <mxGeometry x="23" width="20" height="23" as="geometry">
            <mxRectangle width="20" height="23" as="alternateBounds" />
          </mxGeometry>
        </mxCell>
        <mxCell id="2FRHc-so8YV7qxgjjiC3-189" value="" style="shape=partialRectangle;html=1;whiteSpace=wrap;connectable=0;strokeColor=inherit;overflow=hidden;fillColor=none;top=0;left=0;bottom=0;right=0;pointerEvents=1;fontSize=16;" parent="2FRHc-so8YV7qxgjjiC3-186" vertex="1">
          <mxGeometry x="43" width="24" height="23" as="geometry">
            <mxRectangle width="24" height="23" as="alternateBounds" />
          </mxGeometry>
        </mxCell>
        <mxCell id="2FRHc-so8YV7qxgjjiC3-190" value="" style="shape=tableRow;horizontal=0;startSize=0;swimlaneHead=0;swimlaneBody=0;strokeColor=inherit;top=0;left=0;bottom=0;right=0;collapsible=0;dropTarget=0;fillColor=none;points=[[0,0.5],[1,0.5]];portConstraint=eastwest;fontSize=16;" parent="2FRHc-so8YV7qxgjjiC3-185" vertex="1">
          <mxGeometry y="23" width="66.66666666666667" height="22" as="geometry" />
        </mxCell>
        <mxCell id="2FRHc-so8YV7qxgjjiC3-191" value="" style="shape=partialRectangle;html=1;whiteSpace=wrap;connectable=0;strokeColor=inherit;overflow=hidden;fillColor=none;top=0;left=0;bottom=0;right=0;pointerEvents=1;fontSize=16;" parent="2FRHc-so8YV7qxgjjiC3-190" vertex="1">
          <mxGeometry width="23" height="22" as="geometry">
            <mxRectangle width="23" height="22" as="alternateBounds" />
          </mxGeometry>
        </mxCell>
        <mxCell id="2FRHc-so8YV7qxgjjiC3-192" value="" style="shape=partialRectangle;html=1;whiteSpace=wrap;connectable=0;strokeColor=inherit;overflow=hidden;fillColor=none;top=0;left=0;bottom=0;right=0;pointerEvents=1;fontSize=16;" parent="2FRHc-so8YV7qxgjjiC3-190" vertex="1">
          <mxGeometry x="23" width="20" height="22" as="geometry">
            <mxRectangle width="20" height="22" as="alternateBounds" />
          </mxGeometry>
        </mxCell>
        <mxCell id="2FRHc-so8YV7qxgjjiC3-193" value="" style="shape=partialRectangle;html=1;whiteSpace=wrap;connectable=0;strokeColor=inherit;overflow=hidden;fillColor=none;top=0;left=0;bottom=0;right=0;pointerEvents=1;fontSize=16;" parent="2FRHc-so8YV7qxgjjiC3-190" vertex="1">
          <mxGeometry x="43" width="24" height="22" as="geometry">
            <mxRectangle width="24" height="22" as="alternateBounds" />
          </mxGeometry>
        </mxCell>
        <mxCell id="2FRHc-so8YV7qxgjjiC3-194" value="" style="shape=tableRow;horizontal=0;startSize=0;swimlaneHead=0;swimlaneBody=0;strokeColor=inherit;top=0;left=0;bottom=0;right=0;collapsible=0;dropTarget=0;fillColor=none;points=[[0,0.5],[1,0.5]];portConstraint=eastwest;fontSize=16;" parent="2FRHc-so8YV7qxgjjiC3-185" vertex="1">
          <mxGeometry y="45" width="66.66666666666667" height="22" as="geometry" />
        </mxCell>
        <mxCell id="2FRHc-so8YV7qxgjjiC3-195" value="" style="shape=partialRectangle;html=1;whiteSpace=wrap;connectable=0;strokeColor=inherit;overflow=hidden;fillColor=none;top=0;left=0;bottom=0;right=0;pointerEvents=1;fontSize=16;" parent="2FRHc-so8YV7qxgjjiC3-194" vertex="1">
          <mxGeometry width="23" height="22" as="geometry">
            <mxRectangle width="23" height="22" as="alternateBounds" />
          </mxGeometry>
        </mxCell>
        <mxCell id="2FRHc-so8YV7qxgjjiC3-196" value="" style="shape=partialRectangle;html=1;whiteSpace=wrap;connectable=0;strokeColor=inherit;overflow=hidden;fillColor=none;top=0;left=0;bottom=0;right=0;pointerEvents=1;fontSize=16;" parent="2FRHc-so8YV7qxgjjiC3-194" vertex="1">
          <mxGeometry x="23" width="20" height="22" as="geometry">
            <mxRectangle width="20" height="22" as="alternateBounds" />
          </mxGeometry>
        </mxCell>
        <mxCell id="2FRHc-so8YV7qxgjjiC3-197" value="" style="shape=partialRectangle;html=1;whiteSpace=wrap;connectable=0;strokeColor=inherit;overflow=hidden;fillColor=none;top=0;left=0;bottom=0;right=0;pointerEvents=1;fontSize=16;" parent="2FRHc-so8YV7qxgjjiC3-194" vertex="1">
          <mxGeometry x="43" width="24" height="22" as="geometry">
            <mxRectangle width="24" height="22" as="alternateBounds" />
          </mxGeometry>
        </mxCell>
        <mxCell id="2FRHc-so8YV7qxgjjiC3-198" value="" style="shape=table;startSize=0;container=1;collapsible=0;childLayout=tableLayout;fontSize=16;" parent="2FRHc-so8YV7qxgjjiC3-171" vertex="1">
          <mxGeometry x="133.33333333333334" width="66.66666666666667" height="66.66666666666667" as="geometry" />
        </mxCell>
        <mxCell id="2FRHc-so8YV7qxgjjiC3-199" value="" style="shape=tableRow;horizontal=0;startSize=0;swimlaneHead=0;swimlaneBody=0;strokeColor=inherit;top=0;left=0;bottom=0;right=0;collapsible=0;dropTarget=0;fillColor=none;points=[[0,0.5],[1,0.5]];portConstraint=eastwest;fontSize=16;" parent="2FRHc-so8YV7qxgjjiC3-198" vertex="1">
          <mxGeometry width="66.66666666666667" height="23" as="geometry" />
        </mxCell>
        <mxCell id="2FRHc-so8YV7qxgjjiC3-200" value="" style="shape=partialRectangle;html=1;whiteSpace=wrap;connectable=0;strokeColor=inherit;overflow=hidden;fillColor=none;top=0;left=0;bottom=0;right=0;pointerEvents=1;fontSize=16;" parent="2FRHc-so8YV7qxgjjiC3-199" vertex="1">
          <mxGeometry width="23" height="23" as="geometry">
            <mxRectangle width="23" height="23" as="alternateBounds" />
          </mxGeometry>
        </mxCell>
        <mxCell id="2FRHc-so8YV7qxgjjiC3-201" value="" style="shape=partialRectangle;html=1;whiteSpace=wrap;connectable=0;strokeColor=inherit;overflow=hidden;fillColor=none;top=0;left=0;bottom=0;right=0;pointerEvents=1;fontSize=16;" parent="2FRHc-so8YV7qxgjjiC3-199" vertex="1">
          <mxGeometry x="23" width="20" height="23" as="geometry">
            <mxRectangle width="20" height="23" as="alternateBounds" />
          </mxGeometry>
        </mxCell>
        <mxCell id="2FRHc-so8YV7qxgjjiC3-202" value="" style="shape=partialRectangle;html=1;whiteSpace=wrap;connectable=0;strokeColor=inherit;overflow=hidden;fillColor=none;top=0;left=0;bottom=0;right=0;pointerEvents=1;fontSize=16;" parent="2FRHc-so8YV7qxgjjiC3-199" vertex="1">
          <mxGeometry x="43" width="24" height="23" as="geometry">
            <mxRectangle width="24" height="23" as="alternateBounds" />
          </mxGeometry>
        </mxCell>
        <mxCell id="2FRHc-so8YV7qxgjjiC3-203" value="" style="shape=tableRow;horizontal=0;startSize=0;swimlaneHead=0;swimlaneBody=0;strokeColor=inherit;top=0;left=0;bottom=0;right=0;collapsible=0;dropTarget=0;fillColor=none;points=[[0,0.5],[1,0.5]];portConstraint=eastwest;fontSize=16;" parent="2FRHc-so8YV7qxgjjiC3-198" vertex="1">
          <mxGeometry y="23" width="66.66666666666667" height="22" as="geometry" />
        </mxCell>
        <mxCell id="2FRHc-so8YV7qxgjjiC3-204" value="" style="shape=partialRectangle;html=1;whiteSpace=wrap;connectable=0;strokeColor=inherit;overflow=hidden;fillColor=none;top=0;left=0;bottom=0;right=0;pointerEvents=1;fontSize=16;" parent="2FRHc-so8YV7qxgjjiC3-203" vertex="1">
          <mxGeometry width="23" height="22" as="geometry">
            <mxRectangle width="23" height="22" as="alternateBounds" />
          </mxGeometry>
        </mxCell>
        <mxCell id="2FRHc-so8YV7qxgjjiC3-205" value="" style="shape=partialRectangle;html=1;whiteSpace=wrap;connectable=0;strokeColor=inherit;overflow=hidden;fillColor=none;top=0;left=0;bottom=0;right=0;pointerEvents=1;fontSize=16;" parent="2FRHc-so8YV7qxgjjiC3-203" vertex="1">
          <mxGeometry x="23" width="20" height="22" as="geometry">
            <mxRectangle width="20" height="22" as="alternateBounds" />
          </mxGeometry>
        </mxCell>
        <mxCell id="2FRHc-so8YV7qxgjjiC3-206" value="" style="shape=partialRectangle;html=1;whiteSpace=wrap;connectable=0;strokeColor=inherit;overflow=hidden;fillColor=none;top=0;left=0;bottom=0;right=0;pointerEvents=1;fontSize=16;" parent="2FRHc-so8YV7qxgjjiC3-203" vertex="1">
          <mxGeometry x="43" width="24" height="22" as="geometry">
            <mxRectangle width="24" height="22" as="alternateBounds" />
          </mxGeometry>
        </mxCell>
        <mxCell id="2FRHc-so8YV7qxgjjiC3-207" value="" style="shape=tableRow;horizontal=0;startSize=0;swimlaneHead=0;swimlaneBody=0;strokeColor=inherit;top=0;left=0;bottom=0;right=0;collapsible=0;dropTarget=0;fillColor=none;points=[[0,0.5],[1,0.5]];portConstraint=eastwest;fontSize=16;" parent="2FRHc-so8YV7qxgjjiC3-198" vertex="1">
          <mxGeometry y="45" width="66.66666666666667" height="22" as="geometry" />
        </mxCell>
        <mxCell id="2FRHc-so8YV7qxgjjiC3-208" value="" style="shape=partialRectangle;html=1;whiteSpace=wrap;connectable=0;strokeColor=inherit;overflow=hidden;fillColor=none;top=0;left=0;bottom=0;right=0;pointerEvents=1;fontSize=16;" parent="2FRHc-so8YV7qxgjjiC3-207" vertex="1">
          <mxGeometry width="23" height="22" as="geometry">
            <mxRectangle width="23" height="22" as="alternateBounds" />
          </mxGeometry>
        </mxCell>
        <mxCell id="2FRHc-so8YV7qxgjjiC3-209" value="" style="shape=partialRectangle;html=1;whiteSpace=wrap;connectable=0;strokeColor=inherit;overflow=hidden;fillColor=none;top=0;left=0;bottom=0;right=0;pointerEvents=1;fontSize=16;" parent="2FRHc-so8YV7qxgjjiC3-207" vertex="1">
          <mxGeometry x="23" width="20" height="22" as="geometry">
            <mxRectangle width="20" height="22" as="alternateBounds" />
          </mxGeometry>
        </mxCell>
        <mxCell id="2FRHc-so8YV7qxgjjiC3-210" value="" style="shape=partialRectangle;html=1;whiteSpace=wrap;connectable=0;strokeColor=inherit;overflow=hidden;fillColor=none;top=0;left=0;bottom=0;right=0;pointerEvents=1;fontSize=16;" parent="2FRHc-so8YV7qxgjjiC3-207" vertex="1">
          <mxGeometry x="43" width="24" height="22" as="geometry">
            <mxRectangle width="24" height="22" as="alternateBounds" />
          </mxGeometry>
        </mxCell>
        <mxCell id="2FRHc-so8YV7qxgjjiC3-211" value="" style="shape=table;startSize=0;container=1;collapsible=0;childLayout=tableLayout;fontSize=16;" parent="2FRHc-so8YV7qxgjjiC3-171" vertex="1">
          <mxGeometry y="66.66666666666667" width="66.66666666666667" height="66.66666666666667" as="geometry" />
        </mxCell>
        <mxCell id="2FRHc-so8YV7qxgjjiC3-212" value="" style="shape=tableRow;horizontal=0;startSize=0;swimlaneHead=0;swimlaneBody=0;strokeColor=inherit;top=0;left=0;bottom=0;right=0;collapsible=0;dropTarget=0;fillColor=none;points=[[0,0.5],[1,0.5]];portConstraint=eastwest;fontSize=16;" parent="2FRHc-so8YV7qxgjjiC3-211" vertex="1">
          <mxGeometry width="66.66666666666667" height="23" as="geometry" />
        </mxCell>
        <mxCell id="2FRHc-so8YV7qxgjjiC3-213" value="" style="shape=partialRectangle;html=1;whiteSpace=wrap;connectable=0;strokeColor=inherit;overflow=hidden;fillColor=none;top=0;left=0;bottom=0;right=0;pointerEvents=1;fontSize=16;" parent="2FRHc-so8YV7qxgjjiC3-212" vertex="1">
          <mxGeometry width="23" height="23" as="geometry">
            <mxRectangle width="23" height="23" as="alternateBounds" />
          </mxGeometry>
        </mxCell>
        <mxCell id="2FRHc-so8YV7qxgjjiC3-214" value="" style="shape=partialRectangle;html=1;whiteSpace=wrap;connectable=0;strokeColor=inherit;overflow=hidden;fillColor=none;top=0;left=0;bottom=0;right=0;pointerEvents=1;fontSize=16;" parent="2FRHc-so8YV7qxgjjiC3-212" vertex="1">
          <mxGeometry x="23" width="20" height="23" as="geometry">
            <mxRectangle width="20" height="23" as="alternateBounds" />
          </mxGeometry>
        </mxCell>
        <mxCell id="2FRHc-so8YV7qxgjjiC3-215" value="" style="shape=partialRectangle;html=1;whiteSpace=wrap;connectable=0;strokeColor=inherit;overflow=hidden;fillColor=none;top=0;left=0;bottom=0;right=0;pointerEvents=1;fontSize=16;" parent="2FRHc-so8YV7qxgjjiC3-212" vertex="1">
          <mxGeometry x="43" width="24" height="23" as="geometry">
            <mxRectangle width="24" height="23" as="alternateBounds" />
          </mxGeometry>
        </mxCell>
        <mxCell id="2FRHc-so8YV7qxgjjiC3-216" value="" style="shape=tableRow;horizontal=0;startSize=0;swimlaneHead=0;swimlaneBody=0;strokeColor=inherit;top=0;left=0;bottom=0;right=0;collapsible=0;dropTarget=0;fillColor=none;points=[[0,0.5],[1,0.5]];portConstraint=eastwest;fontSize=16;" parent="2FRHc-so8YV7qxgjjiC3-211" vertex="1">
          <mxGeometry y="23" width="66.66666666666667" height="22" as="geometry" />
        </mxCell>
        <mxCell id="2FRHc-so8YV7qxgjjiC3-217" value="" style="shape=partialRectangle;html=1;whiteSpace=wrap;connectable=0;strokeColor=inherit;overflow=hidden;fillColor=none;top=0;left=0;bottom=0;right=0;pointerEvents=1;fontSize=16;" parent="2FRHc-so8YV7qxgjjiC3-216" vertex="1">
          <mxGeometry width="23" height="22" as="geometry">
            <mxRectangle width="23" height="22" as="alternateBounds" />
          </mxGeometry>
        </mxCell>
        <mxCell id="2FRHc-so8YV7qxgjjiC3-218" value="" style="shape=partialRectangle;html=1;whiteSpace=wrap;connectable=0;strokeColor=inherit;overflow=hidden;fillColor=none;top=0;left=0;bottom=0;right=0;pointerEvents=1;fontSize=16;" parent="2FRHc-so8YV7qxgjjiC3-216" vertex="1">
          <mxGeometry x="23" width="20" height="22" as="geometry">
            <mxRectangle width="20" height="22" as="alternateBounds" />
          </mxGeometry>
        </mxCell>
        <mxCell id="2FRHc-so8YV7qxgjjiC3-219" value="" style="shape=partialRectangle;html=1;whiteSpace=wrap;connectable=0;strokeColor=inherit;overflow=hidden;fillColor=none;top=0;left=0;bottom=0;right=0;pointerEvents=1;fontSize=16;" parent="2FRHc-so8YV7qxgjjiC3-216" vertex="1">
          <mxGeometry x="43" width="24" height="22" as="geometry">
            <mxRectangle width="24" height="22" as="alternateBounds" />
          </mxGeometry>
        </mxCell>
        <mxCell id="2FRHc-so8YV7qxgjjiC3-220" value="" style="shape=tableRow;horizontal=0;startSize=0;swimlaneHead=0;swimlaneBody=0;strokeColor=inherit;top=0;left=0;bottom=0;right=0;collapsible=0;dropTarget=0;fillColor=none;points=[[0,0.5],[1,0.5]];portConstraint=eastwest;fontSize=16;" parent="2FRHc-so8YV7qxgjjiC3-211" vertex="1">
          <mxGeometry y="45" width="66.66666666666667" height="22" as="geometry" />
        </mxCell>
        <mxCell id="2FRHc-so8YV7qxgjjiC3-221" value="" style="shape=partialRectangle;html=1;whiteSpace=wrap;connectable=0;strokeColor=inherit;overflow=hidden;fillColor=none;top=0;left=0;bottom=0;right=0;pointerEvents=1;fontSize=16;" parent="2FRHc-so8YV7qxgjjiC3-220" vertex="1">
          <mxGeometry width="23" height="22" as="geometry">
            <mxRectangle width="23" height="22" as="alternateBounds" />
          </mxGeometry>
        </mxCell>
        <mxCell id="2FRHc-so8YV7qxgjjiC3-222" value="" style="shape=partialRectangle;html=1;whiteSpace=wrap;connectable=0;strokeColor=inherit;overflow=hidden;fillColor=none;top=0;left=0;bottom=0;right=0;pointerEvents=1;fontSize=16;" parent="2FRHc-so8YV7qxgjjiC3-220" vertex="1">
          <mxGeometry x="23" width="20" height="22" as="geometry">
            <mxRectangle width="20" height="22" as="alternateBounds" />
          </mxGeometry>
        </mxCell>
        <mxCell id="2FRHc-so8YV7qxgjjiC3-223" value="" style="shape=partialRectangle;html=1;whiteSpace=wrap;connectable=0;strokeColor=inherit;overflow=hidden;fillColor=none;top=0;left=0;bottom=0;right=0;pointerEvents=1;fontSize=16;" parent="2FRHc-so8YV7qxgjjiC3-220" vertex="1">
          <mxGeometry x="43" width="24" height="22" as="geometry">
            <mxRectangle width="24" height="22" as="alternateBounds" />
          </mxGeometry>
        </mxCell>
        <mxCell id="2FRHc-so8YV7qxgjjiC3-224" value="" style="shape=table;startSize=0;container=1;collapsible=0;childLayout=tableLayout;fontSize=16;" parent="2FRHc-so8YV7qxgjjiC3-171" vertex="1">
          <mxGeometry x="66.66666666666667" y="66.66666666666667" width="66.66666666666667" height="66.66666666666667" as="geometry" />
        </mxCell>
        <mxCell id="2FRHc-so8YV7qxgjjiC3-225" value="" style="shape=tableRow;horizontal=0;startSize=0;swimlaneHead=0;swimlaneBody=0;strokeColor=inherit;top=0;left=0;bottom=0;right=0;collapsible=0;dropTarget=0;fillColor=none;points=[[0,0.5],[1,0.5]];portConstraint=eastwest;fontSize=16;" parent="2FRHc-so8YV7qxgjjiC3-224" vertex="1">
          <mxGeometry width="66.66666666666667" height="23" as="geometry" />
        </mxCell>
        <mxCell id="2FRHc-so8YV7qxgjjiC3-226" value="" style="shape=partialRectangle;html=1;whiteSpace=wrap;connectable=0;strokeColor=inherit;overflow=hidden;fillColor=none;top=0;left=0;bottom=0;right=0;pointerEvents=1;fontSize=16;" parent="2FRHc-so8YV7qxgjjiC3-225" vertex="1">
          <mxGeometry width="23" height="23" as="geometry">
            <mxRectangle width="23" height="23" as="alternateBounds" />
          </mxGeometry>
        </mxCell>
        <mxCell id="2FRHc-so8YV7qxgjjiC3-227" value="" style="shape=partialRectangle;html=1;whiteSpace=wrap;connectable=0;strokeColor=inherit;overflow=hidden;fillColor=none;top=0;left=0;bottom=0;right=0;pointerEvents=1;fontSize=16;" parent="2FRHc-so8YV7qxgjjiC3-225" vertex="1">
          <mxGeometry x="23" width="20" height="23" as="geometry">
            <mxRectangle width="20" height="23" as="alternateBounds" />
          </mxGeometry>
        </mxCell>
        <mxCell id="2FRHc-so8YV7qxgjjiC3-228" value="" style="shape=partialRectangle;html=1;whiteSpace=wrap;connectable=0;strokeColor=inherit;overflow=hidden;fillColor=none;top=0;left=0;bottom=0;right=0;pointerEvents=1;fontSize=16;" parent="2FRHc-so8YV7qxgjjiC3-225" vertex="1">
          <mxGeometry x="43" width="24" height="23" as="geometry">
            <mxRectangle width="24" height="23" as="alternateBounds" />
          </mxGeometry>
        </mxCell>
        <mxCell id="2FRHc-so8YV7qxgjjiC3-229" value="" style="shape=tableRow;horizontal=0;startSize=0;swimlaneHead=0;swimlaneBody=0;strokeColor=inherit;top=0;left=0;bottom=0;right=0;collapsible=0;dropTarget=0;fillColor=none;points=[[0,0.5],[1,0.5]];portConstraint=eastwest;fontSize=16;" parent="2FRHc-so8YV7qxgjjiC3-224" vertex="1">
          <mxGeometry y="23" width="66.66666666666667" height="22" as="geometry" />
        </mxCell>
        <mxCell id="2FRHc-so8YV7qxgjjiC3-230" value="" style="shape=partialRectangle;html=1;whiteSpace=wrap;connectable=0;strokeColor=inherit;overflow=hidden;fillColor=none;top=0;left=0;bottom=0;right=0;pointerEvents=1;fontSize=16;" parent="2FRHc-so8YV7qxgjjiC3-229" vertex="1">
          <mxGeometry width="23" height="22" as="geometry">
            <mxRectangle width="23" height="22" as="alternateBounds" />
          </mxGeometry>
        </mxCell>
        <mxCell id="2FRHc-so8YV7qxgjjiC3-231" value="" style="shape=partialRectangle;html=1;whiteSpace=wrap;connectable=0;strokeColor=inherit;overflow=hidden;fillColor=none;top=0;left=0;bottom=0;right=0;pointerEvents=1;fontSize=16;" parent="2FRHc-so8YV7qxgjjiC3-229" vertex="1">
          <mxGeometry x="23" width="20" height="22" as="geometry">
            <mxRectangle width="20" height="22" as="alternateBounds" />
          </mxGeometry>
        </mxCell>
        <mxCell id="2FRHc-so8YV7qxgjjiC3-232" value="" style="shape=partialRectangle;html=1;whiteSpace=wrap;connectable=0;strokeColor=inherit;overflow=hidden;fillColor=none;top=0;left=0;bottom=0;right=0;pointerEvents=1;fontSize=16;" parent="2FRHc-so8YV7qxgjjiC3-229" vertex="1">
          <mxGeometry x="43" width="24" height="22" as="geometry">
            <mxRectangle width="24" height="22" as="alternateBounds" />
          </mxGeometry>
        </mxCell>
        <mxCell id="2FRHc-so8YV7qxgjjiC3-233" value="" style="shape=tableRow;horizontal=0;startSize=0;swimlaneHead=0;swimlaneBody=0;strokeColor=inherit;top=0;left=0;bottom=0;right=0;collapsible=0;dropTarget=0;fillColor=none;points=[[0,0.5],[1,0.5]];portConstraint=eastwest;fontSize=16;" parent="2FRHc-so8YV7qxgjjiC3-224" vertex="1">
          <mxGeometry y="45" width="66.66666666666667" height="22" as="geometry" />
        </mxCell>
        <mxCell id="2FRHc-so8YV7qxgjjiC3-234" value="" style="shape=partialRectangle;html=1;whiteSpace=wrap;connectable=0;strokeColor=inherit;overflow=hidden;fillColor=none;top=0;left=0;bottom=0;right=0;pointerEvents=1;fontSize=16;" parent="2FRHc-so8YV7qxgjjiC3-233" vertex="1">
          <mxGeometry width="23" height="22" as="geometry">
            <mxRectangle width="23" height="22" as="alternateBounds" />
          </mxGeometry>
        </mxCell>
        <mxCell id="2FRHc-so8YV7qxgjjiC3-235" value="" style="shape=partialRectangle;html=1;whiteSpace=wrap;connectable=0;strokeColor=inherit;overflow=hidden;fillColor=none;top=0;left=0;bottom=0;right=0;pointerEvents=1;fontSize=16;" parent="2FRHc-so8YV7qxgjjiC3-233" vertex="1">
          <mxGeometry x="23" width="20" height="22" as="geometry">
            <mxRectangle width="20" height="22" as="alternateBounds" />
          </mxGeometry>
        </mxCell>
        <mxCell id="2FRHc-so8YV7qxgjjiC3-236" value="" style="shape=partialRectangle;html=1;whiteSpace=wrap;connectable=0;strokeColor=inherit;overflow=hidden;fillColor=none;top=0;left=0;bottom=0;right=0;pointerEvents=1;fontSize=16;" parent="2FRHc-so8YV7qxgjjiC3-233" vertex="1">
          <mxGeometry x="43" width="24" height="22" as="geometry">
            <mxRectangle width="24" height="22" as="alternateBounds" />
          </mxGeometry>
        </mxCell>
        <mxCell id="2FRHc-so8YV7qxgjjiC3-237" value="" style="shape=table;startSize=0;container=1;collapsible=0;childLayout=tableLayout;fontSize=16;" parent="2FRHc-so8YV7qxgjjiC3-171" vertex="1">
          <mxGeometry x="133.33333333333334" y="66.66666666666667" width="66.66666666666667" height="66.66666666666667" as="geometry" />
        </mxCell>
        <mxCell id="2FRHc-so8YV7qxgjjiC3-238" value="" style="shape=tableRow;horizontal=0;startSize=0;swimlaneHead=0;swimlaneBody=0;strokeColor=inherit;top=0;left=0;bottom=0;right=0;collapsible=0;dropTarget=0;fillColor=none;points=[[0,0.5],[1,0.5]];portConstraint=eastwest;fontSize=16;" parent="2FRHc-so8YV7qxgjjiC3-237" vertex="1">
          <mxGeometry width="66.66666666666667" height="23" as="geometry" />
        </mxCell>
        <mxCell id="2FRHc-so8YV7qxgjjiC3-239" value="" style="shape=partialRectangle;html=1;whiteSpace=wrap;connectable=0;strokeColor=inherit;overflow=hidden;fillColor=none;top=0;left=0;bottom=0;right=0;pointerEvents=1;fontSize=16;" parent="2FRHc-so8YV7qxgjjiC3-238" vertex="1">
          <mxGeometry width="23" height="23" as="geometry">
            <mxRectangle width="23" height="23" as="alternateBounds" />
          </mxGeometry>
        </mxCell>
        <mxCell id="2FRHc-so8YV7qxgjjiC3-240" value="" style="shape=partialRectangle;html=1;whiteSpace=wrap;connectable=0;strokeColor=inherit;overflow=hidden;fillColor=none;top=0;left=0;bottom=0;right=0;pointerEvents=1;fontSize=16;" parent="2FRHc-so8YV7qxgjjiC3-238" vertex="1">
          <mxGeometry x="23" width="20" height="23" as="geometry">
            <mxRectangle width="20" height="23" as="alternateBounds" />
          </mxGeometry>
        </mxCell>
        <mxCell id="2FRHc-so8YV7qxgjjiC3-241" value="" style="shape=partialRectangle;html=1;whiteSpace=wrap;connectable=0;strokeColor=inherit;overflow=hidden;fillColor=none;top=0;left=0;bottom=0;right=0;pointerEvents=1;fontSize=16;" parent="2FRHc-so8YV7qxgjjiC3-238" vertex="1">
          <mxGeometry x="43" width="24" height="23" as="geometry">
            <mxRectangle width="24" height="23" as="alternateBounds" />
          </mxGeometry>
        </mxCell>
        <mxCell id="2FRHc-so8YV7qxgjjiC3-242" value="" style="shape=tableRow;horizontal=0;startSize=0;swimlaneHead=0;swimlaneBody=0;strokeColor=inherit;top=0;left=0;bottom=0;right=0;collapsible=0;dropTarget=0;fillColor=none;points=[[0,0.5],[1,0.5]];portConstraint=eastwest;fontSize=16;" parent="2FRHc-so8YV7qxgjjiC3-237" vertex="1">
          <mxGeometry y="23" width="66.66666666666667" height="22" as="geometry" />
        </mxCell>
        <mxCell id="2FRHc-so8YV7qxgjjiC3-243" value="" style="shape=partialRectangle;html=1;whiteSpace=wrap;connectable=0;strokeColor=inherit;overflow=hidden;fillColor=none;top=0;left=0;bottom=0;right=0;pointerEvents=1;fontSize=16;" parent="2FRHc-so8YV7qxgjjiC3-242" vertex="1">
          <mxGeometry width="23" height="22" as="geometry">
            <mxRectangle width="23" height="22" as="alternateBounds" />
          </mxGeometry>
        </mxCell>
        <mxCell id="2FRHc-so8YV7qxgjjiC3-244" value="" style="shape=partialRectangle;html=1;whiteSpace=wrap;connectable=0;strokeColor=inherit;overflow=hidden;fillColor=none;top=0;left=0;bottom=0;right=0;pointerEvents=1;fontSize=16;" parent="2FRHc-so8YV7qxgjjiC3-242" vertex="1">
          <mxGeometry x="23" width="20" height="22" as="geometry">
            <mxRectangle width="20" height="22" as="alternateBounds" />
          </mxGeometry>
        </mxCell>
        <mxCell id="2FRHc-so8YV7qxgjjiC3-245" value="" style="shape=partialRectangle;html=1;whiteSpace=wrap;connectable=0;strokeColor=inherit;overflow=hidden;fillColor=none;top=0;left=0;bottom=0;right=0;pointerEvents=1;fontSize=16;" parent="2FRHc-so8YV7qxgjjiC3-242" vertex="1">
          <mxGeometry x="43" width="24" height="22" as="geometry">
            <mxRectangle width="24" height="22" as="alternateBounds" />
          </mxGeometry>
        </mxCell>
        <mxCell id="2FRHc-so8YV7qxgjjiC3-246" value="" style="shape=tableRow;horizontal=0;startSize=0;swimlaneHead=0;swimlaneBody=0;strokeColor=inherit;top=0;left=0;bottom=0;right=0;collapsible=0;dropTarget=0;fillColor=none;points=[[0,0.5],[1,0.5]];portConstraint=eastwest;fontSize=16;" parent="2FRHc-so8YV7qxgjjiC3-237" vertex="1">
          <mxGeometry y="45" width="66.66666666666667" height="22" as="geometry" />
        </mxCell>
        <mxCell id="2FRHc-so8YV7qxgjjiC3-247" value="" style="shape=partialRectangle;html=1;whiteSpace=wrap;connectable=0;strokeColor=inherit;overflow=hidden;fillColor=none;top=0;left=0;bottom=0;right=0;pointerEvents=1;fontSize=16;" parent="2FRHc-so8YV7qxgjjiC3-246" vertex="1">
          <mxGeometry width="23" height="22" as="geometry">
            <mxRectangle width="23" height="22" as="alternateBounds" />
          </mxGeometry>
        </mxCell>
        <mxCell id="2FRHc-so8YV7qxgjjiC3-248" value="" style="shape=partialRectangle;html=1;whiteSpace=wrap;connectable=0;strokeColor=inherit;overflow=hidden;fillColor=none;top=0;left=0;bottom=0;right=0;pointerEvents=1;fontSize=16;" parent="2FRHc-so8YV7qxgjjiC3-246" vertex="1">
          <mxGeometry x="23" width="20" height="22" as="geometry">
            <mxRectangle width="20" height="22" as="alternateBounds" />
          </mxGeometry>
        </mxCell>
        <mxCell id="2FRHc-so8YV7qxgjjiC3-249" value="" style="shape=partialRectangle;html=1;whiteSpace=wrap;connectable=0;strokeColor=inherit;overflow=hidden;fillColor=none;top=0;left=0;bottom=0;right=0;pointerEvents=1;fontSize=16;" parent="2FRHc-so8YV7qxgjjiC3-246" vertex="1">
          <mxGeometry x="43" width="24" height="22" as="geometry">
            <mxRectangle width="24" height="22" as="alternateBounds" />
          </mxGeometry>
        </mxCell>
        <mxCell id="2FRHc-so8YV7qxgjjiC3-250" value="" style="shape=table;startSize=0;container=1;collapsible=0;childLayout=tableLayout;fontSize=16;" parent="2FRHc-so8YV7qxgjjiC3-171" vertex="1">
          <mxGeometry y="133.33333333333334" width="66.66666666666667" height="66.66666666666667" as="geometry" />
        </mxCell>
        <mxCell id="2FRHc-so8YV7qxgjjiC3-251" value="" style="shape=tableRow;horizontal=0;startSize=0;swimlaneHead=0;swimlaneBody=0;strokeColor=inherit;top=0;left=0;bottom=0;right=0;collapsible=0;dropTarget=0;fillColor=none;points=[[0,0.5],[1,0.5]];portConstraint=eastwest;fontSize=16;" parent="2FRHc-so8YV7qxgjjiC3-250" vertex="1">
          <mxGeometry width="66.66666666666667" height="23" as="geometry" />
        </mxCell>
        <mxCell id="2FRHc-so8YV7qxgjjiC3-252" value="" style="shape=partialRectangle;html=1;whiteSpace=wrap;connectable=0;strokeColor=inherit;overflow=hidden;fillColor=none;top=0;left=0;bottom=0;right=0;pointerEvents=1;fontSize=16;" parent="2FRHc-so8YV7qxgjjiC3-251" vertex="1">
          <mxGeometry width="23" height="23" as="geometry">
            <mxRectangle width="23" height="23" as="alternateBounds" />
          </mxGeometry>
        </mxCell>
        <mxCell id="2FRHc-so8YV7qxgjjiC3-253" value="" style="shape=partialRectangle;html=1;whiteSpace=wrap;connectable=0;strokeColor=inherit;overflow=hidden;fillColor=none;top=0;left=0;bottom=0;right=0;pointerEvents=1;fontSize=16;" parent="2FRHc-so8YV7qxgjjiC3-251" vertex="1">
          <mxGeometry x="23" width="20" height="23" as="geometry">
            <mxRectangle width="20" height="23" as="alternateBounds" />
          </mxGeometry>
        </mxCell>
        <mxCell id="2FRHc-so8YV7qxgjjiC3-254" value="" style="shape=partialRectangle;html=1;whiteSpace=wrap;connectable=0;strokeColor=inherit;overflow=hidden;fillColor=none;top=0;left=0;bottom=0;right=0;pointerEvents=1;fontSize=16;" parent="2FRHc-so8YV7qxgjjiC3-251" vertex="1">
          <mxGeometry x="43" width="24" height="23" as="geometry">
            <mxRectangle width="24" height="23" as="alternateBounds" />
          </mxGeometry>
        </mxCell>
        <mxCell id="2FRHc-so8YV7qxgjjiC3-255" value="" style="shape=tableRow;horizontal=0;startSize=0;swimlaneHead=0;swimlaneBody=0;strokeColor=inherit;top=0;left=0;bottom=0;right=0;collapsible=0;dropTarget=0;fillColor=none;points=[[0,0.5],[1,0.5]];portConstraint=eastwest;fontSize=16;" parent="2FRHc-so8YV7qxgjjiC3-250" vertex="1">
          <mxGeometry y="23" width="66.66666666666667" height="22" as="geometry" />
        </mxCell>
        <mxCell id="2FRHc-so8YV7qxgjjiC3-256" value="" style="shape=partialRectangle;html=1;whiteSpace=wrap;connectable=0;strokeColor=inherit;overflow=hidden;fillColor=none;top=0;left=0;bottom=0;right=0;pointerEvents=1;fontSize=16;" parent="2FRHc-so8YV7qxgjjiC3-255" vertex="1">
          <mxGeometry width="23" height="22" as="geometry">
            <mxRectangle width="23" height="22" as="alternateBounds" />
          </mxGeometry>
        </mxCell>
        <mxCell id="2FRHc-so8YV7qxgjjiC3-257" value="" style="shape=partialRectangle;html=1;whiteSpace=wrap;connectable=0;strokeColor=inherit;overflow=hidden;fillColor=none;top=0;left=0;bottom=0;right=0;pointerEvents=1;fontSize=16;" parent="2FRHc-so8YV7qxgjjiC3-255" vertex="1">
          <mxGeometry x="23" width="20" height="22" as="geometry">
            <mxRectangle width="20" height="22" as="alternateBounds" />
          </mxGeometry>
        </mxCell>
        <mxCell id="2FRHc-so8YV7qxgjjiC3-258" value="" style="shape=partialRectangle;html=1;whiteSpace=wrap;connectable=0;strokeColor=inherit;overflow=hidden;fillColor=none;top=0;left=0;bottom=0;right=0;pointerEvents=1;fontSize=16;" parent="2FRHc-so8YV7qxgjjiC3-255" vertex="1">
          <mxGeometry x="43" width="24" height="22" as="geometry">
            <mxRectangle width="24" height="22" as="alternateBounds" />
          </mxGeometry>
        </mxCell>
        <mxCell id="2FRHc-so8YV7qxgjjiC3-259" value="" style="shape=tableRow;horizontal=0;startSize=0;swimlaneHead=0;swimlaneBody=0;strokeColor=inherit;top=0;left=0;bottom=0;right=0;collapsible=0;dropTarget=0;fillColor=none;points=[[0,0.5],[1,0.5]];portConstraint=eastwest;fontSize=16;" parent="2FRHc-so8YV7qxgjjiC3-250" vertex="1">
          <mxGeometry y="45" width="66.66666666666667" height="22" as="geometry" />
        </mxCell>
        <mxCell id="2FRHc-so8YV7qxgjjiC3-260" value="" style="shape=partialRectangle;html=1;whiteSpace=wrap;connectable=0;strokeColor=inherit;overflow=hidden;fillColor=none;top=0;left=0;bottom=0;right=0;pointerEvents=1;fontSize=16;" parent="2FRHc-so8YV7qxgjjiC3-259" vertex="1">
          <mxGeometry width="23" height="22" as="geometry">
            <mxRectangle width="23" height="22" as="alternateBounds" />
          </mxGeometry>
        </mxCell>
        <mxCell id="2FRHc-so8YV7qxgjjiC3-261" value="" style="shape=partialRectangle;html=1;whiteSpace=wrap;connectable=0;strokeColor=inherit;overflow=hidden;fillColor=none;top=0;left=0;bottom=0;right=0;pointerEvents=1;fontSize=16;" parent="2FRHc-so8YV7qxgjjiC3-259" vertex="1">
          <mxGeometry x="23" width="20" height="22" as="geometry">
            <mxRectangle width="20" height="22" as="alternateBounds" />
          </mxGeometry>
        </mxCell>
        <mxCell id="2FRHc-so8YV7qxgjjiC3-262" value="" style="shape=partialRectangle;html=1;whiteSpace=wrap;connectable=0;strokeColor=inherit;overflow=hidden;fillColor=none;top=0;left=0;bottom=0;right=0;pointerEvents=1;fontSize=16;" parent="2FRHc-so8YV7qxgjjiC3-259" vertex="1">
          <mxGeometry x="43" width="24" height="22" as="geometry">
            <mxRectangle width="24" height="22" as="alternateBounds" />
          </mxGeometry>
        </mxCell>
        <mxCell id="2FRHc-so8YV7qxgjjiC3-263" value="" style="shape=table;startSize=0;container=1;collapsible=0;childLayout=tableLayout;fontSize=16;" parent="2FRHc-so8YV7qxgjjiC3-171" vertex="1">
          <mxGeometry x="66.66666666666667" y="133.33333333333334" width="66.66666666666667" height="66.66666666666667" as="geometry" />
        </mxCell>
        <mxCell id="2FRHc-so8YV7qxgjjiC3-264" value="" style="shape=tableRow;horizontal=0;startSize=0;swimlaneHead=0;swimlaneBody=0;strokeColor=inherit;top=0;left=0;bottom=0;right=0;collapsible=0;dropTarget=0;fillColor=none;points=[[0,0.5],[1,0.5]];portConstraint=eastwest;fontSize=16;" parent="2FRHc-so8YV7qxgjjiC3-263" vertex="1">
          <mxGeometry width="66.66666666666667" height="23" as="geometry" />
        </mxCell>
        <mxCell id="2FRHc-so8YV7qxgjjiC3-265" value="" style="shape=partialRectangle;html=1;whiteSpace=wrap;connectable=0;strokeColor=inherit;overflow=hidden;fillColor=none;top=0;left=0;bottom=0;right=0;pointerEvents=1;fontSize=16;" parent="2FRHc-so8YV7qxgjjiC3-264" vertex="1">
          <mxGeometry width="23" height="23" as="geometry">
            <mxRectangle width="23" height="23" as="alternateBounds" />
          </mxGeometry>
        </mxCell>
        <mxCell id="2FRHc-so8YV7qxgjjiC3-266" value="" style="shape=partialRectangle;html=1;whiteSpace=wrap;connectable=0;strokeColor=inherit;overflow=hidden;fillColor=none;top=0;left=0;bottom=0;right=0;pointerEvents=1;fontSize=16;" parent="2FRHc-so8YV7qxgjjiC3-264" vertex="1">
          <mxGeometry x="23" width="20" height="23" as="geometry">
            <mxRectangle width="20" height="23" as="alternateBounds" />
          </mxGeometry>
        </mxCell>
        <mxCell id="2FRHc-so8YV7qxgjjiC3-267" value="" style="shape=partialRectangle;html=1;whiteSpace=wrap;connectable=0;strokeColor=inherit;overflow=hidden;fillColor=none;top=0;left=0;bottom=0;right=0;pointerEvents=1;fontSize=16;" parent="2FRHc-so8YV7qxgjjiC3-264" vertex="1">
          <mxGeometry x="43" width="24" height="23" as="geometry">
            <mxRectangle width="24" height="23" as="alternateBounds" />
          </mxGeometry>
        </mxCell>
        <mxCell id="2FRHc-so8YV7qxgjjiC3-268" value="" style="shape=tableRow;horizontal=0;startSize=0;swimlaneHead=0;swimlaneBody=0;strokeColor=inherit;top=0;left=0;bottom=0;right=0;collapsible=0;dropTarget=0;fillColor=none;points=[[0,0.5],[1,0.5]];portConstraint=eastwest;fontSize=16;" parent="2FRHc-so8YV7qxgjjiC3-263" vertex="1">
          <mxGeometry y="23" width="66.66666666666667" height="22" as="geometry" />
        </mxCell>
        <mxCell id="2FRHc-so8YV7qxgjjiC3-269" value="" style="shape=partialRectangle;html=1;whiteSpace=wrap;connectable=0;strokeColor=inherit;overflow=hidden;fillColor=none;top=0;left=0;bottom=0;right=0;pointerEvents=1;fontSize=16;" parent="2FRHc-so8YV7qxgjjiC3-268" vertex="1">
          <mxGeometry width="23" height="22" as="geometry">
            <mxRectangle width="23" height="22" as="alternateBounds" />
          </mxGeometry>
        </mxCell>
        <mxCell id="2FRHc-so8YV7qxgjjiC3-270" value="" style="shape=partialRectangle;html=1;whiteSpace=wrap;connectable=0;strokeColor=inherit;overflow=hidden;fillColor=none;top=0;left=0;bottom=0;right=0;pointerEvents=1;fontSize=16;" parent="2FRHc-so8YV7qxgjjiC3-268" vertex="1">
          <mxGeometry x="23" width="20" height="22" as="geometry">
            <mxRectangle width="20" height="22" as="alternateBounds" />
          </mxGeometry>
        </mxCell>
        <mxCell id="2FRHc-so8YV7qxgjjiC3-271" value="" style="shape=partialRectangle;html=1;whiteSpace=wrap;connectable=0;strokeColor=inherit;overflow=hidden;fillColor=none;top=0;left=0;bottom=0;right=0;pointerEvents=1;fontSize=16;" parent="2FRHc-so8YV7qxgjjiC3-268" vertex="1">
          <mxGeometry x="43" width="24" height="22" as="geometry">
            <mxRectangle width="24" height="22" as="alternateBounds" />
          </mxGeometry>
        </mxCell>
        <mxCell id="2FRHc-so8YV7qxgjjiC3-272" value="" style="shape=tableRow;horizontal=0;startSize=0;swimlaneHead=0;swimlaneBody=0;strokeColor=inherit;top=0;left=0;bottom=0;right=0;collapsible=0;dropTarget=0;fillColor=none;points=[[0,0.5],[1,0.5]];portConstraint=eastwest;fontSize=16;" parent="2FRHc-so8YV7qxgjjiC3-263" vertex="1">
          <mxGeometry y="45" width="66.66666666666667" height="22" as="geometry" />
        </mxCell>
        <mxCell id="2FRHc-so8YV7qxgjjiC3-273" value="" style="shape=partialRectangle;html=1;whiteSpace=wrap;connectable=0;strokeColor=inherit;overflow=hidden;fillColor=none;top=0;left=0;bottom=0;right=0;pointerEvents=1;fontSize=16;" parent="2FRHc-so8YV7qxgjjiC3-272" vertex="1">
          <mxGeometry width="23" height="22" as="geometry">
            <mxRectangle width="23" height="22" as="alternateBounds" />
          </mxGeometry>
        </mxCell>
        <mxCell id="2FRHc-so8YV7qxgjjiC3-274" value="" style="shape=partialRectangle;html=1;whiteSpace=wrap;connectable=0;strokeColor=inherit;overflow=hidden;fillColor=none;top=0;left=0;bottom=0;right=0;pointerEvents=1;fontSize=16;" parent="2FRHc-so8YV7qxgjjiC3-272" vertex="1">
          <mxGeometry x="23" width="20" height="22" as="geometry">
            <mxRectangle width="20" height="22" as="alternateBounds" />
          </mxGeometry>
        </mxCell>
        <mxCell id="2FRHc-so8YV7qxgjjiC3-275" value="" style="shape=partialRectangle;html=1;whiteSpace=wrap;connectable=0;strokeColor=inherit;overflow=hidden;fillColor=none;top=0;left=0;bottom=0;right=0;pointerEvents=1;fontSize=16;" parent="2FRHc-so8YV7qxgjjiC3-272" vertex="1">
          <mxGeometry x="43" width="24" height="22" as="geometry">
            <mxRectangle width="24" height="22" as="alternateBounds" />
          </mxGeometry>
        </mxCell>
        <mxCell id="2FRHc-so8YV7qxgjjiC3-276" value="" style="shape=table;startSize=0;container=1;collapsible=0;childLayout=tableLayout;fontSize=16;" parent="2FRHc-so8YV7qxgjjiC3-171" vertex="1">
          <mxGeometry x="133.33333333333334" y="133.33333333333334" width="66.66666666666667" height="66.66666666666667" as="geometry" />
        </mxCell>
        <mxCell id="2FRHc-so8YV7qxgjjiC3-277" value="" style="shape=tableRow;horizontal=0;startSize=0;swimlaneHead=0;swimlaneBody=0;strokeColor=inherit;top=0;left=0;bottom=0;right=0;collapsible=0;dropTarget=0;fillColor=none;points=[[0,0.5],[1,0.5]];portConstraint=eastwest;fontSize=16;" parent="2FRHc-so8YV7qxgjjiC3-276" vertex="1">
          <mxGeometry width="66.66666666666667" height="23" as="geometry" />
        </mxCell>
        <mxCell id="2FRHc-so8YV7qxgjjiC3-278" value="" style="shape=partialRectangle;html=1;whiteSpace=wrap;connectable=0;strokeColor=inherit;overflow=hidden;fillColor=none;top=0;left=0;bottom=0;right=0;pointerEvents=1;fontSize=16;" parent="2FRHc-so8YV7qxgjjiC3-277" vertex="1">
          <mxGeometry width="23" height="23" as="geometry">
            <mxRectangle width="23" height="23" as="alternateBounds" />
          </mxGeometry>
        </mxCell>
        <mxCell id="2FRHc-so8YV7qxgjjiC3-279" value="" style="shape=partialRectangle;html=1;whiteSpace=wrap;connectable=0;strokeColor=inherit;overflow=hidden;fillColor=none;top=0;left=0;bottom=0;right=0;pointerEvents=1;fontSize=16;" parent="2FRHc-so8YV7qxgjjiC3-277" vertex="1">
          <mxGeometry x="23" width="20" height="23" as="geometry">
            <mxRectangle width="20" height="23" as="alternateBounds" />
          </mxGeometry>
        </mxCell>
        <mxCell id="2FRHc-so8YV7qxgjjiC3-280" value="" style="shape=partialRectangle;html=1;whiteSpace=wrap;connectable=0;strokeColor=inherit;overflow=hidden;fillColor=none;top=0;left=0;bottom=0;right=0;pointerEvents=1;fontSize=16;" parent="2FRHc-so8YV7qxgjjiC3-277" vertex="1">
          <mxGeometry x="43" width="24" height="23" as="geometry">
            <mxRectangle width="24" height="23" as="alternateBounds" />
          </mxGeometry>
        </mxCell>
        <mxCell id="2FRHc-so8YV7qxgjjiC3-281" value="" style="shape=tableRow;horizontal=0;startSize=0;swimlaneHead=0;swimlaneBody=0;strokeColor=inherit;top=0;left=0;bottom=0;right=0;collapsible=0;dropTarget=0;fillColor=none;points=[[0,0.5],[1,0.5]];portConstraint=eastwest;fontSize=16;" parent="2FRHc-so8YV7qxgjjiC3-276" vertex="1">
          <mxGeometry y="23" width="66.66666666666667" height="22" as="geometry" />
        </mxCell>
        <mxCell id="2FRHc-so8YV7qxgjjiC3-282" value="" style="shape=partialRectangle;html=1;whiteSpace=wrap;connectable=0;strokeColor=inherit;overflow=hidden;fillColor=none;top=0;left=0;bottom=0;right=0;pointerEvents=1;fontSize=16;" parent="2FRHc-so8YV7qxgjjiC3-281" vertex="1">
          <mxGeometry width="23" height="22" as="geometry">
            <mxRectangle width="23" height="22" as="alternateBounds" />
          </mxGeometry>
        </mxCell>
        <mxCell id="2FRHc-so8YV7qxgjjiC3-283" value="" style="shape=partialRectangle;html=1;whiteSpace=wrap;connectable=0;strokeColor=inherit;overflow=hidden;fillColor=none;top=0;left=0;bottom=0;right=0;pointerEvents=1;fontSize=16;" parent="2FRHc-so8YV7qxgjjiC3-281" vertex="1">
          <mxGeometry x="23" width="20" height="22" as="geometry">
            <mxRectangle width="20" height="22" as="alternateBounds" />
          </mxGeometry>
        </mxCell>
        <mxCell id="2FRHc-so8YV7qxgjjiC3-284" value="" style="shape=partialRectangle;html=1;whiteSpace=wrap;connectable=0;strokeColor=inherit;overflow=hidden;fillColor=none;top=0;left=0;bottom=0;right=0;pointerEvents=1;fontSize=16;" parent="2FRHc-so8YV7qxgjjiC3-281" vertex="1">
          <mxGeometry x="43" width="24" height="22" as="geometry">
            <mxRectangle width="24" height="22" as="alternateBounds" />
          </mxGeometry>
        </mxCell>
        <mxCell id="2FRHc-so8YV7qxgjjiC3-285" value="" style="shape=tableRow;horizontal=0;startSize=0;swimlaneHead=0;swimlaneBody=0;strokeColor=inherit;top=0;left=0;bottom=0;right=0;collapsible=0;dropTarget=0;fillColor=none;points=[[0,0.5],[1,0.5]];portConstraint=eastwest;fontSize=16;" parent="2FRHc-so8YV7qxgjjiC3-276" vertex="1">
          <mxGeometry y="45" width="66.66666666666667" height="22" as="geometry" />
        </mxCell>
        <mxCell id="2FRHc-so8YV7qxgjjiC3-286" value="" style="shape=partialRectangle;html=1;whiteSpace=wrap;connectable=0;strokeColor=inherit;overflow=hidden;fillColor=none;top=0;left=0;bottom=0;right=0;pointerEvents=1;fontSize=16;" parent="2FRHc-so8YV7qxgjjiC3-285" vertex="1">
          <mxGeometry width="23" height="22" as="geometry">
            <mxRectangle width="23" height="22" as="alternateBounds" />
          </mxGeometry>
        </mxCell>
        <mxCell id="2FRHc-so8YV7qxgjjiC3-287" value="" style="shape=partialRectangle;html=1;whiteSpace=wrap;connectable=0;strokeColor=inherit;overflow=hidden;fillColor=none;top=0;left=0;bottom=0;right=0;pointerEvents=1;fontSize=16;" parent="2FRHc-so8YV7qxgjjiC3-285" vertex="1">
          <mxGeometry x="23" width="20" height="22" as="geometry">
            <mxRectangle width="20" height="22" as="alternateBounds" />
          </mxGeometry>
        </mxCell>
        <mxCell id="2FRHc-so8YV7qxgjjiC3-288" value="" style="shape=partialRectangle;html=1;whiteSpace=wrap;connectable=0;strokeColor=inherit;overflow=hidden;fillColor=none;top=0;left=0;bottom=0;right=0;pointerEvents=1;fontSize=16;" parent="2FRHc-so8YV7qxgjjiC3-285" vertex="1">
          <mxGeometry x="43" width="24" height="22" as="geometry">
            <mxRectangle width="24" height="22" as="alternateBounds" />
          </mxGeometry>
        </mxCell>
        <mxCell id="2FRHc-so8YV7qxgjjiC3-306" style="edgeStyle=orthogonalEdgeStyle;rounded=0;orthogonalLoop=1;jettySize=auto;html=1;entryX=0.544;entryY=-0.028;entryDx=0;entryDy=0;entryPerimeter=0;" parent="1" source="2FRHc-so8YV7qxgjjiC3-140" target="2FRHc-so8YV7qxgjjiC3-186" edge="1">
          <mxGeometry relative="1" as="geometry">
            <Array as="points">
              <mxPoint x="570" y="160" />
              <mxPoint x="570" y="80" />
              <mxPoint x="713" y="80" />
            </Array>
          </mxGeometry>
        </mxCell>
        <mxCell id="2FRHc-so8YV7qxgjjiC3-307" value="a cell moves per thread" style="text;html=1;align=center;verticalAlign=middle;resizable=0;points=[];autosize=1;strokeColor=none;fillColor=none;" parent="1" vertex="1">
          <mxGeometry x="390" y="90" width="150" height="30" as="geometry" />
        </mxCell>
        <mxCell id="QEQtitZpCN8_V80LvbnB-1" value="Testare scrittura diretta in global rispetto a scrittura in shared e poi copia in global" style="text;html=1;align=center;verticalAlign=middle;whiteSpace=wrap;rounded=0;" parent="1" vertex="1">
          <mxGeometry x="45" y="390" width="510" height="30" as="geometry" />
        </mxCell>
        <UserObject label="https://developer.nvidia.com/blog/efficient-matrix-transpose-cuda-cc/&#xa;&#xa;Using a thread block with fewer threads than elements in a tile is &#xa;advantageous for the matrix transpose because each thread transposes &#xa;four matrix elements, so much of the index calculation cost is amortized&#xa; over these elements.&#xa;" link="https://developer.nvidia.com/blog/efficient-matrix-transpose-cuda-cc/" id="QEQtitZpCN8_V80LvbnB-2">
          <mxCell style="text;whiteSpace=wrap;" parent="1" vertex="1">
            <mxGeometry x="30" y="480" width="400" height="100" as="geometry" />
          </mxCell>
        </UserObject>
        <mxCell id="QEQtitZpCN8_V80LvbnB-121" value="" style="group" parent="1" vertex="1" connectable="0">
          <mxGeometry x="30" y="680" width="200" height="200" as="geometry" />
        </mxCell>
        <mxCell id="QEQtitZpCN8_V80LvbnB-122" value="" style="shape=table;startSize=0;container=1;collapsible=0;childLayout=tableLayout;fontSize=16;fillColor=#60a917;fontColor=#ffffff;strokeColor=#2D7600;" parent="QEQtitZpCN8_V80LvbnB-121" vertex="1">
          <mxGeometry width="66.66666666666667" height="66.66666666666667" as="geometry" />
        </mxCell>
        <mxCell id="QEQtitZpCN8_V80LvbnB-123" value="" style="shape=tableRow;horizontal=0;startSize=0;swimlaneHead=0;swimlaneBody=0;strokeColor=inherit;top=0;left=0;bottom=0;right=0;collapsible=0;dropTarget=0;fillColor=none;points=[[0,0.5],[1,0.5]];portConstraint=eastwest;fontSize=16;" parent="QEQtitZpCN8_V80LvbnB-122" vertex="1">
          <mxGeometry width="66.66666666666667" height="23" as="geometry" />
        </mxCell>
        <mxCell id="QEQtitZpCN8_V80LvbnB-124" value="0" style="shape=partialRectangle;html=1;whiteSpace=wrap;connectable=0;strokeColor=inherit;overflow=hidden;fillColor=none;top=0;left=0;bottom=0;right=0;pointerEvents=1;fontSize=16;" parent="QEQtitZpCN8_V80LvbnB-123" vertex="1">
          <mxGeometry width="23" height="23" as="geometry">
            <mxRectangle width="23" height="23" as="alternateBounds" />
          </mxGeometry>
        </mxCell>
        <mxCell id="QEQtitZpCN8_V80LvbnB-125" value="1" style="shape=partialRectangle;html=1;whiteSpace=wrap;connectable=0;strokeColor=inherit;overflow=hidden;fillColor=none;top=0;left=0;bottom=0;right=0;pointerEvents=1;fontSize=16;" parent="QEQtitZpCN8_V80LvbnB-123" vertex="1">
          <mxGeometry x="23" width="20" height="23" as="geometry">
            <mxRectangle width="20" height="23" as="alternateBounds" />
          </mxGeometry>
        </mxCell>
        <mxCell id="QEQtitZpCN8_V80LvbnB-126" value="2" style="shape=partialRectangle;html=1;whiteSpace=wrap;connectable=0;strokeColor=inherit;overflow=hidden;fillColor=none;top=0;left=0;bottom=0;right=0;pointerEvents=1;fontSize=16;" parent="QEQtitZpCN8_V80LvbnB-123" vertex="1">
          <mxGeometry x="43" width="24" height="23" as="geometry">
            <mxRectangle width="24" height="23" as="alternateBounds" />
          </mxGeometry>
        </mxCell>
        <mxCell id="QEQtitZpCN8_V80LvbnB-127" value="" style="shape=tableRow;horizontal=0;startSize=0;swimlaneHead=0;swimlaneBody=0;strokeColor=inherit;top=0;left=0;bottom=0;right=0;collapsible=0;dropTarget=0;fillColor=none;points=[[0,0.5],[1,0.5]];portConstraint=eastwest;fontSize=16;" parent="QEQtitZpCN8_V80LvbnB-122" vertex="1">
          <mxGeometry y="23" width="66.66666666666667" height="22" as="geometry" />
        </mxCell>
        <mxCell id="QEQtitZpCN8_V80LvbnB-128" value="1" style="shape=partialRectangle;html=1;whiteSpace=wrap;connectable=0;strokeColor=inherit;overflow=hidden;fillColor=none;top=0;left=0;bottom=0;right=0;pointerEvents=1;fontSize=16;" parent="QEQtitZpCN8_V80LvbnB-127" vertex="1">
          <mxGeometry width="23" height="22" as="geometry">
            <mxRectangle width="23" height="22" as="alternateBounds" />
          </mxGeometry>
        </mxCell>
        <mxCell id="QEQtitZpCN8_V80LvbnB-129" value="" style="shape=partialRectangle;html=1;whiteSpace=wrap;connectable=0;strokeColor=inherit;overflow=hidden;fillColor=none;top=0;left=0;bottom=0;right=0;pointerEvents=1;fontSize=16;" parent="QEQtitZpCN8_V80LvbnB-127" vertex="1">
          <mxGeometry x="23" width="20" height="22" as="geometry">
            <mxRectangle width="20" height="22" as="alternateBounds" />
          </mxGeometry>
        </mxCell>
        <mxCell id="QEQtitZpCN8_V80LvbnB-130" value="" style="shape=partialRectangle;html=1;whiteSpace=wrap;connectable=0;strokeColor=inherit;overflow=hidden;fillColor=none;top=0;left=0;bottom=0;right=0;pointerEvents=1;fontSize=16;" parent="QEQtitZpCN8_V80LvbnB-127" vertex="1">
          <mxGeometry x="43" width="24" height="22" as="geometry">
            <mxRectangle width="24" height="22" as="alternateBounds" />
          </mxGeometry>
        </mxCell>
        <mxCell id="QEQtitZpCN8_V80LvbnB-131" value="" style="shape=tableRow;horizontal=0;startSize=0;swimlaneHead=0;swimlaneBody=0;strokeColor=inherit;top=0;left=0;bottom=0;right=0;collapsible=0;dropTarget=0;fillColor=none;points=[[0,0.5],[1,0.5]];portConstraint=eastwest;fontSize=16;" parent="QEQtitZpCN8_V80LvbnB-122" vertex="1">
          <mxGeometry y="45" width="66.66666666666667" height="22" as="geometry" />
        </mxCell>
        <mxCell id="QEQtitZpCN8_V80LvbnB-132" value="2" style="shape=partialRectangle;html=1;whiteSpace=wrap;connectable=0;strokeColor=inherit;overflow=hidden;fillColor=none;top=0;left=0;bottom=0;right=0;pointerEvents=1;fontSize=16;" parent="QEQtitZpCN8_V80LvbnB-131" vertex="1">
          <mxGeometry width="23" height="22" as="geometry">
            <mxRectangle width="23" height="22" as="alternateBounds" />
          </mxGeometry>
        </mxCell>
        <mxCell id="QEQtitZpCN8_V80LvbnB-133" value="" style="shape=partialRectangle;html=1;whiteSpace=wrap;connectable=0;strokeColor=inherit;overflow=hidden;fillColor=none;top=0;left=0;bottom=0;right=0;pointerEvents=1;fontSize=16;" parent="QEQtitZpCN8_V80LvbnB-131" vertex="1">
          <mxGeometry x="23" width="20" height="22" as="geometry">
            <mxRectangle width="20" height="22" as="alternateBounds" />
          </mxGeometry>
        </mxCell>
        <mxCell id="QEQtitZpCN8_V80LvbnB-134" value="" style="shape=partialRectangle;html=1;whiteSpace=wrap;connectable=0;strokeColor=inherit;overflow=hidden;fillColor=none;top=0;left=0;bottom=0;right=0;pointerEvents=1;fontSize=16;" parent="QEQtitZpCN8_V80LvbnB-131" vertex="1">
          <mxGeometry x="43" width="24" height="22" as="geometry">
            <mxRectangle width="24" height="22" as="alternateBounds" />
          </mxGeometry>
        </mxCell>
        <mxCell id="QEQtitZpCN8_V80LvbnB-135" value="" style="shape=table;startSize=0;container=1;collapsible=0;childLayout=tableLayout;fontSize=16;" parent="QEQtitZpCN8_V80LvbnB-121" vertex="1">
          <mxGeometry x="66.66666666666667" width="66.66666666666667" height="66.66666666666667" as="geometry" />
        </mxCell>
        <mxCell id="QEQtitZpCN8_V80LvbnB-136" value="" style="shape=tableRow;horizontal=0;startSize=0;swimlaneHead=0;swimlaneBody=0;strokeColor=inherit;top=0;left=0;bottom=0;right=0;collapsible=0;dropTarget=0;fillColor=none;points=[[0,0.5],[1,0.5]];portConstraint=eastwest;fontSize=16;" parent="QEQtitZpCN8_V80LvbnB-135" vertex="1">
          <mxGeometry width="66.66666666666667" height="23" as="geometry" />
        </mxCell>
        <mxCell id="QEQtitZpCN8_V80LvbnB-137" value="3" style="shape=partialRectangle;html=1;whiteSpace=wrap;connectable=0;strokeColor=inherit;overflow=hidden;fillColor=none;top=0;left=0;bottom=0;right=0;pointerEvents=1;fontSize=16;" parent="QEQtitZpCN8_V80LvbnB-136" vertex="1">
          <mxGeometry width="23" height="23" as="geometry">
            <mxRectangle width="23" height="23" as="alternateBounds" />
          </mxGeometry>
        </mxCell>
        <mxCell id="QEQtitZpCN8_V80LvbnB-138" value="4" style="shape=partialRectangle;html=1;whiteSpace=wrap;connectable=0;strokeColor=inherit;overflow=hidden;fillColor=none;top=0;left=0;bottom=0;right=0;pointerEvents=1;fontSize=16;" parent="QEQtitZpCN8_V80LvbnB-136" vertex="1">
          <mxGeometry x="23" width="20" height="23" as="geometry">
            <mxRectangle width="20" height="23" as="alternateBounds" />
          </mxGeometry>
        </mxCell>
        <mxCell id="QEQtitZpCN8_V80LvbnB-139" value="5" style="shape=partialRectangle;html=1;whiteSpace=wrap;connectable=0;strokeColor=inherit;overflow=hidden;fillColor=none;top=0;left=0;bottom=0;right=0;pointerEvents=1;fontSize=16;" parent="QEQtitZpCN8_V80LvbnB-136" vertex="1">
          <mxGeometry x="43" width="24" height="23" as="geometry">
            <mxRectangle width="24" height="23" as="alternateBounds" />
          </mxGeometry>
        </mxCell>
        <mxCell id="QEQtitZpCN8_V80LvbnB-140" value="" style="shape=tableRow;horizontal=0;startSize=0;swimlaneHead=0;swimlaneBody=0;strokeColor=inherit;top=0;left=0;bottom=0;right=0;collapsible=0;dropTarget=0;fillColor=none;points=[[0,0.5],[1,0.5]];portConstraint=eastwest;fontSize=16;" parent="QEQtitZpCN8_V80LvbnB-135" vertex="1">
          <mxGeometry y="23" width="66.66666666666667" height="22" as="geometry" />
        </mxCell>
        <mxCell id="QEQtitZpCN8_V80LvbnB-141" value="" style="shape=partialRectangle;html=1;whiteSpace=wrap;connectable=0;overflow=hidden;top=0;left=0;bottom=0;right=0;pointerEvents=1;fontSize=16;" parent="QEQtitZpCN8_V80LvbnB-140" vertex="1">
          <mxGeometry width="23" height="22" as="geometry">
            <mxRectangle width="23" height="22" as="alternateBounds" />
          </mxGeometry>
        </mxCell>
        <mxCell id="QEQtitZpCN8_V80LvbnB-142" value="" style="shape=partialRectangle;html=1;whiteSpace=wrap;connectable=0;strokeColor=inherit;overflow=hidden;fillColor=none;top=0;left=0;bottom=0;right=0;pointerEvents=1;fontSize=16;" parent="QEQtitZpCN8_V80LvbnB-140" vertex="1">
          <mxGeometry x="23" width="20" height="22" as="geometry">
            <mxRectangle width="20" height="22" as="alternateBounds" />
          </mxGeometry>
        </mxCell>
        <mxCell id="QEQtitZpCN8_V80LvbnB-143" value="" style="shape=partialRectangle;html=1;whiteSpace=wrap;connectable=0;strokeColor=inherit;overflow=hidden;fillColor=none;top=0;left=0;bottom=0;right=0;pointerEvents=1;fontSize=16;" parent="QEQtitZpCN8_V80LvbnB-140" vertex="1">
          <mxGeometry x="43" width="24" height="22" as="geometry">
            <mxRectangle width="24" height="22" as="alternateBounds" />
          </mxGeometry>
        </mxCell>
        <mxCell id="QEQtitZpCN8_V80LvbnB-144" value="" style="shape=tableRow;horizontal=0;startSize=0;swimlaneHead=0;swimlaneBody=0;strokeColor=inherit;top=0;left=0;bottom=0;right=0;collapsible=0;dropTarget=0;fillColor=none;points=[[0,0.5],[1,0.5]];portConstraint=eastwest;fontSize=16;" parent="QEQtitZpCN8_V80LvbnB-135" vertex="1">
          <mxGeometry y="45" width="66.66666666666667" height="22" as="geometry" />
        </mxCell>
        <mxCell id="QEQtitZpCN8_V80LvbnB-145" value="" style="shape=partialRectangle;html=1;whiteSpace=wrap;connectable=0;strokeColor=inherit;overflow=hidden;fillColor=none;top=0;left=0;bottom=0;right=0;pointerEvents=1;fontSize=16;" parent="QEQtitZpCN8_V80LvbnB-144" vertex="1">
          <mxGeometry width="23" height="22" as="geometry">
            <mxRectangle width="23" height="22" as="alternateBounds" />
          </mxGeometry>
        </mxCell>
        <mxCell id="QEQtitZpCN8_V80LvbnB-146" value="" style="shape=partialRectangle;html=1;whiteSpace=wrap;connectable=0;strokeColor=inherit;overflow=hidden;fillColor=none;top=0;left=0;bottom=0;right=0;pointerEvents=1;fontSize=16;" parent="QEQtitZpCN8_V80LvbnB-144" vertex="1">
          <mxGeometry x="23" width="20" height="22" as="geometry">
            <mxRectangle width="20" height="22" as="alternateBounds" />
          </mxGeometry>
        </mxCell>
        <mxCell id="QEQtitZpCN8_V80LvbnB-147" value="" style="shape=partialRectangle;html=1;whiteSpace=wrap;connectable=0;strokeColor=inherit;overflow=hidden;fillColor=none;top=0;left=0;bottom=0;right=0;pointerEvents=1;fontSize=16;" parent="QEQtitZpCN8_V80LvbnB-144" vertex="1">
          <mxGeometry x="43" width="24" height="22" as="geometry">
            <mxRectangle width="24" height="22" as="alternateBounds" />
          </mxGeometry>
        </mxCell>
        <mxCell id="QEQtitZpCN8_V80LvbnB-148" value="" style="shape=table;startSize=0;container=1;collapsible=0;childLayout=tableLayout;fontSize=16;" parent="QEQtitZpCN8_V80LvbnB-121" vertex="1">
          <mxGeometry x="133.33333333333334" width="66.66666666666667" height="66.66666666666667" as="geometry" />
        </mxCell>
        <mxCell id="QEQtitZpCN8_V80LvbnB-149" value="" style="shape=tableRow;horizontal=0;startSize=0;swimlaneHead=0;swimlaneBody=0;strokeColor=inherit;top=0;left=0;bottom=0;right=0;collapsible=0;dropTarget=0;fillColor=none;points=[[0,0.5],[1,0.5]];portConstraint=eastwest;fontSize=16;" parent="QEQtitZpCN8_V80LvbnB-148" vertex="1">
          <mxGeometry width="66.66666666666667" height="23" as="geometry" />
        </mxCell>
        <mxCell id="QEQtitZpCN8_V80LvbnB-150" value="" style="shape=partialRectangle;html=1;whiteSpace=wrap;connectable=0;strokeColor=inherit;overflow=hidden;fillColor=none;top=0;left=0;bottom=0;right=0;pointerEvents=1;fontSize=16;" parent="QEQtitZpCN8_V80LvbnB-149" vertex="1">
          <mxGeometry width="23" height="23" as="geometry">
            <mxRectangle width="23" height="23" as="alternateBounds" />
          </mxGeometry>
        </mxCell>
        <mxCell id="QEQtitZpCN8_V80LvbnB-151" value="" style="shape=partialRectangle;html=1;whiteSpace=wrap;connectable=0;strokeColor=inherit;overflow=hidden;fillColor=none;top=0;left=0;bottom=0;right=0;pointerEvents=1;fontSize=16;" parent="QEQtitZpCN8_V80LvbnB-149" vertex="1">
          <mxGeometry x="23" width="20" height="23" as="geometry">
            <mxRectangle width="20" height="23" as="alternateBounds" />
          </mxGeometry>
        </mxCell>
        <mxCell id="QEQtitZpCN8_V80LvbnB-152" value="" style="shape=partialRectangle;html=1;whiteSpace=wrap;connectable=0;strokeColor=inherit;overflow=hidden;fillColor=none;top=0;left=0;bottom=0;right=0;pointerEvents=1;fontSize=16;" parent="QEQtitZpCN8_V80LvbnB-149" vertex="1">
          <mxGeometry x="43" width="24" height="23" as="geometry">
            <mxRectangle width="24" height="23" as="alternateBounds" />
          </mxGeometry>
        </mxCell>
        <mxCell id="QEQtitZpCN8_V80LvbnB-153" value="" style="shape=tableRow;horizontal=0;startSize=0;swimlaneHead=0;swimlaneBody=0;strokeColor=inherit;top=0;left=0;bottom=0;right=0;collapsible=0;dropTarget=0;fillColor=none;points=[[0,0.5],[1,0.5]];portConstraint=eastwest;fontSize=16;" parent="QEQtitZpCN8_V80LvbnB-148" vertex="1">
          <mxGeometry y="23" width="66.66666666666667" height="22" as="geometry" />
        </mxCell>
        <mxCell id="QEQtitZpCN8_V80LvbnB-154" value="" style="shape=partialRectangle;html=1;whiteSpace=wrap;connectable=0;strokeColor=inherit;overflow=hidden;fillColor=none;top=0;left=0;bottom=0;right=0;pointerEvents=1;fontSize=16;" parent="QEQtitZpCN8_V80LvbnB-153" vertex="1">
          <mxGeometry width="23" height="22" as="geometry">
            <mxRectangle width="23" height="22" as="alternateBounds" />
          </mxGeometry>
        </mxCell>
        <mxCell id="QEQtitZpCN8_V80LvbnB-155" value="" style="shape=partialRectangle;html=1;whiteSpace=wrap;connectable=0;strokeColor=inherit;overflow=hidden;fillColor=none;top=0;left=0;bottom=0;right=0;pointerEvents=1;fontSize=16;" parent="QEQtitZpCN8_V80LvbnB-153" vertex="1">
          <mxGeometry x="23" width="20" height="22" as="geometry">
            <mxRectangle width="20" height="22" as="alternateBounds" />
          </mxGeometry>
        </mxCell>
        <mxCell id="QEQtitZpCN8_V80LvbnB-156" value="" style="shape=partialRectangle;html=1;whiteSpace=wrap;connectable=0;strokeColor=inherit;overflow=hidden;fillColor=none;top=0;left=0;bottom=0;right=0;pointerEvents=1;fontSize=16;" parent="QEQtitZpCN8_V80LvbnB-153" vertex="1">
          <mxGeometry x="43" width="24" height="22" as="geometry">
            <mxRectangle width="24" height="22" as="alternateBounds" />
          </mxGeometry>
        </mxCell>
        <mxCell id="QEQtitZpCN8_V80LvbnB-157" value="" style="shape=tableRow;horizontal=0;startSize=0;swimlaneHead=0;swimlaneBody=0;strokeColor=inherit;top=0;left=0;bottom=0;right=0;collapsible=0;dropTarget=0;fillColor=none;points=[[0,0.5],[1,0.5]];portConstraint=eastwest;fontSize=16;" parent="QEQtitZpCN8_V80LvbnB-148" vertex="1">
          <mxGeometry y="45" width="66.66666666666667" height="22" as="geometry" />
        </mxCell>
        <mxCell id="QEQtitZpCN8_V80LvbnB-158" value="" style="shape=partialRectangle;html=1;whiteSpace=wrap;connectable=0;strokeColor=inherit;overflow=hidden;fillColor=none;top=0;left=0;bottom=0;right=0;pointerEvents=1;fontSize=16;" parent="QEQtitZpCN8_V80LvbnB-157" vertex="1">
          <mxGeometry width="23" height="22" as="geometry">
            <mxRectangle width="23" height="22" as="alternateBounds" />
          </mxGeometry>
        </mxCell>
        <mxCell id="QEQtitZpCN8_V80LvbnB-159" value="" style="shape=partialRectangle;html=1;whiteSpace=wrap;connectable=0;strokeColor=inherit;overflow=hidden;fillColor=none;top=0;left=0;bottom=0;right=0;pointerEvents=1;fontSize=16;" parent="QEQtitZpCN8_V80LvbnB-157" vertex="1">
          <mxGeometry x="23" width="20" height="22" as="geometry">
            <mxRectangle width="20" height="22" as="alternateBounds" />
          </mxGeometry>
        </mxCell>
        <mxCell id="QEQtitZpCN8_V80LvbnB-160" value="" style="shape=partialRectangle;html=1;whiteSpace=wrap;connectable=0;strokeColor=inherit;overflow=hidden;fillColor=none;top=0;left=0;bottom=0;right=0;pointerEvents=1;fontSize=16;" parent="QEQtitZpCN8_V80LvbnB-157" vertex="1">
          <mxGeometry x="43" width="24" height="22" as="geometry">
            <mxRectangle width="24" height="22" as="alternateBounds" />
          </mxGeometry>
        </mxCell>
        <mxCell id="QEQtitZpCN8_V80LvbnB-161" value="" style="shape=table;startSize=0;container=1;collapsible=0;childLayout=tableLayout;fontSize=16;" parent="QEQtitZpCN8_V80LvbnB-121" vertex="1">
          <mxGeometry y="66.66666666666667" width="66.66666666666667" height="67.00000000000016" as="geometry" />
        </mxCell>
        <mxCell id="QEQtitZpCN8_V80LvbnB-162" value="" style="shape=tableRow;horizontal=0;startSize=0;swimlaneHead=0;swimlaneBody=0;strokeColor=inherit;top=0;left=0;bottom=0;right=0;collapsible=0;dropTarget=0;fillColor=none;points=[[0,0.5],[1,0.5]];portConstraint=eastwest;fontSize=16;" parent="QEQtitZpCN8_V80LvbnB-161" vertex="1">
          <mxGeometry width="66.66666666666667" height="23" as="geometry" />
        </mxCell>
        <mxCell id="QEQtitZpCN8_V80LvbnB-163" value="3" style="shape=partialRectangle;html=1;whiteSpace=wrap;connectable=0;strokeColor=inherit;overflow=hidden;fillColor=none;top=0;left=0;bottom=0;right=0;pointerEvents=1;fontSize=16;" parent="QEQtitZpCN8_V80LvbnB-162" vertex="1">
          <mxGeometry width="23" height="23" as="geometry">
            <mxRectangle width="23" height="23" as="alternateBounds" />
          </mxGeometry>
        </mxCell>
        <mxCell id="QEQtitZpCN8_V80LvbnB-164" value="" style="shape=partialRectangle;html=1;whiteSpace=wrap;connectable=0;strokeColor=inherit;overflow=hidden;fillColor=none;top=0;left=0;bottom=0;right=0;pointerEvents=1;fontSize=16;" parent="QEQtitZpCN8_V80LvbnB-162" vertex="1">
          <mxGeometry x="23" width="20" height="23" as="geometry">
            <mxRectangle width="20" height="23" as="alternateBounds" />
          </mxGeometry>
        </mxCell>
        <mxCell id="QEQtitZpCN8_V80LvbnB-165" value="" style="shape=partialRectangle;html=1;whiteSpace=wrap;connectable=0;strokeColor=inherit;overflow=hidden;fillColor=none;top=0;left=0;bottom=0;right=0;pointerEvents=1;fontSize=16;" parent="QEQtitZpCN8_V80LvbnB-162" vertex="1">
          <mxGeometry x="43" width="24" height="23" as="geometry">
            <mxRectangle width="24" height="23" as="alternateBounds" />
          </mxGeometry>
        </mxCell>
        <mxCell id="QEQtitZpCN8_V80LvbnB-166" value="" style="shape=tableRow;horizontal=0;startSize=0;swimlaneHead=0;swimlaneBody=0;strokeColor=inherit;top=0;left=0;bottom=0;right=0;collapsible=0;dropTarget=0;fillColor=none;points=[[0,0.5],[1,0.5]];portConstraint=eastwest;fontSize=16;" parent="QEQtitZpCN8_V80LvbnB-161" vertex="1">
          <mxGeometry y="23" width="66.66666666666667" height="22" as="geometry" />
        </mxCell>
        <mxCell id="QEQtitZpCN8_V80LvbnB-167" value="4" style="shape=partialRectangle;html=1;whiteSpace=wrap;connectable=0;strokeColor=inherit;overflow=hidden;fillColor=none;top=0;left=0;bottom=0;right=0;pointerEvents=1;fontSize=16;" parent="QEQtitZpCN8_V80LvbnB-166" vertex="1">
          <mxGeometry width="23" height="22" as="geometry">
            <mxRectangle width="23" height="22" as="alternateBounds" />
          </mxGeometry>
        </mxCell>
        <mxCell id="QEQtitZpCN8_V80LvbnB-168" value="" style="shape=partialRectangle;html=1;whiteSpace=wrap;connectable=0;strokeColor=inherit;overflow=hidden;fillColor=none;top=0;left=0;bottom=0;right=0;pointerEvents=1;fontSize=16;" parent="QEQtitZpCN8_V80LvbnB-166" vertex="1">
          <mxGeometry x="23" width="20" height="22" as="geometry">
            <mxRectangle width="20" height="22" as="alternateBounds" />
          </mxGeometry>
        </mxCell>
        <mxCell id="QEQtitZpCN8_V80LvbnB-169" value="" style="shape=partialRectangle;html=1;whiteSpace=wrap;connectable=0;strokeColor=inherit;overflow=hidden;fillColor=none;top=0;left=0;bottom=0;right=0;pointerEvents=1;fontSize=16;" parent="QEQtitZpCN8_V80LvbnB-166" vertex="1">
          <mxGeometry x="43" width="24" height="22" as="geometry">
            <mxRectangle width="24" height="22" as="alternateBounds" />
          </mxGeometry>
        </mxCell>
        <mxCell id="QEQtitZpCN8_V80LvbnB-170" value="" style="shape=tableRow;horizontal=0;startSize=0;swimlaneHead=0;swimlaneBody=0;strokeColor=inherit;top=0;left=0;bottom=0;right=0;collapsible=0;dropTarget=0;fillColor=none;points=[[0,0.5],[1,0.5]];portConstraint=eastwest;fontSize=16;" parent="QEQtitZpCN8_V80LvbnB-161" vertex="1">
          <mxGeometry y="45" width="66.66666666666667" height="22" as="geometry" />
        </mxCell>
        <mxCell id="QEQtitZpCN8_V80LvbnB-171" value="5" style="shape=partialRectangle;html=1;whiteSpace=wrap;connectable=0;strokeColor=inherit;overflow=hidden;fillColor=none;top=0;left=0;bottom=0;right=0;pointerEvents=1;fontSize=16;" parent="QEQtitZpCN8_V80LvbnB-170" vertex="1">
          <mxGeometry width="23" height="22" as="geometry">
            <mxRectangle width="23" height="22" as="alternateBounds" />
          </mxGeometry>
        </mxCell>
        <mxCell id="QEQtitZpCN8_V80LvbnB-172" value="" style="shape=partialRectangle;html=1;whiteSpace=wrap;connectable=0;strokeColor=inherit;overflow=hidden;fillColor=none;top=0;left=0;bottom=0;right=0;pointerEvents=1;fontSize=16;" parent="QEQtitZpCN8_V80LvbnB-170" vertex="1">
          <mxGeometry x="23" width="20" height="22" as="geometry">
            <mxRectangle width="20" height="22" as="alternateBounds" />
          </mxGeometry>
        </mxCell>
        <mxCell id="QEQtitZpCN8_V80LvbnB-173" value="" style="shape=partialRectangle;html=1;whiteSpace=wrap;connectable=0;strokeColor=inherit;overflow=hidden;fillColor=none;top=0;left=0;bottom=0;right=0;pointerEvents=1;fontSize=16;" parent="QEQtitZpCN8_V80LvbnB-170" vertex="1">
          <mxGeometry x="43" width="24" height="22" as="geometry">
            <mxRectangle width="24" height="22" as="alternateBounds" />
          </mxGeometry>
        </mxCell>
        <mxCell id="QEQtitZpCN8_V80LvbnB-174" value="" style="shape=table;startSize=0;container=1;collapsible=0;childLayout=tableLayout;fontSize=16;" parent="QEQtitZpCN8_V80LvbnB-121" vertex="1">
          <mxGeometry x="66.66666666666667" y="66.66666666666667" width="66.66666666666667" height="66.66666666666667" as="geometry" />
        </mxCell>
        <mxCell id="QEQtitZpCN8_V80LvbnB-175" value="" style="shape=tableRow;horizontal=0;startSize=0;swimlaneHead=0;swimlaneBody=0;strokeColor=inherit;top=0;left=0;bottom=0;right=0;collapsible=0;dropTarget=0;fillColor=none;points=[[0,0.5],[1,0.5]];portConstraint=eastwest;fontSize=16;" parent="QEQtitZpCN8_V80LvbnB-174" vertex="1">
          <mxGeometry width="66.66666666666667" height="23" as="geometry" />
        </mxCell>
        <mxCell id="QEQtitZpCN8_V80LvbnB-176" value="" style="shape=partialRectangle;html=1;whiteSpace=wrap;connectable=0;strokeColor=inherit;overflow=hidden;fillColor=none;top=0;left=0;bottom=0;right=0;pointerEvents=1;fontSize=16;" parent="QEQtitZpCN8_V80LvbnB-175" vertex="1">
          <mxGeometry width="23" height="23" as="geometry">
            <mxRectangle width="23" height="23" as="alternateBounds" />
          </mxGeometry>
        </mxCell>
        <mxCell id="QEQtitZpCN8_V80LvbnB-177" value="" style="shape=partialRectangle;html=1;whiteSpace=wrap;connectable=0;strokeColor=inherit;overflow=hidden;fillColor=none;top=0;left=0;bottom=0;right=0;pointerEvents=1;fontSize=16;" parent="QEQtitZpCN8_V80LvbnB-175" vertex="1">
          <mxGeometry x="23" width="20" height="23" as="geometry">
            <mxRectangle width="20" height="23" as="alternateBounds" />
          </mxGeometry>
        </mxCell>
        <mxCell id="QEQtitZpCN8_V80LvbnB-178" value="" style="shape=partialRectangle;html=1;whiteSpace=wrap;connectable=0;strokeColor=inherit;overflow=hidden;fillColor=none;top=0;left=0;bottom=0;right=0;pointerEvents=1;fontSize=16;" parent="QEQtitZpCN8_V80LvbnB-175" vertex="1">
          <mxGeometry x="43" width="24" height="23" as="geometry">
            <mxRectangle width="24" height="23" as="alternateBounds" />
          </mxGeometry>
        </mxCell>
        <mxCell id="QEQtitZpCN8_V80LvbnB-179" value="" style="shape=tableRow;horizontal=0;startSize=0;swimlaneHead=0;swimlaneBody=0;strokeColor=inherit;top=0;left=0;bottom=0;right=0;collapsible=0;dropTarget=0;fillColor=none;points=[[0,0.5],[1,0.5]];portConstraint=eastwest;fontSize=16;" parent="QEQtitZpCN8_V80LvbnB-174" vertex="1">
          <mxGeometry y="23" width="66.66666666666667" height="22" as="geometry" />
        </mxCell>
        <mxCell id="QEQtitZpCN8_V80LvbnB-180" value="" style="shape=partialRectangle;html=1;whiteSpace=wrap;connectable=0;strokeColor=inherit;overflow=hidden;fillColor=none;top=0;left=0;bottom=0;right=0;pointerEvents=1;fontSize=16;" parent="QEQtitZpCN8_V80LvbnB-179" vertex="1">
          <mxGeometry width="23" height="22" as="geometry">
            <mxRectangle width="23" height="22" as="alternateBounds" />
          </mxGeometry>
        </mxCell>
        <mxCell id="QEQtitZpCN8_V80LvbnB-181" value="" style="shape=partialRectangle;html=1;whiteSpace=wrap;connectable=0;strokeColor=inherit;overflow=hidden;fillColor=none;top=0;left=0;bottom=0;right=0;pointerEvents=1;fontSize=16;" parent="QEQtitZpCN8_V80LvbnB-179" vertex="1">
          <mxGeometry x="23" width="20" height="22" as="geometry">
            <mxRectangle width="20" height="22" as="alternateBounds" />
          </mxGeometry>
        </mxCell>
        <mxCell id="QEQtitZpCN8_V80LvbnB-182" value="" style="shape=partialRectangle;html=1;whiteSpace=wrap;connectable=0;strokeColor=inherit;overflow=hidden;fillColor=none;top=0;left=0;bottom=0;right=0;pointerEvents=1;fontSize=16;" parent="QEQtitZpCN8_V80LvbnB-179" vertex="1">
          <mxGeometry x="43" width="24" height="22" as="geometry">
            <mxRectangle width="24" height="22" as="alternateBounds" />
          </mxGeometry>
        </mxCell>
        <mxCell id="QEQtitZpCN8_V80LvbnB-183" value="" style="shape=tableRow;horizontal=0;startSize=0;swimlaneHead=0;swimlaneBody=0;strokeColor=inherit;top=0;left=0;bottom=0;right=0;collapsible=0;dropTarget=0;fillColor=none;points=[[0,0.5],[1,0.5]];portConstraint=eastwest;fontSize=16;" parent="QEQtitZpCN8_V80LvbnB-174" vertex="1">
          <mxGeometry y="45" width="66.66666666666667" height="22" as="geometry" />
        </mxCell>
        <mxCell id="QEQtitZpCN8_V80LvbnB-184" value="" style="shape=partialRectangle;html=1;whiteSpace=wrap;connectable=0;strokeColor=inherit;overflow=hidden;fillColor=none;top=0;left=0;bottom=0;right=0;pointerEvents=1;fontSize=16;" parent="QEQtitZpCN8_V80LvbnB-183" vertex="1">
          <mxGeometry width="23" height="22" as="geometry">
            <mxRectangle width="23" height="22" as="alternateBounds" />
          </mxGeometry>
        </mxCell>
        <mxCell id="QEQtitZpCN8_V80LvbnB-185" value="" style="shape=partialRectangle;html=1;whiteSpace=wrap;connectable=0;strokeColor=inherit;overflow=hidden;fillColor=none;top=0;left=0;bottom=0;right=0;pointerEvents=1;fontSize=16;" parent="QEQtitZpCN8_V80LvbnB-183" vertex="1">
          <mxGeometry x="23" width="20" height="22" as="geometry">
            <mxRectangle width="20" height="22" as="alternateBounds" />
          </mxGeometry>
        </mxCell>
        <mxCell id="QEQtitZpCN8_V80LvbnB-186" value="" style="shape=partialRectangle;html=1;whiteSpace=wrap;connectable=0;strokeColor=inherit;overflow=hidden;fillColor=none;top=0;left=0;bottom=0;right=0;pointerEvents=1;fontSize=16;" parent="QEQtitZpCN8_V80LvbnB-183" vertex="1">
          <mxGeometry x="43" width="24" height="22" as="geometry">
            <mxRectangle width="24" height="22" as="alternateBounds" />
          </mxGeometry>
        </mxCell>
        <mxCell id="QEQtitZpCN8_V80LvbnB-187" value="" style="shape=table;startSize=0;container=1;collapsible=0;childLayout=tableLayout;fontSize=16;" parent="QEQtitZpCN8_V80LvbnB-121" vertex="1">
          <mxGeometry x="133.33333333333334" y="66.66666666666667" width="66.66666666666667" height="66.66666666666667" as="geometry" />
        </mxCell>
        <mxCell id="QEQtitZpCN8_V80LvbnB-188" value="" style="shape=tableRow;horizontal=0;startSize=0;swimlaneHead=0;swimlaneBody=0;strokeColor=inherit;top=0;left=0;bottom=0;right=0;collapsible=0;dropTarget=0;fillColor=none;points=[[0,0.5],[1,0.5]];portConstraint=eastwest;fontSize=16;" parent="QEQtitZpCN8_V80LvbnB-187" vertex="1">
          <mxGeometry width="66.66666666666667" height="23" as="geometry" />
        </mxCell>
        <mxCell id="QEQtitZpCN8_V80LvbnB-189" value="" style="shape=partialRectangle;html=1;whiteSpace=wrap;connectable=0;strokeColor=inherit;overflow=hidden;fillColor=none;top=0;left=0;bottom=0;right=0;pointerEvents=1;fontSize=16;" parent="QEQtitZpCN8_V80LvbnB-188" vertex="1">
          <mxGeometry width="23" height="23" as="geometry">
            <mxRectangle width="23" height="23" as="alternateBounds" />
          </mxGeometry>
        </mxCell>
        <mxCell id="QEQtitZpCN8_V80LvbnB-190" value="" style="shape=partialRectangle;html=1;whiteSpace=wrap;connectable=0;strokeColor=inherit;overflow=hidden;fillColor=none;top=0;left=0;bottom=0;right=0;pointerEvents=1;fontSize=16;" parent="QEQtitZpCN8_V80LvbnB-188" vertex="1">
          <mxGeometry x="23" width="20" height="23" as="geometry">
            <mxRectangle width="20" height="23" as="alternateBounds" />
          </mxGeometry>
        </mxCell>
        <mxCell id="QEQtitZpCN8_V80LvbnB-191" value="" style="shape=partialRectangle;html=1;whiteSpace=wrap;connectable=0;strokeColor=inherit;overflow=hidden;fillColor=none;top=0;left=0;bottom=0;right=0;pointerEvents=1;fontSize=16;" parent="QEQtitZpCN8_V80LvbnB-188" vertex="1">
          <mxGeometry x="43" width="24" height="23" as="geometry">
            <mxRectangle width="24" height="23" as="alternateBounds" />
          </mxGeometry>
        </mxCell>
        <mxCell id="QEQtitZpCN8_V80LvbnB-192" value="" style="shape=tableRow;horizontal=0;startSize=0;swimlaneHead=0;swimlaneBody=0;strokeColor=inherit;top=0;left=0;bottom=0;right=0;collapsible=0;dropTarget=0;fillColor=none;points=[[0,0.5],[1,0.5]];portConstraint=eastwest;fontSize=16;" parent="QEQtitZpCN8_V80LvbnB-187" vertex="1">
          <mxGeometry y="23" width="66.66666666666667" height="22" as="geometry" />
        </mxCell>
        <mxCell id="QEQtitZpCN8_V80LvbnB-193" value="" style="shape=partialRectangle;html=1;whiteSpace=wrap;connectable=0;strokeColor=inherit;overflow=hidden;fillColor=none;top=0;left=0;bottom=0;right=0;pointerEvents=1;fontSize=16;" parent="QEQtitZpCN8_V80LvbnB-192" vertex="1">
          <mxGeometry width="23" height="22" as="geometry">
            <mxRectangle width="23" height="22" as="alternateBounds" />
          </mxGeometry>
        </mxCell>
        <mxCell id="QEQtitZpCN8_V80LvbnB-194" value="" style="shape=partialRectangle;html=1;whiteSpace=wrap;connectable=0;strokeColor=inherit;overflow=hidden;fillColor=none;top=0;left=0;bottom=0;right=0;pointerEvents=1;fontSize=16;" parent="QEQtitZpCN8_V80LvbnB-192" vertex="1">
          <mxGeometry x="23" width="20" height="22" as="geometry">
            <mxRectangle width="20" height="22" as="alternateBounds" />
          </mxGeometry>
        </mxCell>
        <mxCell id="QEQtitZpCN8_V80LvbnB-195" value="" style="shape=partialRectangle;html=1;whiteSpace=wrap;connectable=0;strokeColor=inherit;overflow=hidden;fillColor=none;top=0;left=0;bottom=0;right=0;pointerEvents=1;fontSize=16;" parent="QEQtitZpCN8_V80LvbnB-192" vertex="1">
          <mxGeometry x="43" width="24" height="22" as="geometry">
            <mxRectangle width="24" height="22" as="alternateBounds" />
          </mxGeometry>
        </mxCell>
        <mxCell id="QEQtitZpCN8_V80LvbnB-196" value="" style="shape=tableRow;horizontal=0;startSize=0;swimlaneHead=0;swimlaneBody=0;strokeColor=inherit;top=0;left=0;bottom=0;right=0;collapsible=0;dropTarget=0;fillColor=none;points=[[0,0.5],[1,0.5]];portConstraint=eastwest;fontSize=16;" parent="QEQtitZpCN8_V80LvbnB-187" vertex="1">
          <mxGeometry y="45" width="66.66666666666667" height="22" as="geometry" />
        </mxCell>
        <mxCell id="QEQtitZpCN8_V80LvbnB-197" value="" style="shape=partialRectangle;html=1;whiteSpace=wrap;connectable=0;strokeColor=inherit;overflow=hidden;fillColor=none;top=0;left=0;bottom=0;right=0;pointerEvents=1;fontSize=16;" parent="QEQtitZpCN8_V80LvbnB-196" vertex="1">
          <mxGeometry width="23" height="22" as="geometry">
            <mxRectangle width="23" height="22" as="alternateBounds" />
          </mxGeometry>
        </mxCell>
        <mxCell id="QEQtitZpCN8_V80LvbnB-198" value="" style="shape=partialRectangle;html=1;whiteSpace=wrap;connectable=0;strokeColor=inherit;overflow=hidden;fillColor=none;top=0;left=0;bottom=0;right=0;pointerEvents=1;fontSize=16;" parent="QEQtitZpCN8_V80LvbnB-196" vertex="1">
          <mxGeometry x="23" width="20" height="22" as="geometry">
            <mxRectangle width="20" height="22" as="alternateBounds" />
          </mxGeometry>
        </mxCell>
        <mxCell id="QEQtitZpCN8_V80LvbnB-199" value="" style="shape=partialRectangle;html=1;whiteSpace=wrap;connectable=0;strokeColor=inherit;overflow=hidden;fillColor=none;top=0;left=0;bottom=0;right=0;pointerEvents=1;fontSize=16;" parent="QEQtitZpCN8_V80LvbnB-196" vertex="1">
          <mxGeometry x="43" width="24" height="22" as="geometry">
            <mxRectangle width="24" height="22" as="alternateBounds" />
          </mxGeometry>
        </mxCell>
        <mxCell id="QEQtitZpCN8_V80LvbnB-200" value="" style="shape=table;startSize=0;container=1;collapsible=0;childLayout=tableLayout;fontSize=16;" parent="QEQtitZpCN8_V80LvbnB-121" vertex="1">
          <mxGeometry y="133.33333333333334" width="66.66666666666667" height="66.66666666666667" as="geometry" />
        </mxCell>
        <mxCell id="QEQtitZpCN8_V80LvbnB-201" value="" style="shape=tableRow;horizontal=0;startSize=0;swimlaneHead=0;swimlaneBody=0;strokeColor=inherit;top=0;left=0;bottom=0;right=0;collapsible=0;dropTarget=0;fillColor=none;points=[[0,0.5],[1,0.5]];portConstraint=eastwest;fontSize=16;" parent="QEQtitZpCN8_V80LvbnB-200" vertex="1">
          <mxGeometry width="66.66666666666667" height="23" as="geometry" />
        </mxCell>
        <mxCell id="QEQtitZpCN8_V80LvbnB-202" value="" style="shape=partialRectangle;html=1;whiteSpace=wrap;connectable=0;strokeColor=inherit;overflow=hidden;fillColor=none;top=0;left=0;bottom=0;right=0;pointerEvents=1;fontSize=16;" parent="QEQtitZpCN8_V80LvbnB-201" vertex="1">
          <mxGeometry width="23" height="23" as="geometry">
            <mxRectangle width="23" height="23" as="alternateBounds" />
          </mxGeometry>
        </mxCell>
        <mxCell id="QEQtitZpCN8_V80LvbnB-203" value="" style="shape=partialRectangle;html=1;whiteSpace=wrap;connectable=0;strokeColor=inherit;overflow=hidden;fillColor=none;top=0;left=0;bottom=0;right=0;pointerEvents=1;fontSize=16;" parent="QEQtitZpCN8_V80LvbnB-201" vertex="1">
          <mxGeometry x="23" width="20" height="23" as="geometry">
            <mxRectangle width="20" height="23" as="alternateBounds" />
          </mxGeometry>
        </mxCell>
        <mxCell id="QEQtitZpCN8_V80LvbnB-204" value="" style="shape=partialRectangle;html=1;whiteSpace=wrap;connectable=0;strokeColor=inherit;overflow=hidden;fillColor=none;top=0;left=0;bottom=0;right=0;pointerEvents=1;fontSize=16;" parent="QEQtitZpCN8_V80LvbnB-201" vertex="1">
          <mxGeometry x="43" width="24" height="23" as="geometry">
            <mxRectangle width="24" height="23" as="alternateBounds" />
          </mxGeometry>
        </mxCell>
        <mxCell id="QEQtitZpCN8_V80LvbnB-205" value="" style="shape=tableRow;horizontal=0;startSize=0;swimlaneHead=0;swimlaneBody=0;strokeColor=inherit;top=0;left=0;bottom=0;right=0;collapsible=0;dropTarget=0;fillColor=none;points=[[0,0.5],[1,0.5]];portConstraint=eastwest;fontSize=16;" parent="QEQtitZpCN8_V80LvbnB-200" vertex="1">
          <mxGeometry y="23" width="66.66666666666667" height="22" as="geometry" />
        </mxCell>
        <mxCell id="QEQtitZpCN8_V80LvbnB-206" value="" style="shape=partialRectangle;html=1;whiteSpace=wrap;connectable=0;strokeColor=inherit;overflow=hidden;fillColor=none;top=0;left=0;bottom=0;right=0;pointerEvents=1;fontSize=16;" parent="QEQtitZpCN8_V80LvbnB-205" vertex="1">
          <mxGeometry width="23" height="22" as="geometry">
            <mxRectangle width="23" height="22" as="alternateBounds" />
          </mxGeometry>
        </mxCell>
        <mxCell id="QEQtitZpCN8_V80LvbnB-207" value="" style="shape=partialRectangle;html=1;whiteSpace=wrap;connectable=0;strokeColor=inherit;overflow=hidden;fillColor=none;top=0;left=0;bottom=0;right=0;pointerEvents=1;fontSize=16;" parent="QEQtitZpCN8_V80LvbnB-205" vertex="1">
          <mxGeometry x="23" width="20" height="22" as="geometry">
            <mxRectangle width="20" height="22" as="alternateBounds" />
          </mxGeometry>
        </mxCell>
        <mxCell id="QEQtitZpCN8_V80LvbnB-208" value="" style="shape=partialRectangle;html=1;whiteSpace=wrap;connectable=0;strokeColor=inherit;overflow=hidden;fillColor=none;top=0;left=0;bottom=0;right=0;pointerEvents=1;fontSize=16;" parent="QEQtitZpCN8_V80LvbnB-205" vertex="1">
          <mxGeometry x="43" width="24" height="22" as="geometry">
            <mxRectangle width="24" height="22" as="alternateBounds" />
          </mxGeometry>
        </mxCell>
        <mxCell id="QEQtitZpCN8_V80LvbnB-209" value="" style="shape=tableRow;horizontal=0;startSize=0;swimlaneHead=0;swimlaneBody=0;strokeColor=inherit;top=0;left=0;bottom=0;right=0;collapsible=0;dropTarget=0;fillColor=none;points=[[0,0.5],[1,0.5]];portConstraint=eastwest;fontSize=16;" parent="QEQtitZpCN8_V80LvbnB-200" vertex="1">
          <mxGeometry y="45" width="66.66666666666667" height="22" as="geometry" />
        </mxCell>
        <mxCell id="QEQtitZpCN8_V80LvbnB-210" value="" style="shape=partialRectangle;html=1;whiteSpace=wrap;connectable=0;strokeColor=inherit;overflow=hidden;fillColor=none;top=0;left=0;bottom=0;right=0;pointerEvents=1;fontSize=16;" parent="QEQtitZpCN8_V80LvbnB-209" vertex="1">
          <mxGeometry width="23" height="22" as="geometry">
            <mxRectangle width="23" height="22" as="alternateBounds" />
          </mxGeometry>
        </mxCell>
        <mxCell id="QEQtitZpCN8_V80LvbnB-211" value="" style="shape=partialRectangle;html=1;whiteSpace=wrap;connectable=0;strokeColor=inherit;overflow=hidden;fillColor=none;top=0;left=0;bottom=0;right=0;pointerEvents=1;fontSize=16;" parent="QEQtitZpCN8_V80LvbnB-209" vertex="1">
          <mxGeometry x="23" width="20" height="22" as="geometry">
            <mxRectangle width="20" height="22" as="alternateBounds" />
          </mxGeometry>
        </mxCell>
        <mxCell id="QEQtitZpCN8_V80LvbnB-212" value="" style="shape=partialRectangle;html=1;whiteSpace=wrap;connectable=0;strokeColor=inherit;overflow=hidden;fillColor=none;top=0;left=0;bottom=0;right=0;pointerEvents=1;fontSize=16;" parent="QEQtitZpCN8_V80LvbnB-209" vertex="1">
          <mxGeometry x="43" width="24" height="22" as="geometry">
            <mxRectangle width="24" height="22" as="alternateBounds" />
          </mxGeometry>
        </mxCell>
        <mxCell id="QEQtitZpCN8_V80LvbnB-213" value="" style="shape=table;startSize=0;container=1;collapsible=0;childLayout=tableLayout;fontSize=16;" parent="QEQtitZpCN8_V80LvbnB-121" vertex="1">
          <mxGeometry x="66.66666666666667" y="133.33333333333334" width="66.66666666666667" height="66.66666666666667" as="geometry" />
        </mxCell>
        <mxCell id="QEQtitZpCN8_V80LvbnB-214" value="" style="shape=tableRow;horizontal=0;startSize=0;swimlaneHead=0;swimlaneBody=0;strokeColor=inherit;top=0;left=0;bottom=0;right=0;collapsible=0;dropTarget=0;fillColor=none;points=[[0,0.5],[1,0.5]];portConstraint=eastwest;fontSize=16;" parent="QEQtitZpCN8_V80LvbnB-213" vertex="1">
          <mxGeometry width="66.66666666666667" height="23" as="geometry" />
        </mxCell>
        <mxCell id="QEQtitZpCN8_V80LvbnB-215" value="" style="shape=partialRectangle;html=1;whiteSpace=wrap;connectable=0;strokeColor=inherit;overflow=hidden;fillColor=none;top=0;left=0;bottom=0;right=0;pointerEvents=1;fontSize=16;" parent="QEQtitZpCN8_V80LvbnB-214" vertex="1">
          <mxGeometry width="23" height="23" as="geometry">
            <mxRectangle width="23" height="23" as="alternateBounds" />
          </mxGeometry>
        </mxCell>
        <mxCell id="QEQtitZpCN8_V80LvbnB-216" value="" style="shape=partialRectangle;html=1;whiteSpace=wrap;connectable=0;strokeColor=inherit;overflow=hidden;fillColor=none;top=0;left=0;bottom=0;right=0;pointerEvents=1;fontSize=16;" parent="QEQtitZpCN8_V80LvbnB-214" vertex="1">
          <mxGeometry x="23" width="20" height="23" as="geometry">
            <mxRectangle width="20" height="23" as="alternateBounds" />
          </mxGeometry>
        </mxCell>
        <mxCell id="QEQtitZpCN8_V80LvbnB-217" value="" style="shape=partialRectangle;html=1;whiteSpace=wrap;connectable=0;strokeColor=inherit;overflow=hidden;fillColor=none;top=0;left=0;bottom=0;right=0;pointerEvents=1;fontSize=16;" parent="QEQtitZpCN8_V80LvbnB-214" vertex="1">
          <mxGeometry x="43" width="24" height="23" as="geometry">
            <mxRectangle width="24" height="23" as="alternateBounds" />
          </mxGeometry>
        </mxCell>
        <mxCell id="QEQtitZpCN8_V80LvbnB-218" value="" style="shape=tableRow;horizontal=0;startSize=0;swimlaneHead=0;swimlaneBody=0;strokeColor=inherit;top=0;left=0;bottom=0;right=0;collapsible=0;dropTarget=0;fillColor=none;points=[[0,0.5],[1,0.5]];portConstraint=eastwest;fontSize=16;" parent="QEQtitZpCN8_V80LvbnB-213" vertex="1">
          <mxGeometry y="23" width="66.66666666666667" height="22" as="geometry" />
        </mxCell>
        <mxCell id="QEQtitZpCN8_V80LvbnB-219" value="" style="shape=partialRectangle;html=1;whiteSpace=wrap;connectable=0;strokeColor=inherit;overflow=hidden;fillColor=none;top=0;left=0;bottom=0;right=0;pointerEvents=1;fontSize=16;" parent="QEQtitZpCN8_V80LvbnB-218" vertex="1">
          <mxGeometry width="23" height="22" as="geometry">
            <mxRectangle width="23" height="22" as="alternateBounds" />
          </mxGeometry>
        </mxCell>
        <mxCell id="QEQtitZpCN8_V80LvbnB-220" value="" style="shape=partialRectangle;html=1;whiteSpace=wrap;connectable=0;strokeColor=inherit;overflow=hidden;fillColor=none;top=0;left=0;bottom=0;right=0;pointerEvents=1;fontSize=16;" parent="QEQtitZpCN8_V80LvbnB-218" vertex="1">
          <mxGeometry x="23" width="20" height="22" as="geometry">
            <mxRectangle width="20" height="22" as="alternateBounds" />
          </mxGeometry>
        </mxCell>
        <mxCell id="QEQtitZpCN8_V80LvbnB-221" value="" style="shape=partialRectangle;html=1;whiteSpace=wrap;connectable=0;strokeColor=inherit;overflow=hidden;fillColor=none;top=0;left=0;bottom=0;right=0;pointerEvents=1;fontSize=16;" parent="QEQtitZpCN8_V80LvbnB-218" vertex="1">
          <mxGeometry x="43" width="24" height="22" as="geometry">
            <mxRectangle width="24" height="22" as="alternateBounds" />
          </mxGeometry>
        </mxCell>
        <mxCell id="QEQtitZpCN8_V80LvbnB-222" value="" style="shape=tableRow;horizontal=0;startSize=0;swimlaneHead=0;swimlaneBody=0;strokeColor=inherit;top=0;left=0;bottom=0;right=0;collapsible=0;dropTarget=0;fillColor=none;points=[[0,0.5],[1,0.5]];portConstraint=eastwest;fontSize=16;" parent="QEQtitZpCN8_V80LvbnB-213" vertex="1">
          <mxGeometry y="45" width="66.66666666666667" height="22" as="geometry" />
        </mxCell>
        <mxCell id="QEQtitZpCN8_V80LvbnB-223" value="" style="shape=partialRectangle;html=1;whiteSpace=wrap;connectable=0;strokeColor=inherit;overflow=hidden;fillColor=none;top=0;left=0;bottom=0;right=0;pointerEvents=1;fontSize=16;" parent="QEQtitZpCN8_V80LvbnB-222" vertex="1">
          <mxGeometry width="23" height="22" as="geometry">
            <mxRectangle width="23" height="22" as="alternateBounds" />
          </mxGeometry>
        </mxCell>
        <mxCell id="QEQtitZpCN8_V80LvbnB-224" value="" style="shape=partialRectangle;html=1;whiteSpace=wrap;connectable=0;strokeColor=inherit;overflow=hidden;fillColor=none;top=0;left=0;bottom=0;right=0;pointerEvents=1;fontSize=16;" parent="QEQtitZpCN8_V80LvbnB-222" vertex="1">
          <mxGeometry x="23" width="20" height="22" as="geometry">
            <mxRectangle width="20" height="22" as="alternateBounds" />
          </mxGeometry>
        </mxCell>
        <mxCell id="QEQtitZpCN8_V80LvbnB-225" value="" style="shape=partialRectangle;html=1;whiteSpace=wrap;connectable=0;strokeColor=inherit;overflow=hidden;fillColor=none;top=0;left=0;bottom=0;right=0;pointerEvents=1;fontSize=16;" parent="QEQtitZpCN8_V80LvbnB-222" vertex="1">
          <mxGeometry x="43" width="24" height="22" as="geometry">
            <mxRectangle width="24" height="22" as="alternateBounds" />
          </mxGeometry>
        </mxCell>
        <mxCell id="QEQtitZpCN8_V80LvbnB-226" value="" style="shape=table;startSize=0;container=1;collapsible=0;childLayout=tableLayout;fontSize=16;" parent="QEQtitZpCN8_V80LvbnB-121" vertex="1">
          <mxGeometry x="133.33333333333334" y="133.33333333333334" width="66.66666666666667" height="66.66666666666667" as="geometry" />
        </mxCell>
        <mxCell id="QEQtitZpCN8_V80LvbnB-227" value="" style="shape=tableRow;horizontal=0;startSize=0;swimlaneHead=0;swimlaneBody=0;strokeColor=inherit;top=0;left=0;bottom=0;right=0;collapsible=0;dropTarget=0;fillColor=none;points=[[0,0.5],[1,0.5]];portConstraint=eastwest;fontSize=16;" parent="QEQtitZpCN8_V80LvbnB-226" vertex="1">
          <mxGeometry width="66.66666666666667" height="23" as="geometry" />
        </mxCell>
        <mxCell id="QEQtitZpCN8_V80LvbnB-228" value="" style="shape=partialRectangle;html=1;whiteSpace=wrap;connectable=0;strokeColor=inherit;overflow=hidden;fillColor=none;top=0;left=0;bottom=0;right=0;pointerEvents=1;fontSize=16;" parent="QEQtitZpCN8_V80LvbnB-227" vertex="1">
          <mxGeometry width="23" height="23" as="geometry">
            <mxRectangle width="23" height="23" as="alternateBounds" />
          </mxGeometry>
        </mxCell>
        <mxCell id="QEQtitZpCN8_V80LvbnB-229" value="" style="shape=partialRectangle;html=1;whiteSpace=wrap;connectable=0;strokeColor=inherit;overflow=hidden;fillColor=none;top=0;left=0;bottom=0;right=0;pointerEvents=1;fontSize=16;" parent="QEQtitZpCN8_V80LvbnB-227" vertex="1">
          <mxGeometry x="23" width="20" height="23" as="geometry">
            <mxRectangle width="20" height="23" as="alternateBounds" />
          </mxGeometry>
        </mxCell>
        <mxCell id="QEQtitZpCN8_V80LvbnB-230" value="" style="shape=partialRectangle;html=1;whiteSpace=wrap;connectable=0;strokeColor=inherit;overflow=hidden;fillColor=none;top=0;left=0;bottom=0;right=0;pointerEvents=1;fontSize=16;" parent="QEQtitZpCN8_V80LvbnB-227" vertex="1">
          <mxGeometry x="43" width="24" height="23" as="geometry">
            <mxRectangle width="24" height="23" as="alternateBounds" />
          </mxGeometry>
        </mxCell>
        <mxCell id="QEQtitZpCN8_V80LvbnB-231" value="" style="shape=tableRow;horizontal=0;startSize=0;swimlaneHead=0;swimlaneBody=0;strokeColor=inherit;top=0;left=0;bottom=0;right=0;collapsible=0;dropTarget=0;fillColor=none;points=[[0,0.5],[1,0.5]];portConstraint=eastwest;fontSize=16;" parent="QEQtitZpCN8_V80LvbnB-226" vertex="1">
          <mxGeometry y="23" width="66.66666666666667" height="22" as="geometry" />
        </mxCell>
        <mxCell id="QEQtitZpCN8_V80LvbnB-232" value="" style="shape=partialRectangle;html=1;whiteSpace=wrap;connectable=0;strokeColor=inherit;overflow=hidden;fillColor=none;top=0;left=0;bottom=0;right=0;pointerEvents=1;fontSize=16;" parent="QEQtitZpCN8_V80LvbnB-231" vertex="1">
          <mxGeometry width="23" height="22" as="geometry">
            <mxRectangle width="23" height="22" as="alternateBounds" />
          </mxGeometry>
        </mxCell>
        <mxCell id="QEQtitZpCN8_V80LvbnB-233" value="" style="shape=partialRectangle;html=1;whiteSpace=wrap;connectable=0;strokeColor=inherit;overflow=hidden;fillColor=none;top=0;left=0;bottom=0;right=0;pointerEvents=1;fontSize=16;" parent="QEQtitZpCN8_V80LvbnB-231" vertex="1">
          <mxGeometry x="23" width="20" height="22" as="geometry">
            <mxRectangle width="20" height="22" as="alternateBounds" />
          </mxGeometry>
        </mxCell>
        <mxCell id="QEQtitZpCN8_V80LvbnB-234" value="" style="shape=partialRectangle;html=1;whiteSpace=wrap;connectable=0;strokeColor=inherit;overflow=hidden;fillColor=none;top=0;left=0;bottom=0;right=0;pointerEvents=1;fontSize=16;" parent="QEQtitZpCN8_V80LvbnB-231" vertex="1">
          <mxGeometry x="43" width="24" height="22" as="geometry">
            <mxRectangle width="24" height="22" as="alternateBounds" />
          </mxGeometry>
        </mxCell>
        <mxCell id="QEQtitZpCN8_V80LvbnB-235" value="" style="shape=tableRow;horizontal=0;startSize=0;swimlaneHead=0;swimlaneBody=0;strokeColor=inherit;top=0;left=0;bottom=0;right=0;collapsible=0;dropTarget=0;fillColor=none;points=[[0,0.5],[1,0.5]];portConstraint=eastwest;fontSize=16;" parent="QEQtitZpCN8_V80LvbnB-226" vertex="1">
          <mxGeometry y="45" width="66.66666666666667" height="22" as="geometry" />
        </mxCell>
        <mxCell id="QEQtitZpCN8_V80LvbnB-236" value="" style="shape=partialRectangle;html=1;whiteSpace=wrap;connectable=0;strokeColor=inherit;overflow=hidden;fillColor=none;top=0;left=0;bottom=0;right=0;pointerEvents=1;fontSize=16;" parent="QEQtitZpCN8_V80LvbnB-235" vertex="1">
          <mxGeometry width="23" height="22" as="geometry">
            <mxRectangle width="23" height="22" as="alternateBounds" />
          </mxGeometry>
        </mxCell>
        <mxCell id="QEQtitZpCN8_V80LvbnB-237" value="" style="shape=partialRectangle;html=1;whiteSpace=wrap;connectable=0;strokeColor=inherit;overflow=hidden;fillColor=none;top=0;left=0;bottom=0;right=0;pointerEvents=1;fontSize=16;" parent="QEQtitZpCN8_V80LvbnB-235" vertex="1">
          <mxGeometry x="23" width="20" height="22" as="geometry">
            <mxRectangle width="20" height="22" as="alternateBounds" />
          </mxGeometry>
        </mxCell>
        <mxCell id="QEQtitZpCN8_V80LvbnB-238" value="" style="shape=partialRectangle;html=1;whiteSpace=wrap;connectable=0;strokeColor=inherit;overflow=hidden;fillColor=none;top=0;left=0;bottom=0;right=0;pointerEvents=1;fontSize=16;" parent="QEQtitZpCN8_V80LvbnB-235" vertex="1">
          <mxGeometry x="43" width="24" height="22" as="geometry">
            <mxRectangle width="24" height="22" as="alternateBounds" />
          </mxGeometry>
        </mxCell>
        <mxCell id="QEQtitZpCN8_V80LvbnB-240" value="" style="endArrow=none;dashed=1;html=1;dashPattern=1 3;strokeWidth=2;rounded=0;" parent="1" edge="1">
          <mxGeometry width="50" height="50" relative="1" as="geometry">
            <mxPoint x="270" y="820" as="sourcePoint" />
            <mxPoint x="270" y="720" as="targetPoint" />
          </mxGeometry>
        </mxCell>
        <mxCell id="QEQtitZpCN8_V80LvbnB-241" value="A tile" style="text;html=1;align=center;verticalAlign=middle;whiteSpace=wrap;rounded=0;" parent="1" vertex="1">
          <mxGeometry x="30" y="650" width="60" height="30" as="geometry" />
        </mxCell>
        <mxCell id="QEQtitZpCN8_V80LvbnB-255" value="Global" style="text;html=1;align=center;verticalAlign=middle;whiteSpace=wrap;rounded=0;" parent="1" vertex="1">
          <mxGeometry x="340" y="850" width="60" height="30" as="geometry" />
        </mxCell>
        <mxCell id="QEQtitZpCN8_V80LvbnB-269" value="x" style="text;html=1;align=center;verticalAlign=middle;whiteSpace=wrap;rounded=0;" parent="1" vertex="1">
          <mxGeometry x="314" y="700" width="60" height="30" as="geometry" />
        </mxCell>
        <mxCell id="QEQtitZpCN8_V80LvbnB-283" value="width(y+j)" style="text;html=1;align=center;verticalAlign=middle;whiteSpace=wrap;rounded=0;rotation=-90;" parent="1" vertex="1">
          <mxGeometry x="280" y="756" width="60" height="30" as="geometry" />
        </mxCell>
        <mxCell id="QEQtitZpCN8_V80LvbnB-285" value="Shared" style="text;html=1;align=center;verticalAlign=middle;whiteSpace=wrap;rounded=0;" parent="1" vertex="1">
          <mxGeometry x="510" y="850" width="60" height="30" as="geometry" />
        </mxCell>
        <mxCell id="QEQtitZpCN8_V80LvbnB-296" value="1 colore รจ il lavoro di un thread" style="text;html=1;align=center;verticalAlign=middle;whiteSpace=wrap;rounded=0;" parent="1" vertex="1">
          <mxGeometry x="370" y="670" width="170" height="30" as="geometry" />
        </mxCell>
        <mxCell id="QEQtitZpCN8_V80LvbnB-315" value="" style="rounded=0;whiteSpace=wrap;html=1;fillColor=#60a917;fontColor=#ffffff;strokeColor=#2D7600;" parent="1" vertex="1">
          <mxGeometry x="330" y="736" width="20" height="20" as="geometry" />
        </mxCell>
        <mxCell id="QEQtitZpCN8_V80LvbnB-316" value="" style="rounded=0;whiteSpace=wrap;html=1;fillColor=#0050ef;fontColor=#ffffff;strokeColor=#001DBC;" parent="1" vertex="1">
          <mxGeometry x="350" y="736" width="20" height="20" as="geometry" />
        </mxCell>
        <mxCell id="QEQtitZpCN8_V80LvbnB-317" value="" style="rounded=0;whiteSpace=wrap;html=1;" parent="1" vertex="1">
          <mxGeometry x="370" y="736" width="20" height="20" as="geometry" />
        </mxCell>
        <mxCell id="QEQtitZpCN8_V80LvbnB-318" value="" style="rounded=0;whiteSpace=wrap;html=1;" parent="1" vertex="1">
          <mxGeometry x="390" y="736" width="20" height="20" as="geometry" />
        </mxCell>
        <mxCell id="QEQtitZpCN8_V80LvbnB-319" value="" style="rounded=0;whiteSpace=wrap;html=1;fillColor=#d80073;fontColor=#ffffff;strokeColor=#A50040;" parent="1" vertex="1">
          <mxGeometry x="330" y="756" width="20" height="20" as="geometry" />
        </mxCell>
        <mxCell id="QEQtitZpCN8_V80LvbnB-320" value="" style="rounded=0;whiteSpace=wrap;html=1;fillColor=#6a00ff;fontColor=#ffffff;strokeColor=#3700CC;" parent="1" vertex="1">
          <mxGeometry x="350" y="756" width="20" height="20" as="geometry" />
        </mxCell>
        <mxCell id="QEQtitZpCN8_V80LvbnB-321" value="" style="rounded=0;whiteSpace=wrap;html=1;" parent="1" vertex="1">
          <mxGeometry x="370" y="756" width="20" height="20" as="geometry" />
        </mxCell>
        <mxCell id="QEQtitZpCN8_V80LvbnB-322" value="" style="rounded=0;whiteSpace=wrap;html=1;" parent="1" vertex="1">
          <mxGeometry x="390" y="756" width="20" height="20" as="geometry" />
        </mxCell>
        <mxCell id="QEQtitZpCN8_V80LvbnB-323" value="" style="rounded=0;whiteSpace=wrap;html=1;fillColor=#60a917;fontColor=#ffffff;strokeColor=#2D7600;" parent="1" vertex="1">
          <mxGeometry x="330" y="776" width="20" height="20" as="geometry" />
        </mxCell>
        <mxCell id="QEQtitZpCN8_V80LvbnB-324" value="" style="rounded=0;whiteSpace=wrap;html=1;fillColor=#0050ef;fontColor=#ffffff;strokeColor=#001DBC;" parent="1" vertex="1">
          <mxGeometry x="350" y="776" width="20" height="20" as="geometry" />
        </mxCell>
        <mxCell id="QEQtitZpCN8_V80LvbnB-325" value="" style="rounded=0;whiteSpace=wrap;html=1;" parent="1" vertex="1">
          <mxGeometry x="370" y="776" width="20" height="20" as="geometry" />
        </mxCell>
        <mxCell id="QEQtitZpCN8_V80LvbnB-326" value="" style="rounded=0;whiteSpace=wrap;html=1;" parent="1" vertex="1">
          <mxGeometry x="390" y="776" width="20" height="20" as="geometry" />
        </mxCell>
        <mxCell id="QEQtitZpCN8_V80LvbnB-327" value="" style="rounded=0;whiteSpace=wrap;html=1;fillColor=#d80073;fontColor=#ffffff;strokeColor=#A50040;" parent="1" vertex="1">
          <mxGeometry x="330" y="796" width="20" height="20" as="geometry" />
        </mxCell>
        <mxCell id="QEQtitZpCN8_V80LvbnB-328" value="" style="rounded=0;whiteSpace=wrap;html=1;fillColor=#6a00ff;fontColor=#ffffff;strokeColor=#3700CC;" parent="1" vertex="1">
          <mxGeometry x="350" y="796" width="20" height="20" as="geometry" />
        </mxCell>
        <mxCell id="QEQtitZpCN8_V80LvbnB-329" value="" style="rounded=0;whiteSpace=wrap;html=1;" parent="1" vertex="1">
          <mxGeometry x="370" y="796" width="20" height="20" as="geometry" />
        </mxCell>
        <mxCell id="QEQtitZpCN8_V80LvbnB-330" value="" style="rounded=0;whiteSpace=wrap;html=1;" parent="1" vertex="1">
          <mxGeometry x="390" y="796" width="20" height="20" as="geometry" />
        </mxCell>
        <mxCell id="QEQtitZpCN8_V80LvbnB-340" value="" style="rounded=0;whiteSpace=wrap;html=1;fillColor=#60a917;fontColor=#ffffff;strokeColor=#2D7600;" parent="1" vertex="1">
          <mxGeometry x="500" y="736" width="20" height="20" as="geometry" />
        </mxCell>
        <mxCell id="QEQtitZpCN8_V80LvbnB-341" value="" style="rounded=0;whiteSpace=wrap;html=1;fillColor=#0050ef;fontColor=#ffffff;strokeColor=#001DBC;" parent="1" vertex="1">
          <mxGeometry x="520" y="736" width="20" height="20" as="geometry" />
        </mxCell>
        <mxCell id="QEQtitZpCN8_V80LvbnB-342" value="" style="rounded=0;whiteSpace=wrap;html=1;" parent="1" vertex="1">
          <mxGeometry x="540" y="736" width="20" height="20" as="geometry" />
        </mxCell>
        <mxCell id="QEQtitZpCN8_V80LvbnB-343" value="" style="rounded=0;whiteSpace=wrap;html=1;" parent="1" vertex="1">
          <mxGeometry x="560" y="736" width="20" height="20" as="geometry" />
        </mxCell>
        <mxCell id="QEQtitZpCN8_V80LvbnB-344" value="" style="rounded=0;whiteSpace=wrap;html=1;fillColor=#d80073;fontColor=#ffffff;strokeColor=#A50040;" parent="1" vertex="1">
          <mxGeometry x="500" y="756" width="20" height="20" as="geometry" />
        </mxCell>
        <mxCell id="QEQtitZpCN8_V80LvbnB-345" value="" style="rounded=0;whiteSpace=wrap;html=1;fillColor=#6a00ff;fontColor=#ffffff;strokeColor=#3700CC;" parent="1" vertex="1">
          <mxGeometry x="520" y="756" width="20" height="20" as="geometry" />
        </mxCell>
        <mxCell id="QEQtitZpCN8_V80LvbnB-346" value="" style="rounded=0;whiteSpace=wrap;html=1;" parent="1" vertex="1">
          <mxGeometry x="540" y="756" width="20" height="20" as="geometry" />
        </mxCell>
        <mxCell id="QEQtitZpCN8_V80LvbnB-347" value="" style="rounded=0;whiteSpace=wrap;html=1;" parent="1" vertex="1">
          <mxGeometry x="560" y="756" width="20" height="20" as="geometry" />
        </mxCell>
        <mxCell id="QEQtitZpCN8_V80LvbnB-348" value="" style="rounded=0;whiteSpace=wrap;html=1;fillColor=#60a917;fontColor=#ffffff;strokeColor=#2D7600;" parent="1" vertex="1">
          <mxGeometry x="500" y="776" width="20" height="20" as="geometry" />
        </mxCell>
        <mxCell id="QEQtitZpCN8_V80LvbnB-349" value="" style="rounded=0;whiteSpace=wrap;html=1;fillColor=#0050ef;fontColor=#ffffff;strokeColor=#001DBC;" parent="1" vertex="1">
          <mxGeometry x="520" y="776" width="20" height="20" as="geometry" />
        </mxCell>
        <mxCell id="QEQtitZpCN8_V80LvbnB-350" value="" style="rounded=0;whiteSpace=wrap;html=1;" parent="1" vertex="1">
          <mxGeometry x="540" y="776" width="20" height="20" as="geometry" />
        </mxCell>
        <mxCell id="QEQtitZpCN8_V80LvbnB-351" value="" style="rounded=0;whiteSpace=wrap;html=1;" parent="1" vertex="1">
          <mxGeometry x="560" y="776" width="20" height="20" as="geometry" />
        </mxCell>
        <mxCell id="QEQtitZpCN8_V80LvbnB-352" value="" style="rounded=0;whiteSpace=wrap;html=1;fillColor=#d80073;fontColor=#ffffff;strokeColor=#A50040;" parent="1" vertex="1">
          <mxGeometry x="500" y="796" width="20" height="20" as="geometry" />
        </mxCell>
        <mxCell id="QEQtitZpCN8_V80LvbnB-353" value="" style="rounded=0;whiteSpace=wrap;html=1;fillColor=#6a00ff;fontColor=#ffffff;strokeColor=#3700CC;" parent="1" vertex="1">
          <mxGeometry x="520" y="796" width="20" height="20" as="geometry" />
        </mxCell>
        <mxCell id="QEQtitZpCN8_V80LvbnB-354" value="" style="rounded=0;whiteSpace=wrap;html=1;" parent="1" vertex="1">
          <mxGeometry x="540" y="796" width="20" height="20" as="geometry" />
        </mxCell>
        <mxCell id="QEQtitZpCN8_V80LvbnB-355" value="" style="rounded=0;whiteSpace=wrap;html=1;" parent="1" vertex="1">
          <mxGeometry x="560" y="796" width="20" height="20" as="geometry" />
        </mxCell>
        <mxCell id="QEQtitZpCN8_V80LvbnB-373" value="" style="rounded=0;whiteSpace=wrap;html=1;fillColor=#60a917;fontColor=#ffffff;strokeColor=#2D7600;rotation=-90;" parent="1" vertex="1">
          <mxGeometry x="640" y="736" width="20" height="20" as="geometry" />
        </mxCell>
        <mxCell id="QEQtitZpCN8_V80LvbnB-374" value="" style="rounded=0;whiteSpace=wrap;html=1;fillColor=#d80073;fontColor=#ffffff;strokeColor=#A50040;rotation=-90;" parent="1" vertex="1">
          <mxGeometry x="660" y="736" width="20" height="20" as="geometry" />
        </mxCell>
        <mxCell id="QEQtitZpCN8_V80LvbnB-375" value="" style="rounded=0;whiteSpace=wrap;html=1;fillColor=#60a917;fontColor=#ffffff;strokeColor=#2D7600;rotation=-90;" parent="1" vertex="1">
          <mxGeometry x="680" y="736" width="20" height="20" as="geometry" />
        </mxCell>
        <mxCell id="QEQtitZpCN8_V80LvbnB-376" value="" style="rounded=0;whiteSpace=wrap;html=1;fillColor=#d80073;fontColor=#ffffff;strokeColor=#A50040;rotation=-90;" parent="1" vertex="1">
          <mxGeometry x="700" y="736" width="20" height="20" as="geometry" />
        </mxCell>
        <mxCell id="QEQtitZpCN8_V80LvbnB-377" value="" style="rounded=0;whiteSpace=wrap;html=1;fillColor=#0050ef;fontColor=#ffffff;strokeColor=#001DBC;rotation=-90;" parent="1" vertex="1">
          <mxGeometry x="640" y="756" width="20" height="20" as="geometry" />
        </mxCell>
        <mxCell id="QEQtitZpCN8_V80LvbnB-378" value="" style="rounded=0;whiteSpace=wrap;html=1;fillColor=#6a00ff;fontColor=#ffffff;strokeColor=#3700CC;rotation=-90;" parent="1" vertex="1">
          <mxGeometry x="660" y="756" width="20" height="20" as="geometry" />
        </mxCell>
        <mxCell id="QEQtitZpCN8_V80LvbnB-379" value="" style="rounded=0;whiteSpace=wrap;html=1;fillColor=#0050ef;fontColor=#ffffff;strokeColor=#001DBC;rotation=-90;" parent="1" vertex="1">
          <mxGeometry x="680" y="756" width="20" height="20" as="geometry" />
        </mxCell>
        <mxCell id="QEQtitZpCN8_V80LvbnB-380" value="" style="rounded=0;whiteSpace=wrap;html=1;fillColor=#6a00ff;fontColor=#ffffff;strokeColor=#3700CC;rotation=-90;" parent="1" vertex="1">
          <mxGeometry x="700" y="756" width="20" height="20" as="geometry" />
        </mxCell>
        <mxCell id="QEQtitZpCN8_V80LvbnB-381" value="" style="rounded=0;whiteSpace=wrap;html=1;" parent="1" vertex="1">
          <mxGeometry x="640" y="776" width="20" height="20" as="geometry" />
        </mxCell>
        <mxCell id="QEQtitZpCN8_V80LvbnB-382" value="" style="rounded=0;whiteSpace=wrap;html=1;" parent="1" vertex="1">
          <mxGeometry x="660" y="776" width="20" height="20" as="geometry" />
        </mxCell>
        <mxCell id="QEQtitZpCN8_V80LvbnB-383" value="" style="rounded=0;whiteSpace=wrap;html=1;" parent="1" vertex="1">
          <mxGeometry x="680" y="776" width="20" height="20" as="geometry" />
        </mxCell>
        <mxCell id="QEQtitZpCN8_V80LvbnB-384" value="" style="rounded=0;whiteSpace=wrap;html=1;" parent="1" vertex="1">
          <mxGeometry x="700" y="776" width="20" height="20" as="geometry" />
        </mxCell>
        <mxCell id="QEQtitZpCN8_V80LvbnB-385" value="" style="rounded=0;whiteSpace=wrap;html=1;" parent="1" vertex="1">
          <mxGeometry x="640" y="796" width="20" height="20" as="geometry" />
        </mxCell>
        <mxCell id="QEQtitZpCN8_V80LvbnB-386" value="" style="rounded=0;whiteSpace=wrap;html=1;" parent="1" vertex="1">
          <mxGeometry x="660" y="796" width="20" height="20" as="geometry" />
        </mxCell>
        <mxCell id="QEQtitZpCN8_V80LvbnB-387" value="" style="rounded=0;whiteSpace=wrap;html=1;" parent="1" vertex="1">
          <mxGeometry x="680" y="796" width="20" height="20" as="geometry" />
        </mxCell>
        <mxCell id="QEQtitZpCN8_V80LvbnB-388" value="" style="rounded=0;whiteSpace=wrap;html=1;" parent="1" vertex="1">
          <mxGeometry x="700" y="796" width="20" height="20" as="geometry" />
        </mxCell>
        <mxCell id="QEQtitZpCN8_V80LvbnB-389" value="Global" style="text;html=1;align=center;verticalAlign=middle;whiteSpace=wrap;rounded=0;" parent="1" vertex="1">
          <mxGeometry x="650" y="850" width="60" height="30" as="geometry" />
        </mxCell>
        <mxCell id="i_xbYi5hBtWHK1lFcbT9-1" value="copy back to global" style="text;html=1;align=center;verticalAlign=middle;resizable=0;points=[];autosize=1;strokeColor=none;fillColor=none;" vertex="1" parent="1">
          <mxGeometry x="580" y="48" width="130" height="30" as="geometry" />
        </mxCell>
      </root>
    </mxGraphModel>
  </diagram>
</mxfile>
